<?xml version="1.0" standalone="no"?>
<!DOCTYPE svg PUBLIC "-//W3C//DTD SVG 1.1//EN" "http://www.w3.org/Graphics/SVG/1.1/DTD/svg11.dtd" >
<svg xmlns="http://www.w3.org/2000/svg" xmlns:xlink="http://www.w3.org/1999/xlink" version="1.1">
<metadata>
Created by FontForge 20220308 at Wed Apr  1 15:17:16 2020
 By Wenitte Apiou
Copyright (c) 2015, Chiadikobi Nwaubani
</metadata>
<defs>
<font id="Akagu" horiz-adv-x="1000" >
  <font-face 
    font-family="Akagu"
    font-weight="400"
    font-stretch="normal"
    units-per-em="1000"
    panose-1="2 0 5 3 0 0 0 0 0 0"
    ascent="800"
    descent="-200"
    x-height="742"
    cap-height="750"
    bbox="-24 -316 6841 893"
    underline-thickness="50"
    underline-position="-150"
    unicode-range="U+0020-20B9F"
  />
<missing-glyph horiz-adv-x="364" 
d="M33 0v666h265v-666h-265zM66 33h199v600h-199v-600z" />
    <glyph glyph-name="space" unicode="&#x20;&#x20;&#x20;" horiz-adv-x="241" 
 />
    <glyph glyph-name="nothing" unicode="&#x20;&#x20;" horiz-adv-x="4" 
 />
    <glyph glyph-name="Q" unicode="KW" horiz-adv-x="898" 
d="M713 78l59 -25l-85 -203l-59 25l27 64q-96 48 -171 133l-203 -198l-48 42l5 8q6 8 15.5 21t22 31t28.5 41t32.5 47.5t36 54t37.5 58.5q-48 84 -70 169t-22 134v26l-79 78l-54 -62l-48 42l146 165l48 -42l-49 -55l46 -45q12 53 44 89t94 60q35 14 61 14q38 0 72 -26
q58 -45 58 -147q0 -6 -1 -16.5t-1 -15.5q0 -56 -77 -204l92 -89l-140 -136q64 -73 150 -116zM488 676q-56 -21 -80 -52t-24 -92l147 -145q55 109 62 165v25q0 72 -33 97q-11 10 -33 10q-19 0 -39 -8zM449 240q25 40 51 89l-115 113q13 -102 64 -202zM491 167l88 85l-32 31
q-20 -36 -62 -106q1 -1 3 -4.5t3 -5.5z" />
    <glyph glyph-name="ligaMM" unicode="MM" horiz-adv-x="1079" 
d="M976 168l-45 -54l-37 31q-124 -151 -223 -220q-110 -75 -216 -75q-71 0 -140 35q-48 24 -77 67q-27 41 -31 90q-4 53 19 101t67 81q30 22 70 38t66.5 22.5t75.5 17.5q83 17 121 32q81 31 127 85q50 59 38 128q-12 71 -77 108q-64 35 -144 22q-28 -5 -57 -17.5t-52 -26.5
t-49.5 -38.5t-44 -43t-43.5 -50.5t-39 -50t-39 -53q-18 -24 -27 -37l36 -30l-45 -53l-130 107l45 54l40 -33q8 11 25 34q95 131 154 187q103 100 215 119q49 8 98 0q50 -7 91 -30q95 -53 112 -157q17 -102 -54 -185q-57 -68 -155 -106q-43 -16 -132 -35q-45 -9 -69 -15
t-57.5 -19.5t-57.5 -30.5q-30 -22 -45.5 -54t-12.5 -66q5 -68 70 -101q133 -68 284 36q92 63 209 207l-39 32l45 54z" />
    <glyph glyph-name="ligaNN" unicode="NN" 
d="M830 -82h43v-68h-155v68h44l1 636q0 8 -1.5 18.5t-9.5 31.5t-20.5 36.5t-38.5 28.5t-60 13t-60 -13t-38.5 -29t-20.5 -37t-9.5 -31.5t-1.5 -18.5l2 -437q-1 -3 0 -15.5t-2.5 -37.5t-9 -51t-20 -55.5t-35.5 -50.5q-53 -56 -137 -56q-101 0 -143 84q-17 36 -21 82.5
t2.5 85.5t18.5 71l-31 14l28 63l126 -57l-29 -62l-32 14q-8 -24 -12.5 -53.5t-2.5 -66t15 -61.5q22 -46 81 -46q55 0 87 35q15 15 25.5 37.5t14.5 42.5t6.5 39.5t1.5 29.5t0 12l-2 440q1 23 7 47t20.5 51.5t36 48.5t57 35t79 14t78.5 -14t56.5 -35t36 -48.5t20.5 -51.5
t7 -46z" />
    <glyph glyph-name="ligaGB" unicode="GB" horiz-adv-x="1170" 
d="M945 23q-32 -37 -47 -63q-6 -11 -5 -15q3 -5 17.5 -12t37.5 -10q28 -5 76 -1l6 -70q-27 -2 -47 -2q-25 0 -46 3q-33 6 -58 18q-36 17 -49 45q-17 37 8 79q18 31 53 73q20 25 33 41q24 32 39 78.5t15 90.5q0 13 -1 25q-4 69 -30 132q-30 72 -84 128q-37 37 -81.5 63.5
t-94 40t-101.5 13.5t-101.5 -13.5t-93.5 -40t-81 -63.5q-55 -56 -84 -128q-26 -63 -31 -132v-25q0 -44 15 -90.5t39 -78.5q12 -16 33 -41q35 -42 53 -73q25 -42 8 -79q-14 -28 -49 -45q-25 -12 -58 -18q-21 -3 -46 -3q-20 0 -48 2l6 70q49 -4 77 1q23 3 37.5 10t16.5 12
q2 4 -4 15q-16 26 -47 63q-22 26 -35 44q-32 42 -51 101q-17 56 -17 110q0 15 1 30q4 80 35 153q35 85 98.5 150.5t146.5 101.5q86 37 180 37v0q94 0 180 -37q83 -36 147 -101.5t99 -150.5q12 -29 20 -59t12 -61t4 -63q0 -18 -2 -36.5t-6 -37t-10 -36.5q-18 -59 -51 -101
q-13 -18 -34 -44z" />
    <glyph glyph-name="ligaGW" unicode="GW" horiz-adv-x="814" 
d="M214 -150h-48l90 263l65 -22l-58 -169q72 10 142.5 46t125.5 91q119 121 116 285q-3 138 -95 234.5t-225 102.5l-168 -219l-54 41l188 247h17q82 0 156.5 -31.5t128.5 -85.5t86.5 -129t33.5 -158q4 -194 -136 -335q-48 -49 -109 -85.5t-127 -56t-129 -19.5z" />
    <glyph glyph-name="ligaCH" unicode="CH" horiz-adv-x="1009" 
d="M907 750v-74h-341v-822h-73v336h-267q-33 0 -47 -15q-6 -7 -9.5 -17.5t-3 -16t0.5 -7.5v-284h-73v280q-1 1 -1 6.5t1 16t3.5 21.5t9.5 24.5t17 25.5q36 40 102 40h267v412h-341v74h755z" />
    <glyph glyph-name="ligaHNW" unicode="HNW" horiz-adv-x="811" 
d="M506 334q25 -1 51.5 -9t56.5 -26.5t53 -45.5t38 -71t15 -98q0 -111 -61 -172.5t-172 -61.5q-46 0 -83.5 24t-57.5 65q-19 41 -15 84t31 76q36 44 83 45h1q21 0 42 -10.5t29 -17.5t13 -13l-52 -45q-4 5 -14.5 11t-18.5 6q-14 0 -30 -19q-14 -18 -16 -41.5t9 -46.5
q4 -9 10.5 -17t14 -14t16 -10t18 -6.5t20.5 -2.5q165 1 165 166q0 130 -101 170q-25 11 -47 12h-225l-8 4q-57 32 -55 76q0 12 5.5 24t12 19.5t15.5 14.5t14 10t10 5l7 3h199q10 0 20.5 3.5t13.5 6.5q0 13 -9.5 21t-16 10t-11.5 2h-204l-10 10q-42 43 -35 85q3 18 14 32
t18 18.5t13 7.5l7 3h191q40 25 42 44q0 7 -7 17h-308v-763l50 -1v-68l-171 1v68h53v831h402l9 -7q4 -3 9 -8t13.5 -15.5t13.5 -26.5t4 -32q-4 -59 -84 -104l-8 -4h-191q-2 -2 -2 -4q-1 -5 7 -15h177q16 -2 32 -8t32.5 -17.5t26.5 -32.5t10 -47q1 -26 -18 -45
q-30 -30 -83 -30h-183q-9 -6 -12 -11q1 0 2.5 -1l4.5 -3t6 -5h209z" />
    <glyph glyph-name="ligaKP" unicode="KP" horiz-adv-x="880" 
d="M718 80l66 -28l-85 -202l-66 28l25 60q-81 42 -146 108q-27 -52 -66 -92q-41 -43 -88 -67t-89 -24h-1q-62 0 -108 43.5t-51 108.5q-7 72 44.5 133.5t156.5 79.5q38 7 71 16q-30 69 -43.5 133.5t-13.5 101.5q0 36 3 63q-31 24 -65 42l-27 -64l-66 27l85 202l66 -27
l-30 -71q27 -14 53 -32q30 80 131 118q89 34 154 -17q39 -31 56 -80.5t12 -96.5q-23 -197 -138 -290q3 -69 -16 -133q63 -72 144 -116zM395 3q42 45 66 103q-26 34 -47 73q-43 -13 -91 -22q-78 -13 -112.5 -52t-30.5 -84q3 -35 27 -60.5t61 -25.5h1q27 0 61 18.5t65 49.5z
M449 269q18 9 34 19q-14 105 -87 190q0 -19 4.5 -48t17 -73.5t31.5 -87.5zM404 572q111 -98 143 -230q61 71 77 210q4 29 -6.5 61t-33.5 50q-34 26 -85 7q-43 -16 -64.5 -38t-30.5 -60z" />
    <glyph glyph-name="ligaNW" unicode="NW" horiz-adv-x="1112" 
d="M1000 90l48 -49l-130 -129l-49 49l36 35q-52 49 -107 87q-58 -104 -146 -168.5t-188 -64.5q-22 2 -46 9t-51.5 22.5t-49 37.5t-36.5 57t-17 78q-4 76 45 130q36 39 90 59t106 23q111 5 264 -84q34 86 34 164q0 89 -42.5 164.5t-116.5 121.5t-162 49l-295 -294l34 -33
l-49 -48l-117 123l49 48l35 -42l315 315h14q110 0 203 -54t147 -147t54 -203q0 -99 -43 -201q64 -45 125 -101zM467 -82q78 0 150.5 57t122.5 145q-69 41 -128.5 59t-97.5 18h-6q-39 -1 -80.5 -16t-67.5 -43q-30 -33 -28 -81q2 -36 16.5 -63t31.5 -40.5t39 -22.5t31.5 -10.5
t16.5 -2.5z" />
    <glyph glyph-name="ligaNY" unicode="NY" horiz-adv-x="815" 
d="M579 251q64 -56 96.5 -135t18.5 -145q-8 -42 -35 -71.5t-69 -43.5q-19 -6 -38 -6q-24 0 -47.5 11.5t-39 26t-33 38.5t-25 37.5t-19.5 35.5q-10 20 -13 23q-4 4 -11 12q-20 24 -35 23q-9 -1 -20.5 -8t-31 -25t-47 -58t-58.5 -97l-60 32q59 109 110 163.5t100 60.5
q50 5 94 -46q3 -4 5 -5q9 -7 28 -43q14 -27 25.5 -45.5t27 -37.5t32.5 -25.5t35 -0.5q48 15 58 62q10 48 -17 110t-76 105q-52 46 -80 162q-11 -3 -21 -5q-32 -7 -63 8.5t-54 41.5t-45.5 64.5t-36 69.5t-25.5 65l-57 -47l-44 52l136 113l14 -50q18 -59 44.5 -116.5t59 -98
t57.5 -35.5q11 2 22 7q-10 64 -12 135t1 74q7 64 48 93q37 26 79 16q20 -5 35 -15.5t23.5 -26.5t12 -26.5t6.5 -26.5q8 -32 -6.5 -82t-45.5 -98q-29 -47 -66 -76q23 -111 63 -146zM498 631q-6 -50 5 -151q12 14 22 30q23 37 35 74.5t8 52.5q-5 18 -9 28t-7.5 12.5t-10.5 3.5
q-2 1 -4 1q-11 0 -19 -6q-17 -11 -20 -45z" />
    <glyph glyph-name="ligaSH" unicode="SH" horiz-adv-x="619" 
d="M479 504q10 -2 18.5 -7.5t19.5 -20t13.5 -36.5t0.5 -58q-6 -47 -39 -83.5t-81 -52.5q0 -18 -0.5 -75.5t-0.5 -89t1 -78t3 -81.5h41v-71h-156v71h44q-4 60 -3 316q-34 2 -65 15.5t-61.5 43.5t-50.5 75q-25 53 -25.5 108t14.5 95t41 76h-43v-29h-72v129h72v-29h233l-85 -64
q-7 -5 -17 -14t-29.5 -35t-31 -54t-11.5 -70t19 -84q18 -41 48 -65t66 -27q3 78 15 107q19 46 53.5 71.5t68.5 16.5zM460 391q4 29 -1 43q-22 -9 -36 -45q-7 -16 -10 -64q42 24 47 66z" />
    <glyph glyph-name="ligaGH" unicode="GH" horiz-adv-x="955" 
d="M813 728q15 -12 25 -30t13.5 -35.5t4 -26.5t0.5 -16l-2 -11q-26 -63 -59 -111t-69.5 -75.5t-69.5 -42.5t-69 -21q-37 -137 -65 -290q-5 -25 -15 -52t-30 -57.5t-46 -54.5t-64.5 -39.5t-83.5 -15.5h-10q-79 3 -120.5 49.5t-41.5 107.5q1 62 45.5 110.5t122.5 53.5
q6 4 10 8q-4 3 -10 6l-110 37l-14 -43l-65 21l46 143l65 -21l-11 -35l118 -40q54 -27 53 -68q0 -16 -7.5 -29.5t-19 -22.5t-18.5 -13.5t-14 -7.5l-6 -3h-7q-52 -2 -80.5 -30.5t-28.5 -66.5q0 -21 8.5 -39.5t31 -32.5t55.5 -15q41 -2 74.5 14t52 37.5t31.5 49.5t16.5 41
t4.5 21q29 154 60 274q-18 1 -35 4q-60 11 -106.5 43.5t-46.5 72.5q0 27 -2 37q-11 -1 -32 -6q-46 -12 -75 14q-34 31 -25 88l34 -5l34 -4q-3 -21 3 -28h1h2q4 0 10 1q21 6 34.5 8t29.5 -0.5t28 -11.5t18.5 -26.5t7 -30t0.5 -36.5q5 -13 45 -32t91 -21h3q26 93 53.5 159
t50.5 98.5t38.5 46.5t29.5 17q66 18 108 -16zM609 435q116 39 178 193q-1 34 -17 47q-8 7 -23 7q-10 0 -24 -4q-21 -6 -51.5 -71t-62.5 -172z" />
    <glyph glyph-name="doubleE" unicode="EE" horiz-adv-x="775" 
d="M598 -150h-275v260q-83 -40 -176 -70l-21 66q104 33 197 82v168q0 32 31.5 53.5t70.5 21.5q44 0 72 -29q32 -32 32 -90q0 -83 -137 -165v-229h206v-68zM392 352v-123q69 47 69 83q0 41 -23 48q-14 3 -27 0t-19 -8zM136 682v68h462v-68h-462zM136 496v69h462v-69h-462z
" />
    <glyph glyph-name="doubleO" unicode="OO" horiz-adv-x="1177" 
d="M420 -150l-27 13q-70 33 -125 86q-107 103 -133.5 253t37.5 284q64 132 196.5 205t278.5 56q145 -17 256.5 -117t143.5 -243q34 -148 -28 -290t-195 -218l-33 59q113 65 166 186t24 248q-24 109 -105 190l-166 -259l241 -153h-339zM595 682q-114 0 -213 -61.5
t-149 -164.5q-55 -114 -32 -242t114 -216q36 -35 80 -60l137 212h-306l289 196l-206 130l37 57l231 -146l283 191q-96 87 -221 102q-22 2 -44 2zM656 218h61l-44 28zM447 218h128l41 64l-38 24zM639 347l14 -8l20 31z" />
    <glyph glyph-name="doubleI" unicode="II" horiz-adv-x="838" 
d="M402 -150q-16 0 -32 3l-10 3q-28 15 -45.5 32t-25 32.5t-7.5 35.5t3 34.5t10 35.5q-10 2 -20 7q-30 13 -49.5 38.5t-24.5 57.5q-3 11 -4 30q1 65 33 130q10 20 21 39q54 76 104.5 119.5t126.5 80.5l30 -61q-35 -17 -61 -33.5t-50.5 -37.5t-46 -46.5t-46.5 -60.5
q-8 -13 -17 -30q-25 -52 -26 -99q1 -9 3 -17q6 -35 34 -48q8 -3 15 -3l4 10q9 21 16 37l5 11q16 38 25 55q11 19 18 30q72 119 166 156q38 9 65 -8q20 -13 25 -36l1 -8q0 -1 1 -6q2 -32 -9 -51q-6 -13 -16 -32q-51 -94 -135 -154q-17 -11 -36 -22q-3 -2 -10 -6
q-12 -9 -20 -12q-13 -7 -29 -14q-9 -5 -19 -10q-2 -6 -5 -17q-16 -41 -13 -59.5t35 -35.5q30 -4 57.5 6t52.5 34.5t43.5 47.5t41.5 57q5 9 13 23l32 -14l29 -18q-12 -21 -17 -28q-18 -28 -30 -44.5t-37 -45t-47.5 -45t-55 -30t-66.5 -13.5zM574 326q-1 0 -3 -1
q-67 -26 -128 -126q-6 -10 -16 -27q-7 -14 -19 -42q4 3 8 5q14 8 28 17q70 51 114 131q7 14 15 31q2 4 1 12zM190 682v68h476v-68h-476zM190 491v68h476v-68h-476z" />
    <glyph glyph-name="doubleU" unicode="UU" horiz-adv-x="1123" 
d="M294 -150q-22 0 -43 6q-42 12 -69 50.5t-21 99.5q-1 12 1.5 25.5t12.5 34.5t35.5 46.5t64.5 49.5q47 30 162 90q2 42 4 85l-232 -103l-28 62l329 146v-52q0 -43 -3 -101q137 71 261 131l125 62l-83 -112q-22 -31 -47 -72.5t-52.5 -95t-42 -106t-6.5 -86.5q7 -29 32 -42
l10 -8q3 -2 7 -4.5t19.5 -7t33.5 -4.5t49 7.5t66 23.5l29 -62q-53 -25 -99 -33.5t-76.5 -1.5t-47 14.5t-27.5 17.5q-49 28 -62 84q-26 110 90 309q-106 -53 -183 -94q-14 -187 -49 -259q-14 -30 -39.5 -53t-56.5 -35t-64 -12zM431 172q-83 -45 -120 -68q-24 -15 -41 -30
t-24.5 -25t-11.5 -19t-4.5 -12.5t-0.5 -4.5l2 -6l-2 -4q-8 -67 41 -81q32 -9 69 7t53 50q26 53 39 193zM199 682v68h749v-68h-749zM199 492v69h749v-69h-749z" />
    <glyph glyph-name="doubleA" unicode="AA" horiz-adv-x="946" 
d="M438 -150q-133 0 -195 61t-64 192v55q-23 -1 -44 -1h-33.5h-13.5v68q13 0 90 1l-1 211h69v-210q265 3 343 6q1 46 5 68t14 43q20 47 74.5 72t102.5 9q7 -2 14 -6t17.5 -11.5t17.5 -19.5t13 -27.5t5.5 -39.5t-7.5 -51q-4 -20 -14.5 -36t-26 -26.5t-31 -17.5t-37.5 -11
t-39 -6t-40 -4v-31v-38q-1 -118 -59 -184t-160 -66zM247 158q0 -27 1 -54q1 -103 43.5 -144.5t146.5 -41.5q36 1 63 12t43 28.5t26.5 42t14 48.5t3.5 51v38v6.5v6.5v6.5v6.5q-83 -3 -341 -6zM748 363q-22 0 -45.5 -13.5t-32.5 -34.5q-11 -22 -12 -77q56 4 85.5 14t35.5 34
q15 64 -16 74q-6 3 -15 3zM92 682v68h735v-68h-735zM92 496v69h735v-69h-735z" />
    <glyph glyph-name="uring" unicode="&#xfc;&#xfc;" horiz-adv-x="952" 
d="M584 -57q8 -4 22 -7t58 -1.5t98 15.5l17 -68q-99 -25 -171 -16q-34 4 -56 15q-60 19 -78 72q-21 62 26 162q-55 -27 -103 -50q-14 -122 -47 -161q-34 -40 -110 -51q-20 -3 -40 -3q-48 0 -81 16q-26 13 -38.5 35.5t-9.5 48.5q0 12 5 24q18 42 112 75q45 16 144 62v5
q4 45 5 95l-222 -54l-17 68l310 76v-45q0 -49 -3 -110q89 44 171 86l135 70l-91 -122q-27 -36 -50 -82q-17 -34 -25 -61t-7 -39.5t3 -22.5q7 -20 34 -28l6 -2zM297 -50q14 16 25 79q-73 -33 -111 -46q-52 -18 -69 -34l-1 -7q-2 -7 9 -13q29 -14 80 -7q49 8 67 28zM584 391
q2 -1 5.5 -2.5t11.5 -3t17.5 -3t24.5 -1.5t32 1.5t39.5 5.5t47.5 10l17 -68q-99 -26 -171 -17q-34 4 -56 15q-60 19 -78 72q-21 63 26 163q-55 -27 -103 -50q-14 -123 -47 -161q-34 -40 -110 -51q-20 -3 -40 -3q-48 0 -81 16q-26 13 -38.5 35t-9.5 49q0 12 5 24
q18 42 112 75q45 15 144 62v5q4 44 5 95l-222 -55l-17 68l310 77v-45q0 -49 -3 -110q91 45 171 86l135 70l-91 -122q-27 -36 -50 -82q-42 -84 -29 -123q7 -20 34 -28l6 -2zM297 398q14 16 25 79q-73 -33 -111 -47q-52 -17 -69 -34l-1 -6q-2 -8 9 -13q29 -14 80 -7
q49 7 67 28zM820 670l67 -12l-12 -67l-134 25l24 134l67 -12z" />
    <glyph glyph-name="uempasismid" unicode="&#x1ee5;&#x1ee5;" horiz-adv-x="1087" 
d="M605 -57q8 -4 22 -7t58 -1.5t98 15.5l17 -68q-99 -25 -171 -16q-34 4 -56 15q-60 19 -78 72q-21 62 26 162q-55 -27 -103 -50q-14 -122 -47 -161q-34 -40 -110 -51q-20 -3 -40 -3q-48 0 -81 16q-26 13 -38.5 35.5t-9.5 48.5q0 12 5 24q18 42 112 75q45 16 144 62v5
q4 45 5 95l-222 -54l-17 68l310 76v-45q0 -49 -3 -110q89 44 171 86l135 70l-91 -122q-27 -36 -50 -82q-17 -34 -25 -61t-7 -39.5t3 -22.5q7 -20 34 -28l6 -2zM318 -50q14 16 25 79q-73 -33 -111 -46q-52 -18 -69 -34l-1 -7q-2 -7 9 -13q29 -14 80 -7q49 8 67 28zM605 391
q2 -1 5.5 -2.5t11.5 -3t17.5 -3t24.5 -1.5t32 1.5t39.5 5.5t47.5 10l17 -68q-99 -26 -171 -17q-34 4 -56 15q-60 19 -78 72q-21 63 26 163q-55 -27 -103 -50q-14 -123 -47 -161q-34 -40 -110 -51q-20 -3 -40 -3q-48 0 -81 16q-26 13 -38.5 35t-9.5 49q0 12 5 24
q18 42 112 75q45 15 144 62v5q4 44 5 95l-222 -55l-17 68l310 77v-45q0 -49 -3 -110q91 45 171 86l135 70l-91 -122q-27 -36 -50 -82q-42 -84 -29 -123q7 -20 34 -28l6 -2zM318 398q14 16 25 79q-73 -33 -111 -47q-52 -17 -69 -34l-1 -6q-2 -8 9 -13q29 -14 80 -7
q49 7 67 28zM946 7l-128 293l128 293l54 -24l-117 -269l117 -270z" />
    <glyph glyph-name="uni1EEB" unicode="&#x173;&#x173;" horiz-adv-x="986" 
d="M605 -57q8 -4 22 -7t58 -1.5t98 15.5l17 -68q-99 -25 -171 -16q-34 4 -56 15q-60 19 -78 72q-21 62 26 162q-55 -27 -103 -50q-14 -122 -47 -161q-34 -40 -110 -51q-20 -3 -40 -3q-48 0 -81 16q-26 13 -38.5 35.5t-9.5 48.5q0 12 5 24q18 42 112 75q45 16 144 62v5
q4 45 5 95l-222 -54l-17 68l310 76v-45q0 -49 -3 -110q89 44 171 86l135 70l-91 -122q-27 -36 -50 -82q-17 -34 -25 -61t-7 -39.5t3 -22.5q7 -20 34 -28l6 -2zM318 -50q14 16 25 79q-73 -33 -111 -46q-52 -18 -69 -34l-1 -7q-2 -7 9 -13q29 -14 80 -7q49 8 67 28zM605 391
q2 -1 5.5 -2.5t11.5 -3t17.5 -3t24.5 -1.5t32 1.5t39.5 5.5t47.5 10l17 -68q-99 -26 -171 -17q-34 4 -56 15q-60 19 -78 72q-21 63 26 163q-55 -27 -103 -50q-14 -123 -47 -161q-34 -40 -110 -51q-20 -3 -40 -3q-48 0 -81 16q-26 13 -38.5 35t-9.5 49q0 12 5 24
q18 42 112 75q45 15 144 62v5q4 44 5 95l-222 -55l-17 68l310 77v-45q0 -49 -3 -110q91 45 171 86l135 70l-91 -122q-27 -36 -50 -82q-42 -84 -29 -123q7 -20 34 -28l6 -2zM318 398q14 16 25 79q-73 -33 -111 -47q-52 -17 -69 -34l-1 -6q-2 -8 9 -13q29 -14 80 -7
q49 7 67 28zM841 77l12 -68l-67 -12l-24 134l134 24l12 -66z" />
    <glyph glyph-name="doubleagrave" unicode="&#xe0;a" horiz-adv-x="985" 
d="M594 748q9 -2 22 -6t47 -18.5t66 -34t73 -54t73 -75.5l-54 -42q-20 26 -44.5 49t-46.5 39t-46 29.5t-40.5 21t-34 14t-22 8t-8.5 2.5zM370 -150q-31 0 -56.5 3.5t-55.5 16.5t-50.5 34.5t-35 61t-14.5 93.5q-1 24 -1 36h-65v68q50 1 65 1l-1 161h69v-161q194 2 260 5
q1 56 15 85q17 39 63 60.5t87 7.5q7 -2 14.5 -6.5t18.5 -14.5t16.5 -24t8.5 -36t-5 -51q-6 -25 -21 -41.5t-38 -25.5t-43 -12.5t-49 -5.5v-9v-9v-31q0 -97 -48 -151.5t-133 -54.5h-1zM226 96v-36q1 -79 33 -110t112 -31q112 0 113 137v31v6.5v6.5q-69 -2 -258 -4zM618 259
q-10 0 -21 -4.5t-20.5 -12t-13.5 -17.5q-8 -16 -10 -51q19 1 32 3t24.5 6t18 9.5t8.5 13.5q11 45 -8 51q-4 2 -10 2zM95 513v68h586v-68h-586zM95 365v69h586v-69h-586z" />
    <glyph glyph-name="doubleegrave" unicode="&#xe8;e" horiz-adv-x="850" 
d="M446 748q9 -2 22 -6t47 -18.5t66 -34t73 -54t73 -75.5l-54 -42q-28 36 -64 66t-63.5 46.5t-58 29.5t-40 16t-16.5 5zM519 -150h-227v203q-61 -29 -131 -51l-21 65q82 26 152 63v130q0 29 27.5 48t61.5 19q37 0 62 -25q28 -28 28 -77q0 -69 -110 -136v-170h158v-69z
M361 253v-81q41 31 41 53q0 27 -12 31q-14 6 -29 -3zM151 512v69h368v-69h-368zM151 365v68h368v-68h-368z" />
    <glyph glyph-name="doubleograve" unicode="&#xf2;o" 
d="M644 748q8 -2 21 -6t47 -18.5t66.5 -34t73 -54t73.5 -75.5l-55 -42q-20 26 -44.5 49t-46 39t-45.5 29.5t-40.5 21t-34 14t-22.5 8t-9 2.5zM361 -150l-27 13q-59 27 -105 73q-90 87 -112.5 213t31.5 239q54 111 165.5 172.5t234.5 47.5q128 -15 224 -106l11 7l-7 -11
q84 -82 110 -193q28 -125 -24.5 -245t-163.5 -184l-34 59q99 57 141 166h-283zM199 101q26 -68 77 -117q27 -26 61 -46l104 163h-242zM608 235l200 -126q32 89 11 181q-19 84 -80 150zM504 543q-93 0 -174 -50.5t-121 -134.5q-28 -57 -31 -122t17 -124l232 157l-163 103
l36 57l189 -119l226 153q-77 66 -175 78q-18 2 -36 2zM400 169h85l29 45l-24 15z" />
    <glyph glyph-name="doubleigrave" unicode="&#xec;i" horiz-adv-x="784" 
d="M407 748q8 -2 21 -6t47 -18.5t66 -34t73 -54t73 -75.5l-54 -42q-28 36 -64 66t-63.5 46.5t-58 29.5t-40 16t-16.5 5zM143 494v69h368v-69h-368zM143 346v69h368v-69h-125l9 -18q-52 -25 -85 -53.5t-70 -81.5q-6 -9 -12 -22q-19 -38 -20 -73q1 -6 2 -11q4 -24 22 -32
q2 -1 4 -1l1 2q6 16 12 29l4 8q12 30 20 43q8 15 14 24q57 95 132 124q34 8 57 -7q19 -11 23 -33l1 -7q3 -32 -8 -49q-3 -8 -11 -24q-41 -74 -107 -122q-15 -10 -29 -18q-3 -1 -7 -4q-10 -7 -17 -10q-9 -5 -21 -10q-6 -4 -13 -7q0 -2 -3 -10q-11 -31 -9.5 -42t21.5 -22
q40 -5 72.5 24.5t70.5 85.5l11 19l59 -35l-13 -21q-15 -22 -24 -35.5t-29.5 -36.5t-38.5 -36t-44 -23.5t-53 -10.5q-14 0 -27 2l-10 4q-27 13 -42.5 30t-19 35.5t-2 33.5t7.5 34q-5 1 -9 3q-25 11 -41.5 32.5t-20.5 48.5q-3 8 -3 24q1 52 26 104q8 16 17 31q54 75 108 114
h-148zM333 103q-3 -4 -5 -9q3 2 7 4q52 38 85 99q5 8 8 16q-43 -23 -83 -89q-5 -8 -12 -21z" />
    <glyph glyph-name="doubleugrave" unicode="&#xf9;u" horiz-adv-x="958" 
d="M626 748q9 -2 22 -6t47 -18.5t66 -34t73 -54t73 -75.5l-54 -42q-20 26 -44.5 49t-46.5 39t-46 29.5t-40.5 21t-33.5 14t-22 8t-9 2.5zM129 498v69h585v-69h-585zM129 351v68h585v-68h-34l-68 -93q-48 -66 -86 -148.5t-28 -126.5q4 -19 21 -27l10 -8v0q2 -2 5.5 -4
t15 -4.5t24.5 -2t35.5 6t47.5 17.5l29 -62q-43 -20 -80 -27t-62 -1.5t-38.5 12t-22.5 14.5q-41 24 -52 71q-19 81 59 225q-62 -32 -116 -60q-4 -41 -8.5 -75.5t-12.5 -69.5t-18 -57q-17 -37 -54 -59.5t-78 -22.5q-18 0 -35 5q-36 10 -58.5 42t-17.5 83q-1 8 0 16t6 22
t14.5 27t28 30t43.5 33q36 22 123 69q2 24 3 49l-170 -75l-28 62l267 119v-53q0 -29 -1 -66q80 41 192 97l84 42h-525zM273 -39q18 37 28 133q-55 -29 -81 -45q-12 -8 -22 -16t-16 -14t-10.5 -11.5t-6.5 -9.5t-3.5 -7.5t-1.5 -4.5v-2l1 -6l-1 -3q-5 -46 27 -55q22 -6 48.5 5
t37.5 36z" />
    <glyph glyph-name="hny" unicode="hny" horiz-adv-x="772" 
d="M361 188q-171 0 -243 106q-36 55 -36 111v35h452q-6 44 -45 80q-38 36 -92.5 55.5t-90.5 18.5q-68 -3 -85 32q-14 30 10 58l64 66l50 -49l-38 -38h4q32 0 72 -10.5t81.5 -32t72.5 -49.5q60 -57 67 -131h104v-70h-108q-13 -65 -58 -111q-22 -22 -50.5 -38t-61.5 -24.5
t-68 -8.5h-1zM157 370q6 -19 18 -36.5t34 -36t61.5 -29.5t90.5 -11h1q81 0 131 51q26 26 36 62h-372zM488 -150q-69 0 -138 47q-8 5 -10 6l-1 0.5l-3 1.5t-4 1q-67 28 -186 -50l-38 58q52 34 96.5 51.5t76 17.5t46.5 -3t31 -10q13 -3 31 -16q17 -11 29 -18t37 -13t52 -3
q23 3 36 8q-21 17 -62 30q-47 15 -76 53q-13 -2 -26 -3q-98 -8 -189 82l-64 -19l-19 66l105 31l15 -17q2 -3 7.5 -9t21.5 -19t32.5 -23t40 -17t45.5 -6q2 0 2 1q-6 32 0 53q6 18 22.5 30t34 14.5t33.5 4t21 -0.5q51 -4 72 -38q14 -20 2 -46q-18 -35 -79 -62q9 -5 19 -9
q59 -18 90 -46t28 -59q-5 -56 -104 -67q-14 -2 -27 -2zM442 106q0 -6 2 -14q20 8 36 18q-24 2 -38 -4z" />
    <glyph glyph-name="doubleaacute" unicode="&#xe1;a" horiz-adv-x="985" 
d="M552 -150q-32 0 -57.5 3.5t-55.5 16.5t-50.5 34.5t-34.5 61t-15 93.5v36h-65l-1 68q50 1 65 1l-1 161h69v-161q194 2 260 5q1 56 16 85q16 39 62.5 60.5t86.5 7.5q8 -2 15 -6.5t18.5 -14.5t16.5 -24t8 -36t-5 -51q-6 -25 -21 -41.5t-38 -25.5t-43 -12.5t-48 -5.5v-9v-9
v-31q-1 -97 -49 -151.5t-133 -54.5zM407 96q0 -2 1 -36q1 -79 32.5 -110t111.5 -31q112 0 113 137v31v6.5v6.5q-68 -2 -258 -4zM799 259q-15 0 -32 -10t-23 -24q-8 -16 -9 -51q18 1 31 3t24.5 6t18 9.5t8.5 13.5q11 45 -8 51q-4 2 -10 2zM276 513v68h586v-68h-586zM276 365
v69h586v-69h-586zM135 523l-54 42q31 41 71.5 75t72 53t65 33t46.5 18t21 6l16 -67q-3 0 -9 -2t-22 -8t-33 -13.5t-40 -21t-44.5 -29t-45.5 -38t-44 -48.5z" />
    <glyph glyph-name="doubleeacute" unicode="&#xe9;e" horiz-adv-x="850" 
d="M695 -150h-226v203q-62 -29 -132 -51l-21 65q82 26 153 63v130q0 19 13 34.5t33 24t42 8.5q38 0 62 -25q28 -28 28 -77q0 -69 -110 -136v-170h158v-69zM537 253v-81q41 31 41 53q0 27 -12 31q-14 6 -29 -3zM327 512v69h368v-69h-368zM327 365v68h368v-68h-368zM167 523
l-54 42q32 41 72.5 75t72 53t65 33t46.5 18t21 6l15 -67q-2 0 -8 -2t-22 -8t-33 -13.5t-40 -21t-45 -29t-46 -38t-44 -48.5z" />
    <glyph glyph-name="doubleoacute" unicode="&#xf3;o" 
d="M376 -150l-27 13q-59 27 -105 73q-90 87 -112.5 213t31.5 239q54 111 165.5 172.5t234.5 47.5q128 -15 224 -106l11 7l-7 -11q84 -82 110 -193q28 -125 -24.5 -245t-163.5 -184l-34 59q99 57 141 166h-283zM214 101q26 -68 77 -117q27 -26 61 -46l104 163h-242zM623 235
l200 -126q32 89 11 181q-19 84 -80 150zM519 543q-93 0 -174 -50.5t-121 -134.5q-28 -57 -31 -122t17 -124l232 157l-163 103l36 57l189 -119l226 153q-77 66 -175 78q-18 2 -36 2zM415 169h85l29 45l-24 15zM143 518l-53 42q33 42 74 77t73.5 54.5t67.5 34t48 18.5t21 6
l16 -66q-6 -1 -17.5 -4.5t-41 -16.5t-58.5 -30t-65 -47.5t-65 -67.5z" />
    <glyph glyph-name="doubleiacute" unicode="&#xed;i" horiz-adv-x="784" 
d="M293 494v69h369v-69h-369zM293 346v69h369v-69h-125l9 -18q-35 -17 -60.5 -34.5t-47.5 -41t-47 -59.5q-6 -9 -12 -22q-19 -38 -20 -73q1 -6 2 -11q4 -24 22 -32q2 -1 4 -1l1 2q6 16 12 29l3 8q13 30 21 43q8 15 14 24q57 95 132 124q33 8 57 -7q19 -11 23 -33l1 -7
q3 -32 -8 -49q-3 -8 -11 -24q-41 -74 -107 -122q-15 -10 -29 -18q-3 -1 -7 -4q-10 -7 -17 -10q-9 -5 -22 -10q-5 -4 -12 -7q-1 -2 -3 -10q-11 -31 -9.5 -42t21.5 -22q40 -5 72.5 24.5t69.5 85.5l12 19l59 -35l-13 -21q-15 -22 -24 -35.5t-29.5 -36.5t-38.5 -36t-44 -23.5
t-53 -10.5q-14 0 -27 2l-10 4q-27 13 -42.5 30t-19 35.5t-2 33.5t7.5 34q-5 1 -9 3q-25 11 -41.5 32.5t-20.5 48.5q-3 8 -3 24q0 52 26 104q8 16 17 31q54 75 108 114h-149zM484 103q-3 -4 -5 -9l6 4q53 38 86 99q5 8 8 16q-43 -23 -83 -89q-5 -8 -12 -21zM369 750l16 -67
q-2 0 -6 -1t-14 -4.5t-21 -8t-27 -12t-31.5 -16t-34 -21t-35.5 -26.5t-35.5 -32.5t-33.5 -38.5l-55 42q32 41 72.5 75t72 53t65 33t46.5 18t21 6z" />
    <glyph glyph-name="doubleuacute" unicode="&#xfa;u" horiz-adv-x="958" 
d="M276 498v69h584v-69h-584zM276 351v68h584v-68h-33l-68 -93q-48 -66 -86.5 -148.5t-27.5 -126.5q4 -19 21 -27l9 -8h1q2 -2 5 -4t14.5 -4.5t25 -2t35.5 6t47 17.5l29 -62q-43 -20 -80 -27t-61.5 -1.5t-38 12t-23.5 14.5q-40 24 -51 71q-19 81 59 225q-62 -32 -117 -60
q-5 -64 -14 -117t-24 -85q-18 -37 -55 -59.5t-78 -22.5q-18 0 -35 5q-35 10 -58 42t-18 83q-1 10 1.5 21.5t11 29t29 37.5t50.5 40q37 22 124 69q1 24 2 49l-169 -75l-28 62l267 119v-53q0 -29 -2 -66q80 41 192 97l85 42h-525zM420 -39q17 37 28 133q-55 -29 -81 -45
q-27 -17 -42 -34t-17 -22.5t-2 -8.5l2 -6l-1 -3q-6 -46 26 -55q22 -6 48.5 5t38.5 36zM368 749l15 -67q-2 0 -8 -2t-22 -7.5t-33 -13.5t-40 -21t-45 -29t-46 -38.5t-44 -48.5l-54 43q23 29 51 55.5t52.5 44t51 33t46 24t38.5 15.5t26 9t12 3z" />
    <glyph glyph-name="anasalacute" unicode="&#xc4;A" horiz-adv-x="1041" 
d="M700 375q7 -2 13.5 -5.5t16 -10.5t16.5 -18.5t12.5 -26t5.5 -36.5t-7 -48q-6 -27 -22.5 -45.5t-43 -28t-48.5 -13.5t-55 -7v-29v-29q0 -107 -53.5 -167.5t-147.5 -60.5q-121 0 -178 55.5t-58 176.5q-1 30 -1 44h-20h-17.5h-14.5t-12 -0.5t-8 -0.5h-4l-1 71q9 0 76 1v184
h71v-184q224 3 298 5q1 28 3 45t5.5 28.5t9.5 24.5q18 43 69 66.5t95 8.5zM518 108v24q-78 -3 -297 -5v-18.5v-25.5q2 -91 38 -126.5t128 -35.5q31 0 54.5 9.5t37.5 25t23 37t12 42t3 44.5zM689 247q13 53 -11 61q-5 2 -12 2q-19 0 -39 -11.5t-27 -28.5q-9 -19 -11 -63
q47 4 71 12.5t29 27.5zM77 596v70h659v-70h-659zM77 430v70h659v-70h-659zM900 670l67 -12l-13 -69l-137 24l25 137l70 -13z" />
    <glyph glyph-name="enasalacute" unicode="&#xcb;E" horiz-adv-x="811" 
d="M327 118v-197h180v-71h-251v231q-73 -35 -152 -60l-21 67q94 30 173 72v149q0 30 29.5 50.5t66.5 20.5q41 0 68 -27q30 -30 30 -84q0 -76 -123 -151zM327 302v-99q52 38 52 66q0 32 -16 38q-19 7 -36 -5zM93 596v70h414v-70h-414zM93 429v71h414v-71h-414zM670 670
l67 -12l-12 -69l-137 24l25 137l70 -13z" />
    <glyph glyph-name="inasalacute" unicode="&#xcf;I" horiz-adv-x="850" 
d="M105 575v70h414v-70h-414zM105 409v70h414v-70h-142l10 -21q-58 -29 -95.5 -61.5t-79.5 -91.5q-7 -10 -14 -25q-22 -44 -22 -84q0 -7 2 -13q5 -29 27 -38q4 -2 7 -3l2 5q6 16 14 33l4 10q14 33 22 48q7 12 16 26q64 106 147 138q36 9 61 -7q20 -13 25 -35l1 -13
q3 -28 -7 -45q-6 -15 -14 -30q-45 -83 -120 -136q-16 -12 -32 -20q-3 -2 -8 -5q-11 -8 -18 -11q-13 -6 -25 -12q-8 -4 -15 -7q-2 -6 -4 -14q-13 -35 -11 -48.5t27 -27.5q25 -2 48 7t44 29.5t36.5 40t34.5 48.5q4 6 14 22l61 -36q-9 -14 -15 -24q-16 -25 -26.5 -39.5t-33 -40
t-42.5 -40t-49 -26.5t-59 -12q-15 0 -30 3l-10 3q-31 16 -48 34.5t-20.5 39t-1.5 37t9 38.5q-6 2 -13 5q-27 12 -45 35t-22 53q-3 10 -4 27q1 58 29 116q10 19 20 34q62 88 128 134h-177zM316 134q-4 -9 -10 -21q8 5 17 11q60 43 97 111q8 14 13 26q-55 -24 -103 -104
q-6 -10 -14 -23zM696 670l67 -12l-12 -69l-137 24l25 137l69 -13z" />
    <glyph glyph-name="onasalacute" unicode="&#xd6;O" horiz-adv-x="1063" 
d="M819 547q91 -88 119 -208q30 -135 -26.5 -263.5t-176.5 -197.5l-34 61q109 62 154 181h-310l-173 -270l-28 13q-62 29 -113 78q-97 94 -121 229.5t34 257.5q58 120 178 186t252 51q139 -16 243 -116zM347 -59l115 179h-266q28 -74 84 -128q30 -30 67 -51zM507 190l33 52
l-28 17l-102 -69h97zM511 343l246 166q-83 74 -191 86q-19 2 -39 2q-101 0 -188.5 -54.5t-131.5 -145.5q-30 -62 -33.5 -133t19.5 -136l254 172l-178 113l37 59zM590 190h31l-22 14zM856 125q36 98 13 198q-21 93 -89 164l-143 -224zM908 671l67 -12l-13 -69l-135 25l25 135
l68 -12z" />
    <glyph glyph-name="unasalacute" unicode="&#xdc;U" horiz-adv-x="1048" 
d="M114 581v70h658v-70h-658zM114 414v71h658v-71h-39l-77 -105q-55 -75 -98 -168.5t-31 -143.5q5 -23 25 -33l10 -8q2 -2 6 -4.5t17 -5.5t28 -3t41 6.5t56 20.5l30 -64q-48 -23 -89.5 -30.5t-69 -1.5t-42.5 13t-25 17q-44 25 -56 77q-22 93 71 260q-76 -38 -143 -73
q-12 -163 -43 -228q-19 -40 -59.5 -65t-85.5 -25q-21 0 -39 5q-39 12 -64 46.5t-20 91.5q0 6 0.5 13.5t3.5 19t10 23.5t18 25.5t29 29t42 30.5q41 26 140 78q2 31 3 63l-196 -87l-28 64l296 132v-55q0 -35 -2 -79q109 56 221 111l107 53h-605zM279 -29q21 44 33 157
q-66 -35 -97 -54q-31 -20 -48 -39.5t-19 -26t-2 -9.5l1 -7l-1 -3q-6 -54 32 -66q26 -7 57 6t44 42zM912 670l67 -12l-12 -69l-137 24l25 137l69 -13z" />
    <glyph glyph-name="anasalgrave" unicode="&#x104;A" 
d="M427 -150q-133 0 -195 61t-64 192v18v19.5v16.5h-43h-34h-13l-1 69h90l-1 211h69q0 -105 1 -210q267 3 342 6q1 47 5 68.5t14 42.5q13 31 43.5 54t65 30t68.5 -2q7 -3 14 -6.5t17.5 -11t18 -20t13 -28t5.5 -39.5t-7 -51q-5 -21 -15.5 -36.5t-25.5 -26t-31 -17.5
t-38 -11.5t-38.5 -6.5t-40.5 -4v-32v-36q0 -118 -58 -184t-161 -66zM237 158q0 -17 1 -54q1 -102 43 -143.5t146 -41.5q36 0 63 11t43 28.5t26.5 42.5t14 48.5t3.5 50.5v36v9.5v10v8.5q-85 -3 -340 -6zM737 362q-22 0 -45 -13.5t-32 -33.5q-11 -22 -13 -77q37 3 59.5 7.5
t40 14.5t21.5 26q15 64 -16 74q-6 2 -15 2zM81 681v69h735v-69h-735zM81 496v69h735v-69h-735zM790 -130l-27 147l147 27l13 -68l-80 -14l15 -80z" />
    <glyph glyph-name="enasalgrave" unicode="&#x118;E" horiz-adv-x="879" 
d="M357 147v-228h206v-69h-275v260q-83 -41 -176 -70l-21 66q104 33 197 82v168q0 32 31.5 53.5t70.5 21.5q44 0 73 -29q32 -32 32 -90q0 -83 -138 -165zM357 351v-122q69 48 69 83q0 40 -23 48q-14 3 -26.5 0t-19.5 -9zM102 681v69h461v-69h-461zM102 496v69h461v-69h-461z
M781 -24l-80 -14l14 -80l-68 -12l-26 147l147 27z" />
    <glyph glyph-name="inasalgrave" unicode="&#x12e;I" horiz-adv-x="883" 
d="M94 681v69h475v-69h-475zM94 490v69h475v-69h-165l11 -24q-68 -33 -111 -70.5t-92 -106.5q-8 -13 -16 -30q-26 -51 -26 -99q0 -8 2 -17q6 -35 34 -47q7 -3 15 -4l4 11q7 18 15 37l5 10q16 38 26 55q8 16 17 31q73 119 166 155q38 9 65 -7q21 -14 26 -37l1 -7v-7
q3 -32 -9 -51q-5 -13 -15 -32q-51 -94 -135 -154q-18 -12 -36 -22q-4 -2 -10 -7q-12 -8 -20 -12q-13 -6 -29 -13q-9 -6 -19 -10q-3 -9 -5 -17q-16 -41 -13 -59t35 -36q23 -3 46.5 4t42 20t39 34.5t34.5 41t32 46.5q4 6 14 22l31 -14l30 -18q-11 -18 -17 -28
q-18 -28 -30 -44.5t-37.5 -45t-48 -45t-55 -30t-65.5 -13.5q-16 0 -33 3l-10 3q-34 18 -53.5 38.5t-22.5 44.5t0 42.5t11 44.5q-10 2 -19 7q-30 12 -49.5 38t-24.5 58q-4 12 -5 30q1 65 33 130q10 20 22 39q28 39 52.5 67.5t51 52t57.5 42.5h-222zM331 172q-7 -13 -19 -41
q4 3 8 4q13 8 27 18q71 50 114 130q8 15 15 31q2 4 2 11h-3q-68 -26 -128 -126q-8 -13 -16 -27zM780 -20l-83 -15l15 -83l-68 -12l-27 150l150 28z" />
    <glyph glyph-name="onasalgrave" unicode="&#x1ea;O" horiz-adv-x="1246" 
d="M595 747q95 -11 179 -60.5t142 -127.5t79 -171q34 -149 -28.5 -291t-194.5 -218l-34 60q113 64 166 185.5t25 247.5q-25 108 -105 190l-166 -259l242 -153h-340l-192 -300l-28 13q-69 33 -124 86q-107 104 -133.5 253.5t37.5 283.5q64 132 196.5 205t278.5 56zM523 218
l40 64l-37 24l-130 -88h127zM588 348l12 -9l19 30zM664 218l-43 27l-17 -27h60zM524 387l283 191q-96 87 -220 101q-22 3 -44 3q-114 0 -213 -61.5t-148 -164.5q-55 -114 -32.5 -242t113.5 -216q37 -35 80 -59l136 211h-306l289 196l-205 129l37 58zM1183 -16l-79 -14
l14 -79l-67 -12l-26 146l146 26z" />
    <glyph glyph-name="unasalgrave" unicode="&#x172;U" horiz-adv-x="1105" 
d="M601 -39q3 -2 7 -5t19.5 -7.5t33.5 -4.5t49 7.5t66 24.5l29 -63q-54 -25 -100.5 -34t-76.5 -2t-46.5 15t-27.5 18q-49 28 -62 84q-25 109 90 308q-98 -49 -182 -93q-14 -187 -48 -259q-22 -45 -66.5 -72.5t-94.5 -27.5q-22 0 -43 6q-42 12 -69 50.5t-21 100.5
q-1 11 1.5 25t12.5 35t35.5 46t64.5 49q47 30 162 91q2 42 3 83l-230 -102l-28 63l328 146v-53q0 -43 -2 -100q104 53 259 131l127 62l-83 -114q-23 -30 -48 -71.5t-52.5 -95t-41.5 -106t-6 -86.5q6 -28 31 -41zM289 -21q25 53 39 192q-83 -44 -120 -67q-23 -15 -40 -30
t-24.5 -25t-12 -19t-4.5 -12.5v-4.5l1 -6l-1 -4q-8 -67 41 -81q31 -9 68 7t53 50zM96 681v69h749v-69h-749zM96 492v69h749v-69h-749zM1045 -21l-82 -15l15 -82l-68 -12l-27 150l150 27z" />
    <glyph glyph-name="anasal" unicode="&#x1ea0;A" horiz-adv-x="1216" 
d="M768 425q7 -2 14 -6t17.5 -11.5t18 -19.5t13 -27.5t5.5 -39.5t-7 -51q-6 -24 -20.5 -42t-31.5 -28t-43 -17t-45.5 -9.5t-48.5 -4.5v-34v-35q-1 -118 -58.5 -184t-160.5 -66q-132 0 -194.5 61t-63.5 192q-1 38 -1 55q-17 -1 -34.5 -1h-28h-18.5h-9l-1 68q13 0 90 1v211h68
q0 -124 1 -210q264 3 343 6q1 47 4.5 68.5t14.5 42.5q20 47 74.5 72t101.5 9zM572 135v29q-83 -3 -342 -6q0 -2 0.5 -22.5t0.5 -31.5q1 -103 43.5 -144.5t146.5 -41.5q36 1 63 12t43.5 28.5t26.5 42t13.5 48.5t4.5 51v35zM762 286q16 64 -15 74q-7 2 -15 2q-14 0 -30 -5.5
t-29 -16.5t-19 -25q-11 -22 -13 -78q38 4 60.5 8t39.5 14.5t21 26.5zM75 682v68h735v-68h-735zM75 496v69h735v-69h-735zM1145 661l-132 -304l132 -304l-63 -28l-144 332l144 331z" />
    <glyph glyph-name="enasal" unicode="&#x1eb8;E" horiz-adv-x="922" 
d="M353 147v-229h206v-68h-274v260q-83 -40 -177 -70l-21 66q104 33 198 82v168q0 32 31 53.5t70 21.5q44 0 73 -29q32 -32 32 -90q0 -83 -138 -165zM353 352v-123q69 47 69 83q0 41 -23 48q-14 4 -27 0.5t-19 -8.5zM98 682v68h461v-68h-461zM98 496v69h461v-69h-461z
M829 661l-133 -304l133 -304l-63 -28l-144 332l144 332z" />
    <glyph glyph-name="inasal" unicode="&#x1ecb;i" horiz-adv-x="886" 
d="M73 682v68h475v-68h-475zM73 491v68h475v-68h-166l12 -24q-46 -23 -79 -46.5t-62 -54t-63 -77.5q-8 -14 -16 -30q-26 -52 -26 -99q0 -9 2 -17q6 -35 35 -48q7 -3 15 -3l4 10q8 20 15 37l5 11q16 38 26 55q10 19 17 30q72 119 166 156q38 9 65 -8q21 -13 26 -36v-8
q0 -1 1 -6q2 -32 -9 -51q-5 -12 -16 -32q-51 -94 -135 -154q-17 -12 -36 -22q-3 -2 -10 -6q-12 -9 -20 -12q-13 -7 -28 -14q-10 -6 -19 -10q-3 -9 -6 -17q-16 -41 -13 -59.5t35 -35.5q30 -4 57.5 6.5t53 34.5t43.5 47t41 57q7 11 15 26l60 -35q-11 -18 -17 -28
q-15 -23 -25 -36.5t-29 -37.5t-37 -39.5t-41 -32t-50 -24.5t-55 -8q-16 0 -32 3l-10 3q-28 14 -45.5 31.5t-25 33t-7.5 35.5t3.5 34.5t9.5 35.5q-10 2 -20 7q-29 13 -49 38.5t-25 57.5q-3 11 -4 30q1 65 33 130q10 20 21 38q17 24 32.5 43t31 36.5t31.5 32t33 27.5t35 25
h-223zM310 172q-8 -14 -20 -42q5 3 8 5q14 8 28 17q71 51 114 131q8 15 15 31q2 4 2 12q-2 0 -4 -1q-67 -26 -127 -126q-6 -9 -16 -27zM801 684l-136 -313l136 -314l-62 -27l-148 341l148 341z" />
    <glyph glyph-name="onasal" unicode="&#x1ecc;O" horiz-adv-x="1336" 
d="M590 747q145 -17 257 -117t144 -243q20 -101 1 -197t-78 -178.5t-146 -132.5l-34 59q113 65 166.5 186t24.5 248q-25 109 -105 190l-167 -259l242 -153h-339l-193 -300l-27 13q-69 32 -125 86q-106 103 -133 253t38 284q63 132 195.5 205t278.5 56zM518 218l41 64l-38 24
l-130 -88h127zM582 348l14 -9l20 31zM661 218l-44 28l-18 -28h62zM520 387l283 191q-96 87 -221 102q-22 2 -44 2q-114 0 -213 -61.5t-148 -164.5q-55 -114 -32.5 -242t113.5 -216q37 -35 81 -60l136 212h-306l290 196l-206 130l36 57zM1265 662l-130 -301l130 -301l-62 -27
l-142 328l142 328z" />
    <glyph glyph-name="unasal" unicode="&#x1ee5;u" horiz-adv-x="1159" 
d="M211 -150q-22 0 -43 6q-42 12 -69 50.5t-21 99.5q-1 9 0 19t7.5 26.5t18 32.5t34 37t54.5 41q47 30 162 90q3 43 4 85l-232 -103l-28 63l329 145v-52q0 -43 -3 -101q125 64 261 131l125 62l-83 -112q-22 -31 -47 -72.5t-53 -95t-42 -106t-6 -86.5q7 -29 32 -42l10 -8
q2 -2 6.5 -4.5t19.5 -7t33.5 -4.5t49.5 7t66 24l30 -62q-54 -25 -100 -33.5t-76.5 -1.5t-47 14.5t-27.5 17.5q-49 28 -62 84q-26 110 90 309q-101 -51 -183 -94q-14 -187 -49 -259q-21 -45 -65.5 -72.5t-94.5 -27.5zM348 172q-83 -45 -120 -68q-24 -15 -41 -30t-24.5 -25
t-11.5 -19t-4.5 -12.5t-0.5 -4.5l1 -6l-1 -4q-8 -67 41 -81q31 -10 68.5 6t54.5 51q25 53 38 193zM116 682v68h749v-68h-749zM116 492v69h749v-69h-749zM1029 -3l-148 338l148 339l62 -28l-135 -311l135 -311z" />
    <glyph glyph-name=".notdef" horiz-adv-x="364" 
d="M33 0v666h265v-666h-265zM66 33h199v600h-199v-600z" />
    <glyph glyph-name=".null" horiz-adv-x="0" 
 />
    <glyph glyph-name="nonmarkingreturn" horiz-adv-x="333" 
 />
    <glyph glyph-name="glyph4" horiz-adv-x="469" 
d="M344 375h-76v-150h76v-68h-220v68h76v150h-76v68h220v-68z" />
    <glyph glyph-name="semicolon" unicode=";" horiz-adv-x="469" 
d="M344 375h-76v-150h76v-68h-220v68h76v150h-76v68h220v-68z" />
    <glyph glyph-name="bar" unicode="|" horiz-adv-x="481" 
d="M170 -316v1209h68v-1209h-68z" />
    <glyph glyph-name="bracketleft" unicode="[" horiz-adv-x="827" 
d="M650 688h-132v-793h132v-68h-132h-68v930h20h48h132v-69z" />
    <glyph glyph-name="bracketright" unicode="]" horiz-adv-x="867" 
d="M146 -105h132v793h-132v69h132h68v-930h-21h-47h-132v68z" />
    <glyph glyph-name="quotedbl" unicode="&#x22;" horiz-adv-x="481" 
d="M435 410l-110 -110l110 -110l-53 -53l-110 110l-110 -110l-53 53l110 110l-110 110l53 53l110 -110l110 110z" />
    <glyph glyph-name="glyph10" horiz-adv-x="1141" 
d="M500 410l-110 -110l110 -110l-53 -53l-110 110l-110 -110l-53 53l110 110l-110 110l53 53l110 -110l110 110z" />
    <glyph glyph-name="quotedblright" unicode="&#x201d;" horiz-adv-x="1141" 
d="M500 410l-110 -110l110 -110l-53 -53l-110 110l-110 -110l-53 53l110 110l-110 110l53 53l110 -110l110 110z" />
    <glyph glyph-name="quoteleft" unicode="&#x2018;" horiz-adv-x="883" 
d="M645 500h-63v202h167v-63h-104v-139z" />
    <glyph glyph-name="glyph13" horiz-adv-x="481" 
d="M435 410l-110 -110l110 -110l-53 -53l-110 110l-110 -110l-53 53l110 110l-110 110l53 53l110 -110l110 110z" />
    <glyph glyph-name="nobreakspace" unicode="&#xa0;" horiz-adv-x="481" 
 />
    <glyph glyph-name="braceleft" unicode="{" horiz-adv-x="827" 
d="M504 368v-96h-115v96h115zM696 688h-132v-793h132v-68h-132h-68v930h20h48h132v-69z" />
    <glyph glyph-name="braceright" unicode="}" horiz-adv-x="941" 
d="M466 368v-96h-118v96h118zM148 -105h132v793h-132v69h132h68v-930h-21h-47h-132v68z" />
    <glyph glyph-name="hyphen" unicode="-" horiz-adv-x="786" 
d="M646 412h70v-224h-70v77h-514v-77h-70v224h70v-77h514v77z" />
    <glyph glyph-name="emdash" unicode="&#x2014;" horiz-adv-x="1024" 
d="M882 412h70v-224h-70v77h-750v-77h-70v224h70v-77h750v77z" />
    <glyph glyph-name="underscore" unicode="_" horiz-adv-x="568" 
d="M130 -115l-49 -48l-49 48l49 49zM264 -115l-49 -48l-49 48l49 49zM398 -115l-49 -48l-49 48l49 49zM483 -163l-49 48l49 49l48 -49z" />
    <glyph glyph-name="colon" unicode=":" horiz-adv-x="763" 
d="M167 123q0 18 9 32.5t23.5 23.5t32.5 9q27 0 46 -19t19 -46q0 -18 -9 -32.5t-23.5 -23.5t-32.5 -9q-27 0 -46 19t-19 46zM167 477q0 27 19 46t46 19t46 -19t19 -46t-19 -46t-46 -19t-46 19t-19 46z" />
    <glyph glyph-name="equal" unicode="=" horiz-adv-x="634" 
d="M57 256h517v-86h-517v86zM57 438h517v-86h-517v86z" />
    <glyph glyph-name="slash" unicode="/" horiz-adv-x="1009" 
d="M262 -223l452 1073l64 -27l-452 -1073z" />
    <glyph glyph-name="backslash" unicode="\" horiz-adv-x="904" 
d="M258 850l452 -1073l-64 -27l-452 1073z" />
    <glyph glyph-name="less" unicode="&#x3c;" horiz-adv-x="927" 
d="M779 689l45 -55l-412 -334l412 -334l-45 -55l-479 389z" />
    <glyph glyph-name="greater" unicode="&#x3e;" horiz-adv-x="919" 
d="M151 -89l-45 55l412 334l-412 334l45 55l479 -389z" />
    <glyph glyph-name="parenleft" unicode="(" horiz-adv-x="900" 
d="M720 -133q-99 72 -155 185q-59 116 -59 248t59 248q56 113 155 185l42 -56q-86 -63 -135 -160q-51 -101 -51 -217t51 -217q49 -97 135 -160z" />
    <glyph glyph-name="parenright" unicode=")" horiz-adv-x="899" 
d="M199 733q99 -72 155 -185q59 -116 59 -248t-59 -248q-56 -113 -155 -185l-42 56q86 63 135 160q51 101 51 217t-51 217q-49 97 -135 160z" />
    <glyph glyph-name="guillemotleft" unicode="&#xab;" horiz-adv-x="605" 
d="M350 442l-110 -110l110 -110l-50 -49l-159 159l159 159zM512 442l-109 -110l109 -110l-49 -49l-159 159l159 159z" />
    <glyph glyph-name="guillemotright" unicode="&#xbb;" horiz-adv-x="611" 
d="M253 222l110 110l-110 110l49 49l160 -159l-160 -159zM90 222l110 110l-110 110l49 49l160 -159l-160 -159z" />
    <glyph glyph-name="bullet" unicode="&#x2022;" 
d="M350 300q0 62 44 106t106 44t106 -44t44 -106t-44 -106t-106 -44t-106 44t-44 106z" />
    <glyph glyph-name="numbersign" unicode="#" horiz-adv-x="901" 
d="M743 407h-137v-214h137v-77h-137v-205h-78v205h-156v-205h-78v205h-137v77h137v214h-137v77h137v205h78v-205h156v205h78v-205h137v-77zM528 193v214h-156v-214h156z" />
    <glyph glyph-name="percent" unicode="%" horiz-adv-x="872" 
d="M564 127q38 0 64.5 -27t26.5 -65t-26.5 -64.5t-64.5 -26.5q-25 0 -46 12t-33.5 33t-12.5 46q0 38 27 65t65 27zM235 -136l-76 42l445 821l76 -43zM293 473q-38 0 -64.5 27t-26.5 65q0 25 12 46t33 33t46 12q38 0 65 -26.5t27 -64.5q0 -25 -12.5 -46t-33.5 -33.5
t-46 -12.5z" />
    <glyph glyph-name="exclamdown" unicode="&#xa1;" horiz-adv-x="861" 
d="M525 696q0 22 16 38t38 16t38 -16t16 -38t-16 -38t-38 -16t-38 16t-16 38zM544 -150v658h70v-658h-70z" />
    <glyph glyph-name="glyph35" horiz-adv-x="843" 
d="M715 339v-78h-254v-254h-78v254h-254v78h254v254h78v-254h254z" />
    <glyph glyph-name="glyph36" horiz-adv-x="883" 
d="M437 -150q-144 0 -246 132t-102 318q0 122 46.5 225.5t127 164t174.5 60.5t174.5 -60.5t127 -164t46.5 -225.5q0 -186 -102 -318t-246 -132zM437 653q-104 0 -177 -103.5t-73 -249.5t73 -249.5t177 -103.5t177 103.5t73 249.5t-73 249.5t-177 103.5z" />
    <glyph glyph-name="quotesingle" unicode="'" horiz-adv-x="507" 
d="M435 410l-110 -110l110 -110l-53 -53l-110 110l-110 -110l-53 53l110 110l-110 110l53 53l110 -110l110 110z" />
    <glyph glyph-name="glyph38" unicode="3" horiz-adv-x="755" 
d="M487 377q75 -34 117 -103.5t42 -145.5q0 -115 -90 -196.5t-216 -81.5q-124 0 -214 79l58 64q63 -57 156 -57q91 0 155 56t64 136q0 73 -48.5 130t-133.5 57h-68v70l6 1q25 4 53.5 15.5t60 31t52 51t20.5 68.5q0 39 -28 66q-46 46 -133 46q-85 0 -135 -58l-66 58
q35 41 88 63.5t113 22.5q59 0 110 -18.5t85 -52.5q52 -54 52 -127q0 -109 -100 -175z" />
    <glyph glyph-name="three" horiz-adv-x="755" 
d="M487 377q75 -34 117 -103.5t42 -145.5q0 -115 -90 -196.5t-216 -81.5q-124 0 -214 79l58 64q63 -57 156 -57q91 0 155 56t64 136q0 73 -48.5 130t-133.5 57h-68v70l6 1q25 4 53.5 15.5t60 31t52 51t20.5 68.5q0 39 -28 66q-46 46 -133 46q-85 0 -135 -58l-66 58
q35 41 88 63.5t113 22.5q59 0 110 -18.5t85 -52.5q52 -54 52 -127q0 -109 -100 -175z" />
    <glyph glyph-name="one" unicode="1" horiz-adv-x="589" 
d="M368 -150h-88v758l-99 -49l-39 79l226 112v-900z" />
    <glyph glyph-name="four" unicode="4" horiz-adv-x="821" 
d="M555 -150h-82v270h-374l456 630v-548h154v-82h-154v-270zM268 202h205v307z" />
    <glyph glyph-name="five" unicode="5" horiz-adv-x="829" 
d="M407 463q134 0 211.5 -86.5t77.5 -204.5q0 -133 -97.5 -227.5t-235.5 -94.5q-136 0 -233 92l-3 3l64 67l2 -3q72 -67 170 -67q100 0 170.5 67.5t70.5 162.5q0 84 -53 140.5t-148 56.5h-60h-175v381h401v-92h-309v-193h85z" />
    <glyph glyph-name="six" unicode="6" horiz-adv-x="771" 
d="M119 142q0 28 -1.5 63t-2.5 59l-1 23q0 216 77 339.5t206 123.5h4q89 0 155 -54.5t88 -145.5l-86 -21q-16 63 -57.5 99t-100.5 36h-2q-48 0 -84.5 -28.5t-57 -76.5t-31.5 -93.5t-17 -98.5q2 2 5 5.5t5 4.5q74 68 169 68h4q111 0 192 -86.5t81 -206.5q0 -126 -75 -210
q-81 -92 -193 -92q-114 0 -195.5 86t-81.5 206zM233 254q-25 -47 -25 -108q1 -2 1 -6q0 -15 3 -28q0 -3 0.5 -6.5t0.5 -5.5q14 -71 64.5 -117.5t114.5 -46.5q74 0 130 64q53 62 53 150q0 87 -54.5 148t-129.5 61h-2q-62 0 -112 -45q-27 -27 -44 -60z" />
    <glyph glyph-name="eight" unicode="8" horiz-adv-x="773" 
d="M542 367q67 -37 106.5 -100.5t39.5 -138.5q0 -115 -87 -196.5t-210 -81.5t-210 81.5t-87 196.5q0 75 39.5 138.5t106.5 100.5q-90 64 -90 167q0 89 70.5 152.5t170.5 63.5t170.5 -63.5t70.5 -152.5q0 -103 -90 -167zM391 664q-65 0 -111 -38t-46 -92q0 -53 46 -91
t111 -38t111 38t46 91q0 54 -46 92t-111 38zM391 -64q88 0 150.5 56t62.5 136q0 79 -62.5 135t-150.5 56t-150.5 -56t-62.5 -135q0 -80 62.5 -136t150.5 -56z" />
    <glyph glyph-name="seven" unicode="7" horiz-adv-x="705" 
d="M399 -150h-97l200 811h-399v89h512z" />
    <glyph glyph-name="A" unicode="A" horiz-adv-x="1186" 
d="M1018 742q10 -4 20.5 -10.5t23.5 -19t21.5 -35t8.5 -50.5q0 -30 -8 -59q-30 -115 -236 -141q0 -39 -1 -117t-1 -112v-61q0 -135 -70.5 -211t-195.5 -76q-34 0 -63 2.5t-62.5 10t-60 20.5t-51.5 35.5t-42 52t-27 73t-10 97.5q0 38 -1.5 134t-1.5 146h-88v-81h-67v224h67
v-75q9 0 38.5 -0.5t49.5 -0.5v191h-86v71h239v-71h-85v-191q92 0 260.5 0.5t193.5 0.5q0 125 20 163q13 28 40 50.5t60.5 35t66.5 12.5q25 0 48 -8zM779 198v223h-450q0 -49 1 -145t1 -134q0 -124 56.5 -174.5t192.5 -50.5q97 0 148 56.5t51 163.5v61zM1019 585q6 26 6 42
q0 41 -29 52q-16 4 -26 4q-31 0 -63 -18t-43 -43q-14 -28 -14 -127q151 23 169 90z" />
    <glyph glyph-name="B" unicode="B" horiz-adv-x="731" 
d="M653 235v-89.5v-109.5q0 -11 -2.5 -26t-15.5 -46.5t-37 -54.5q-58 -59 -164 -59q-5 0 -14 0.5t-32 6t-45 14.5t-49.5 28t-48.5 46l-45 54l-49 -36l-42 55l158 120l42 -56l-54 -41l44 -52q34 -42 87 -60q28 -9 49 -9q76 0 114 38q15 15 23 35.5t9.5 29.5t1.5 13v1v174
l-186 75l126 92l-126 84l170 73q-3 32 -7 50q-12 58 -83 81q-42 14 -94 14q-107 0 -157 -56q-13 -14 -22 -33.5t-12.5 -35t-5 -31.5t-1.5 -22.5t1 -8.5v-2v-185h64v-70h-198v70h64v181q-2 4 -0.5 25.5t4.5 45.5t17.5 56t36.5 57q70 79 209 79q64 0 116 -17q110 -36 130 -135
q6 -31 10 -83l3 -25l-98 -41l102 -67l-106 -78l113 -46v-23z" />
    <glyph glyph-name="C" unicode="C" horiz-adv-x="1021" 
d="M907 750v-74h-341v-822h-73v336h-267q-34 0 -47 -15q-12 -13 -12 -38v-3v-284h-73v280v10q0 51 30 84q36 40 102 40h267v412h-341v74h755z" />
    <glyph glyph-name="D" unicode="D" horiz-adv-x="1061" 
d="M966 49l-65 -26l-29 71l-592 -244l330 762l-406 -183l30 -65l-64 -29l-88 195l64 28l29 -65l571 257l-333 -770l433 179l-25 62l65 26z" />
    <glyph glyph-name="E" unicode="E" horiz-adv-x="772" 
d="M601 -86h70v-64h-201v64h68v661q-76 -61 -167 -61h-1q-47 0 -90 20q-39 -16 -95 -16q-25 0 -53 3v-43h-63v159h63v-51q25 -4 52 -4q22 0 32 2q-8 14 -9 22v17q0 41 21.5 65.5t52.5 31.5q4 1 14 1q23 0 39 -10q35 -23 35 -67q0 -19 -7 -36q-5 -13 -17 -28q14 -2 20 -2h5h1
q102 0 173 95l57 77v-836zM303 632q7 18 -2 25h-5h-1q-25 -5 -25 -33q0 -2 0.5 -5t0.5 -5q4 -4 9 -8q17 12 23 26z" />
    <glyph glyph-name="F" unicode="F" horiz-adv-x="826" 
d="M634 -80h69v-70h-208v70h69v713h-372v-48h-70v165h70v-47h442v-783z" />
    <glyph glyph-name="G" unicode="G" 
d="M886 315q48 -129 -15 -247q-39 -71 -105 -123q-62 -50 -140 -74q-65 -21 -130 -21q-13 0 -26 1q-83 5 -152 43l-2 1q-115 63 -178 201q-64 139 -36 271t113 222q82 88 210 129q94 30 184 20q76 -9 156 -47l33 59l61 -34l-105 -187l-61 35l37 66q-141 66 -284 21
q-112 -36 -182 -112t-94 -187q-11 -53 -3 -112q9 -59 34.5 -115t63.5 -99q39 -45 86 -70l2 -1q54 -30 120 -34.5t132 16.5t119.5 64t84.5 101q49 89 12 189q-12 31 -31 59t-44.5 51t-55.5 40q-32 17 -77.5 18.5t-92.5 -13.5q-48 -16 -85.5 -43.5t-55.5 -61.5
q-30 -56 -13 -117q17 -62 69 -90q41 -22 84 -11q38 10 67 42l-46 48l50 49l141 -147l-51 -49l-46 48q-42 -44 -97 -58q-70 -19 -135 16q-39 21 -66 57q-26 34 -37.5 76t-7.5 85q5 45 26 84q26 48 77 85q46 35 105 53q58 19 115 17q62 -1 109 -27q57 -31 99 -80
q42 -48 64 -107z" />
    <glyph glyph-name="H" unicode="H" horiz-adv-x="952" 
d="M792 194h69v-156h-69v35q-44 5 -128 31q-24 -140 -85.5 -197t-163.5 -57h-18q-64 0 -134.5 31.5t-114.5 88.5q-45 59 -45 129q0 42 15 83q28 78 92 105q32 14 67 14q48 0 93 -21q83 -36 233 -85q0 97 -93 198q-42 44 -87.5 69t-69.5 25q-65 0 -84 31q-9 15 -9 33
q0 20 11 40l52 77l-38 25l37 57l129 -84l-37 -57l-34 22l-49 -75h18q43 0 102 -31.5t108 -84.5q113 -121 113 -267q83 -25 120 -32v53zM409 -81q38 0 65 7.5t53 28.5t43.5 63t27.5 106q-56 19 -119.5 42t-98.5 36.5t-37 14.5q-30 15 -66 15q-23 0 -40 -8q-36 -15 -54 -65
q-11 -33 -11 -59q0 -49 31 -89q34 -44 94 -68t112 -24z" />
    <glyph glyph-name="I" unicode="I" horiz-adv-x="748" 
d="M636 100l-33 -62l-33 18q0 -1 -1 -2q-19 -31 -32.5 -50.5t-40 -52t-51 -52t-59.5 -34.5t-71 -15q-18 0 -36 3l-10 4q-82 44 -82 155q0 51 17 117q-13 3 -23 7q-32 14 -54.5 43.5t-27.5 66.5q-4 18 -4 34q0 71 35 147q11 25 22 43q55 82 104.5 130t119.5 87l-15 38l66 25
l49 -128l-66 -26l-9 25q-58 -33 -99.5 -75t-89.5 -113q-12 -19 -18 -36q-29 -61 -29 -116q0 -10 3 -22q6 -43 41 -58q5 -2 15 -4l28 72q12 31 26 61q3 5 9.5 17t9.5 17q77 137 178 178l5 2q7 2 23 2q25 0 41 -11q21 -14 28 -40v-7q0 -1 0.5 -3.5t0.5 -4.5v-13q0 -25 -9 -42
q-8 -20 -17 -38q-55 -108 -145 -176q-13 -9 -39 -25q-7 -5 -11 -8q-14 -10 -21 -13q-13 -8 -31 -16q-14 -8 -22 -12q-22 -79 -22 -124q0 -66 42 -92q5 -1 15 -1q55 0 100.5 45.5t94.5 123.5l-32 17l34 62zM317 243l-2 -5q2 1 7 4.5t7 4.5q9 5 31 21q77 59 124 151
q2 4 9 16.5t10 19.5v21h-4q-76 -32 -141 -147q-10 -17 -17 -32q-10 -17 -24 -54z" />
    <glyph glyph-name="J" unicode="J" horiz-adv-x="961" 
d="M854 132l-50 -50l-31 32l-263 -264v705q0 7 -1.5 17.5t-9 31t-19.5 36t-37.5 28t-58.5 12.5q-41 0 -69.5 -17t-39.5 -42.5t-15 -41.5t-4 -26v-626h43v-70h-153v70h41v628q0 22 5.5 46.5t20 51.5t36 48t57 35t78.5 14t78.5 -14t57 -35t36 -48t20.5 -51t6 -46v-536l141 143
l-27 28l50 50z" />
    <glyph glyph-name="K" unicode="K" horiz-adv-x="1021" 
d="M792 403q-38 1 -156 43q-66 -88 -173 -236q79 -30 152 -69q112 -60 205 -140l34 42l54 -45l-117 -142l-54 44l39 47q-88 75 -194 132q-77 41 -162 72q-76 -105 -154 -214l45 -27l-36 -60l-157 94l36 60l52 -31q72 101 144 201q-85 25 -163 35l-9 -56l-69 12l30 177
l69 -12l-9 -52q94 -13 194 -44q106 146 174 238q-32 12 -84 31q-3 2 -9.5 4.5t-8.5 2.5q-1 -1 -2 -3q-62 -80 -140 -112q-54 -23 -119 -15q-66 8 -107 44q-25 22 -35 52q-10 32 0 67q12 44 47 71q28 22 70 29q60 11 137 -6q30 -6 123 -42q15 25 36 66l-53 26l31 63l164 -81
l-31 -63l-48 24q-19 -36 -33 -60l4 -1q66 -26 102 -39q41 55 57 74q23 27 53 45q36 22 74 25q60 4 109 -42q30 -27 37 -67q7 -38 -8 -75q-17 -40 -53.5 -63.5t-82.5 -23.5h-5zM721 559q-12 -15 -42 -54q91 -32 115 -32q26 -1 45.5 10.5t28.5 33.5q7 17 4 34.5t-15 29.5
q-28 25 -58 23q-42 -3 -78 -45zM296 459q55 23 101 78q-73 27 -96 32q-39 9 -73 9q-20 0 -36 -3q-52 -10 -63 -50q-8 -29 14 -49q25 -21 70 -27q46 -5 83 10z" />
    <glyph glyph-name="L" unicode="L" horiz-adv-x="925" 
d="M735 -9h69v-141h-69v29h-248v565q0 47 27 74q25 25 82 25h11h11q24 0 38 13q20 18 20 56q0 19 -5 33t-11.5 20.5t-15 10.5t-13 4.5t-7.5 0.5h-224v-802h-177v-29h-69v141h69v-43h107v802h294q15 0 33.5 -6t39 -20t34.5 -43t14 -68q0 -69 -42 -108q-35 -32 -84 -32h-14
h-17q-21 0 -26 -5q-6 -6 -6 -24v-496h179v43z" />
    <glyph glyph-name="M" unicode="M" horiz-adv-x="1003" 
d="M892 626l-59 17q-29 -112 -83 -208q8 -33 13 -68q9 -78 -7 -146q-15 -67 -53 -121t-95 -93q-56 -38 -129 -62q-41 -14 -99 -22l8 -65l-70 -8l-22 199l69 8l8 -64q50 7 85 18q126 42 187 129q62 87 49 211q-99 -127 -232 -170q-71 -23 -146 -9.5t-132 59.5q-50 41 -75 99
q-26 61 -19 131q6 58 35 107q27 46 71 81q53 42 121.5 61t137.5 10q130 -17 215 -124q27 -33 46 -72q31 67 50 139l-66 20l20 67l192 -57zM660 423q7 10 14 21q-21 62 -58 108q-68 86 -170 99q-17 2 -34 2q-98 0 -172 -59q-71 -56 -80 -140q-11 -104 68 -168q44 -36 101 -46
t112 7q65 22 122 69q53 43 97 107z" />
    <glyph glyph-name="N" unicode="N" horiz-adv-x="1012" 
d="M893 398q2 -107 -6 -179q-15 -134 -65 -221q-44 -77 -130 -115q-72 -33 -164 -33q-94 0 -174.5 52.5t-118.5 138.5q-17 40 -26 92t-10.5 86t-1.5 93v32q-1 138 1 336h-91v70h254v-70h-93q-2 -199 -1 -335v-33q0 -56 1.5 -87t8.5 -76.5t22 -79.5q30 -67 94 -108
q63 -41 135 -41q52 0 94.5 11.5t69.5 30t43 35.5t27 36q42 74 55 194q8 68 6 170v13q-2 84 -8 139q-9 83 -51 107q-31 18 -72 14q-38 -3 -82 -23q-72 -32 -125 -83q-60 -58 -72 -93q-6 -19 0 -25q10 -9 48 7q32 14 100 59q61 41 84 48q54 17 86 -13q26 -24 16 -65
q-5 -18 -16.5 -35.5t-30.5 -35t-32 -27.5t-36 -27q-18 -13 -25 -19q-4 -3 -17 -12q-29 -20 -42 -32q-11 -10 -17 -17q4 -2 9 -3q11 -3 35 -7q23 -4 32 -6q54 -17 58 -58q3 -27 -21 -55q-15 -17 -42 -36q-29 -22 -86 -53q-11 -6 -15 -8q-13 -8 -39 -23l-35 61q26 15 39 22
q4 3 16 9q47 26 71 43q25 17 37 30q-2 0 -4 1q-4 1 -23 4q-34 6 -51 11q-40 14 -51 43q-10 24 4 51q8 17 26 34q19 18 59 46q11 8 14 10q8 7 27 20q41 30 58 46q23 21 29 37q-6 -1 -12 -3q-13 -4 -67 -39q-73 -49 -110 -65q-34 -14 -60 -16q-38 -2 -63 21q-18 17 -23.5 43
t4.5 55q17 52 89 122q62 60 145 97q56 25 105 29q63 5 112 -23q74 -42 87 -161q6 -58 8 -145v-13z" />
    <glyph glyph-name="O" unicode="O" horiz-adv-x="1123" 
d="M988 395q11 -52 11 -98q0 -111 -51.5 -211.5t-143.5 -164.5l21 -24l-55 -48l-102 116l55 48l33 -37q97 66 141 175q28 68 28 144q0 42 -9 84q-26 116 -117.5 198t-210.5 96q-21 3 -42 3q-108 0 -204 -59q-97 -61 -143 -158q-37 -77 -37 -163q0 -78 30 -150t86 -126
q36 -35 73 -55l303 500l63 -38l-3 -4l-336 -554l-30 14q-66 31 -121 84q-67 64 -102.5 150.5t-35.5 179.5q0 101 44 194q56 117 170 188t243 71h9h42q140 -17 249.5 -116.5t141.5 -238.5z" />
    <glyph glyph-name="P" unicode="P" horiz-adv-x="793" 
d="M600 -80h71v-70h-216v70h75v434q-147 -78 -241 -78h-22q-51 5 -89.5 29.5t-54.5 61.5q-14 32 -7.5 67.5t33.5 67.5q18 23 45 43.5t50.5 34t61 28.5t59.5 22.5t63 20.5q28 10 43 15l-23 59l66 25l73 -194l-65 -25l-26 69q-15 -5 -47 -15q-46 -15 -71.5 -24t-64 -25.5
t-65.5 -35.5t-45 -42q-28 -35 -16 -64q8 -19 31.5 -32t54.5 -16q7 -1 16 -1q37 0 84.5 16t77 30.5t79.5 41.5q12 7 18 11l52 28v-552z" />
    <glyph glyph-name="R" unicode="R" horiz-adv-x="982" 
d="M763 57h77v-181h-77v41q-25 0 -51 16q-4 2 -7.5 4.5t-7.5 5.5t-6 4q-43 27 -89 43q-18 7 -48 7q-53 0 -122.5 -22t-116.5 -44l-173 -81l127 142q3 3 55 61.5t115 132.5t83 101l7 10q73 96 73 180q0 78 -58 154q-32 42 -75 42q-51 0 -114 -45.5t-113 -100.5l33 -32
l-55 -55l-128 126l54 55l40 -39q156 168 282 168h2q80 0 135 -72q75 -98 75 -200q0 -112 -89 -228l-6 -8q-27 -38 -157 -187q69 19 125 19q43 0 73 -11q59 -20 107 -51q3 -2 9.5 -6t10.5 -6q2 -1 5.5 -2t4.5 -1v60z" />
    <glyph glyph-name="S" unicode="S" horiz-adv-x="793" 
d="M624 629l-351 -670h305v41h70v-150h-70v41h-420l407 776l-38 24l37 59l131 -83l-38 -59zM329 305l-38 -58l-148 99l39 58zM452 530l-38 -58l-147 98l38 58z" />
    <glyph glyph-name="T" unicode="T" horiz-adv-x="967" 
d="M790 441h70v-220h-70v79h-258l-197 -450l-240 520h392l123 282l-79 34l27 64l217 -92l-27 -65l-73 31l-112 -254h227v71zM333 21l123 279h-252z" />
    <glyph glyph-name="U" unicode="U" horiz-adv-x="1018" 
d="M886 -113l-63 -27l-16 37q-55 -22 -101 -22q-62 0 -99 34q-62 39 -62 150q0 92 42 236q14 49 39 123q-96 -100 -157 -161q0 -94 -12.5 -181.5t-30.5 -126.5q-19 -45 -60.5 -72t-88.5 -27q-16 0 -36 5q-40 11 -64.5 48t-24.5 101q0 81 104 152q42 27 145 130q0 45 3.5 124
t3.5 108l-190 -90l16 -41l-64 -25l-56 145l64 25l16 -40l283 135v-54l-2 -76q-2 -76 -2 -138q32 32 66.5 68t61.5 65t49 52.5t35 37.5l13 14l141 154l-84 -191q-57 -129 -99.5 -272.5t-42.5 -231.5q0 -71 31 -88l6 -4l4 -5l2 -2q2 -1 6 -3.5t9.5 -4.5t14.5 -3.5t19 -1.5
q30 0 75 17l-17 40l63 26zM364 -24q31 75 31 209q-64 -61 -100 -86q-33 -22 -51.5 -44t-21 -30.5t-2.5 -14.5l2 -6l-1 -4q-1 -6 -1 -18q0 -51 39 -61q10 -2 17 -2q26 0 51 15.5t37 41.5z" />
    <glyph glyph-name="V" unicode="V" horiz-adv-x="748" 
d="M513 438q113 -118 113 -259q0 -20 -3 -41q-21 -160 -83 -224t-170 -64h-15q-58 0 -120 32.5t-102 84.5q-47 61 -47 125q0 25 10 55q24 68 72 89q22 9 45 9q39 0 106 -29q4 0 4 2q1 7 -10 23q-24 38 -84 45v-25h-65v123h65v-32q36 0 75 -18.5t64 -56.5q20 -30 20 -59
q0 -14 -6 -28q-14 -30 -61 -42l-9 -1l-16 7q-56 25 -83 25q-10 0 -19 -3q-23 -11 -36 -51q-6 -18 -6 -34q0 -43 33 -84q32 -41 83.5 -66t95.5 -25q41 0 72 8.5t61.5 31t46.5 70.5t16 120v33q0 112 -94 214q-43 46 -88.5 71t-69.5 25q-65 0 -83 30q-9 15 -9 31q0 20 11 40
l50 75l-47 30l35 55l150 -97l-35 -55l-48 31l-49 -74h-1q4 -1 22 -1q43 0 101.5 -32t107.5 -84z" />
    <glyph glyph-name="W" unicode="W" horiz-adv-x="1042" 
d="M817 18l67 73l52 -48l-180 -193l-51 48l64 69l-282 280l-375 -372v842l375 -372l286 284l-68 73l51 48l180 -193l-52 -48l-63 69l-284 -282zM182 43l255 253l-255 253v-506z" />
    <glyph glyph-name="X" unicode="X" horiz-adv-x="946" 
d="M705 39h74v-189h-74v66h-320v497q-67 -17 -130 -17q-45 0 -60 5l-70 12l333 337v-232q95 47 168 137l-43 43l52 52l133 -133l-52 -53l-38 39q-94 -114 -220 -166v-447h247v49zM385 489v79l-98 -97q39 0 98 18z" />
    <glyph glyph-name="Y" unicode="Y" horiz-adv-x="1114" 
d="M429 382h68v-48h441q0 124 -106 233q-54 56 -126.5 86t-150.5 30q-87 0 -164 -37q-99 -48 -158 -143.5t-59 -204.5q0 -28 2 -42q14 -119 96.5 -211t199.5 -118q42 -9 83 -9q95 0 180.5 44.5t139.5 123.5l-38 33l45 50l117 -102l-44 -51l-29 26q-63 -90 -162.5 -141
t-208.5 -51q-48 0 -98 11q-137 31 -234 139t-114 248q-3 24 -3 48q0 129 70 242t186 169q90 43 192 43q60 0 118.5 -15.5t112 -46t95.5 -74.5q61 -62 94 -144t33 -170v-33h-510v-49h-68v164z" />
    <glyph glyph-name="Z" unicode="Z" horiz-adv-x="763" 
d="M591 45h69v-195h-69v66h-247v444h-174v-74h-70v218h70v-74h174v314l30 4q87 13 137 -48q23 -29 32 -69t5 -77.5t-17 -72.5q-28 -76 -118 -110v-386h178v60zM413 680v-233q40 23 53 59q16 41 13 83.5t-22 66.5q-17 20 -44 24z" />
    <glyph glyph-name="question" unicode="?" horiz-adv-x="849" 
d="M387 112h-71v166l25 8q12 3 26 8.5t25.5 10.5t21 9.5t14.5 7.5l6 3q43 25 67.5 69t24.5 95q0 20 -5 43q-13 57 -57.5 98.5t-101.5 48.5h-20q-53 0 -99 -29t-69 -78q-18 -39 -18 -83q0 -22 4 -41q12 -57 52 -95l-50 -51q-54 52 -71 131q-6 29 -6 57q0 61 25 112
q31 67 95 107.5t137 40.5h29q77 0 139 -60t81 -143q6 -29 6 -57q0 -70 -34.5 -131.5t-93.5 -95.5q-25 -17 -82 -37v-114zM413 -96q0 -22 -15.5 -38t-38.5 -16t-38.5 16t-15.5 38t15.5 38t38.5 16t38.5 -16t15.5 -38z" />
    <glyph glyph-name="zero" unicode="0" horiz-adv-x="889" 
d="M437 -150q-144 0 -246 132t-102 318q0 122 46.5 225.5t127 164t174.5 60.5t174.5 -60.5t127 -164t46.5 -225.5q0 -186 -102 -318t-246 -132zM437 653q-104 0 -177 -103.5t-73 -249.5t73 -249.5t177 -103.5t177 103.5t73 249.5t-73 249.5t-177 103.5z" />
    <glyph glyph-name="nine" unicode="9" horiz-adv-x="799" 
d="M674 458q0 -18 0.5 -39t1 -38.5t1.5 -32.5t1.5 -24.5t0.5 -10.5q0 -216 -77 -339.5t-206 -123.5h-4q-89 0 -155 54.5t-88 145.5l86 21q16 -63 57.5 -99t100.5 -36h2q48 0 84.5 28.5t57 76.5t31.5 93.5t17 98.5q-2 -2 -5 -5.5t-5 -4.5q-74 -68 -169 -68h-4
q-111 0 -192 86.5t-81 206.5q0 126 75 210q81 92 193 92q114 0 195.5 -86t81.5 -206zM560 346q25 47 25 108v6q0 10 -4 28q0 3 -0.5 6.5t-0.5 5.5q-14 71 -64.5 117.5t-114.5 46.5q-76 0 -130 -62q-53 -62 -53 -152q0 -87 54.5 -148t129.5 -61h2q62 0 112 45q27 27 44 60z
" />
    <glyph glyph-name="exclam" unicode="!" horiz-adv-x="922" 
d="M384 -96q0 -15 -7 -27.5t-19.5 -19.5t-27.5 -7q-22 0 -38 16t-16 38t16 38t38 16q15 0 27.5 -7.5t19.5 -19.5t7 -27zM295 92v658h70v-658h-70z" />
    <glyph glyph-name="questiondown" unicode="&#xbf;" horiz-adv-x="867" 
d="M474 488h71v-166l-25 -8q-20 -5 -43 -15t-35.5 -16.5t-14.5 -7.5q-52 -30 -76.5 -88t-10.5 -119q12 -57 56.5 -98t102.5 -48q58 -6 110.5 23.5t77.5 82.5q28 59 14 124q-13 56 -52 95l50 51q54 -54 71 -131q19 -89 -19 -169q-23 -49 -63.5 -84.5t-92 -52t-105.5 -9.5
q-79 9 -140.5 65.5t-79.5 135.5q-11 57 -0.5 110.5t43 99.5t79.5 74q41 22 82 37v114zM448 696q0 22 15.5 38t38.5 16q14 0 26.5 -7t20 -19.5t7.5 -27.5q0 -22 -16 -38t-38.5 -16t-38 16t-15.5 38z" />
    <glyph glyph-name="asciitilde" unicode="~" 
d="M903 215q-37 0 -68.5 10t-47 19.5t-39.5 27.5q-21 15 -32.5 22.5t-33 14t-48 6.5t-48 -6.5t-33 -14t-32.5 -22.5q-18 -14 -29.5 -21t-31.5 -17t-43 -14.5t-51 -4.5q-37 0 -68.5 10t-47 19.5t-40.5 27.5q-15 12 -23.5 17.5t-23 12.5t-30.5 10t-36 3v70q37 0 68.5 -10
t47 -19.5t39.5 -27.5q16 -12 24.5 -17.5t23 -12.5t30.5 -10t36 -3t35.5 3t30 10t23 12.5t24.5 17.5q18 14 29.5 21t31.5 17t43 14.5t51 4.5q37 0 68.5 -10t47 -19.5t40.5 -27.5q20 -15 31.5 -22.5t33.5 -14t48 -6.5v-70z" />
    <glyph glyph-name="a" unicode="a" horiz-adv-x="1132" 
d="M960 745q10 -4 20.5 -10.5t24 -19.5t22 -35.5t8.5 -51.5q0 -30 -8 -59q-16 -64 -90 -120q-66 -49 -148 -68q0 -31 -0.5 -93t-0.5 -89v-63q0 -134 -72 -212q-70 -76 -196 -76q-63 0 -111 9q-60 12 -101 40q-49 31 -75 88q-31 65 -31 155v34v6q-38 -14 -112 -44l-2 -1
l-26 63l3 1q60 24 137 54q0 81 -1 183.5t-1.5 174t-0.5 77.5v3h69v-3v-71t0.5 -162.5t0.5 -174.5q357 140 453 160q0 170 22 214q20 44 69 71q43 25 99 25h3h3q29 -1 42 -5zM961 586q6 26 6 42q0 42 -29 52q-11 4 -25 4q-32 0 -64.5 -17.5t-43.5 -42.5q-14 -30 -14 -172
q60 17 108 54q51 40 62 80zM719 370q-97 -25 -449 -163v-66q0 -121 58 -174q57 -51 192 -51q98 0 148 56q51 56 51 164v63v171z" />
    <glyph glyph-name="b" unicode="b" horiz-adv-x="739" 
d="M408 -150h-10q-49 0 -98 24q-103 50 -118 177l70 8q10 -87 77 -121q34 -18 69 -18h1h1q90 -3 136 55q24 29 29 56v1q9 48 5 69.5t-21 40.5q-20 22 -81 37q-37 9 -53 17q-35 17 -43 51q-6 24 8 44q14 21 45 30.5t85 16.5q18 2 22 3l-2 4h-17q-48 1 -73 7q-24 7 -39 20
q-22 19 -23 48q-2 45 32 66q16 10 50 16q15 2 20 3q35 11 45 27q7 13 3 40q-7 55 -61 84q-44 22 -100 24q-74 2 -127 -18q-46 -17 -74 -50q-30 -35 -39 -85q-9 -47 2 -102l-69 -13q-13 67 -2 128q13 69 54 117q40 47 103 71q66 24 154 22q72 -3 130 -32q87 -45 99 -137
q6 -51 -13 -84q-23 -40 -85 -59q-10 -3 -29 -5q-18 -3 -23 -5v-4q6 -4 21 -6q14 -2 45 -3q33 0 44 -5q21 -10 34 -32q13 -23 11 -46q-2 -22 -15.5 -37t-36.5 -21q-8 -2 -32 -6q-36 -4 -53 -8q-8 -2 -14 -4q9 -3 33 -9q25 -6 40 -10.5t38 -17.5t38 -30q23 -27 32.5 -58
t8.5 -56t-8 -58q-9 -45 -43 -86q-66 -81 -183 -81z" />
    <glyph glyph-name="c" unicode="c" horiz-adv-x="1015" 
d="M907 750v-74h-341v-822h-73v336h-267q-34 0 -47 -15q-12 -13 -12 -38v-3v-284h-73v280v10q0 51 30 84q36 40 102 40h267v412h-341v74h755z" />
    <glyph glyph-name="d" unicode="d" horiz-adv-x="1048" 
d="M202 -145l330 757l-438 -197l-29 63l604 272l-338 -774l270 97q-6 14 -9 30q-12 56 6.5 108t63.5 89q23 18 55.5 25.5t63.5 1.5q56 -10 82 -54q35 -60 11 -116q-25 -59 -113 -101q-23 -10 -48 -19q22 -16 48 -22q47 -13 90 0q44 13 66 47l59 -37q-35 -57 -105 -77
q-62 -18 -128 -1q-63 16 -105 65zM753 260q-29 0 -47 -15q-31 -25 -42 -60q-11 -33 -4 -67q3 -11 7 -22q21 5 47 15.5t56 30.5t39 42q11 24 -7 54q-9 16 -33 21q-8 1 -16 1z" />
    <glyph glyph-name="e" unicode="e" horiz-adv-x="664" 
d="M344 -79h204v-73h-277v532q-91 -52 -164 -78l-7 -3l-26 69l7 2q100 40 190 96v203q0 35 33 60q28 21 69 21q48 0 75 -33q30 -36 30 -101q0 -93 -134 -189v-506zM344 521q60 54 60 95q0 58 -28 63h-3q-17 0 -29 -12v-146z" />
    <glyph glyph-name="f" unicode="f" horiz-adv-x="966" 
d="M825 -150h-511v709h-203v191h75v-116h203v-709h361v709h75v-784z" />
    <glyph glyph-name="g" unicode="g" horiz-adv-x="1009" 
d="M809 447q72 -102 72 -238q0 -47 -9 -85q-31 -142 -155 -220q-87 -55 -187 -55q-39 0 -78 9q-174 39 -270 189q-67 104 -67 230q0 51 10 95q23 102 84.5 183t152.5 130q117 65 262 65q64 0 136 -16l-16 -70q-58 13 -119 13q-125 0 -229 -55q-161 -87 -201 -265
q-8 -35 -8 -78q0 -108 56 -193q79 -125 225 -158q29 -7 63 -7q81 0 148 43q98 64 123 176q7 28 7 68q0 117 -58 198q-53 78 -138 88h-23q-83 0 -152 -63q-74 -66 -74 -148q0 -85 35.5 -126t106.5 -64q15 -5 30 -5q36 0 71 22q52 34 58 88v9q0 25 -12 47t-25 27q-16 6 -30 6
q-16 0 -27 -7q-25 -15 -32 -41l-70 15q12 58 67 89q32 16 64 16q26 0 53 -10q35 -13 59.5 -54.5t24.5 -87.5q0 -12 -1 -18q-11 -87 -91 -139q-49 -33 -109 -33q-29 0 -52 8q-38 12 -67.5 27.5t-60 44t-47 75.5t-16.5 109q0 117 97 203q90 81 198 81q23 0 34 -2
q117 -15 187 -116z" />
    <glyph glyph-name="h" unicode="h" horiz-adv-x="985" 
d="M431 -150q-111 0 -177.5 50.5t-99.5 123.5q-38 82 -38 167v35h519q0 136 -102 229q-40 38 -87 58t-78 20q-69 0 -89 32q-9 14 -9 34q0 22 11 42l73 109l58 -39l-71 -107q-1 0 -1 -1q4 -1 23 -1q46 0 105.5 -23.5t112.5 -72.5q124 -117 124 -280h185v-70h-188
q-15 -147 -99 -231q-73 -75 -172 -75zM188 156q3 -27 10 -53t24.5 -61t42.5 -60.5t68.5 -43.5t97.5 -18q69 0 123 54q62 62 78 182h-444z" />
    <glyph glyph-name="i" unicode="i" horiz-adv-x="757" 
d="M577 138l66 -37l-8 -13q-2 -4 -6.5 -12t-6.5 -12q-57 -91 -103 -138q-39 -38 -76 -56q-45 -24 -92 -24q-12 0 -38 4l-11 4q-88 48 -88 166q0 48 18 124q-9 1 -23 7q-35 15 -58.5 46.5t-29.5 70.5q-5 17 -5 37q0 74 37 156q12 23 25 47q63 94 120 147t144 98l3 2l35 -68
l-3 -1q-78 -40 -128 -86.5t-107 -132.5q-7 -11 -20 -37q-30 -66 -30 -124q0 -12 3 -23q8 -48 43 -62q10 -4 16 -4q1 5 5 15l6 15l4 10t4.5 11t3.5 9l6 15q15 39 29 66q16 30 20 36q81 145 189 190h1l5 2q11 3 21 3q26 0 47 -13q24 -16 30 -43v-7q0 -2 0.5 -4t0.5 -4v-1v-15
q0 -26 -10 -43q-8 -23 -18 -40q-58 -115 -154 -188q-18 -13 -41 -27q-7 -5 -10 -7q-1 0 -1 -0.5t-1 -0.5q-16 -12 -23 -15q-8 -5 -33 -16q-7 -5 -23 -13q-23 -84 -23 -132q0 -69 44 -96q12 -2 17 -2q31 0 60 15t56.5 44.5t46.5 55.5t44 66q12 21 13 23zM352 261q8 7 14 9
q22 14 32 22q82 61 133 161q12 26 17 38v1q3 5 0 21q-81 -35 -150 -156q-3 -5 -19 -34q-12 -24 -26 -59z" />
    <glyph glyph-name="j" unicode="j" horiz-adv-x="1030" 
d="M872 -21l64 -26q-42 -102 -143 -102q-39 0 -59 8l-9 7q-31 26 -54 51q-64 -58 -113 -58q-15 0 -26 4q-67 23 -67 145v2v548q0 10 -3.5 25.5t-14 40t-38.5 41.5t-69 17t-69 -17t-39 -41.5t-15 -40.5t-4 -26v-619h44v-69h-152v69h41v620q0 22 5.5 46t20 50.5t35.5 47.5
t55.5 34.5t77.5 13.5t77.5 -13.5t56 -34.5t36 -47t20 -50t5.5 -46v-550q0 -28 5.5 -53t14.5 -28q1 -1 4 -1q24 0 72 46q-28 50 -28 103v29q8 48 38 82.5t64 46.5q17 5 29 5q27 0 46 -17q35 -31 35 -80q0 -47 -29 -95q-39 -50 -67 -81q27 -29 44 -42q17 -5 30 -5q56 0 79 60z
M681 26q18 20 49 60l2 4q1 3 3.5 8.5t5 12t4 15t1.5 15.5q0 19 -12 30h-1q-8 0 -24 -13t-27 -35q-11 -21 -11 -48q0 -25 10 -49z" />
    <glyph glyph-name="k" unicode="k" horiz-adv-x="1036" 
d="M941 613q7 -38 -8 -74q-17 -41 -53.5 -64.5t-82.5 -23.5h-5q-37 1 -153 37q-68 -105 -181 -287q76 -46 145 -97q123 -92 218 -198l-52 -47q-90 100 -207 188q-67 50 -141 95q-92 -148 -180 -292l-60 36q85 139 179 291q-122 67 -211 98l23 66q94 -32 221 -102
q1 -1 2.5 -1.5t1.5 -1.5q106 171 174 274q-41 14 -108 36q-1 1 -6 2q-59 -74 -134 -105q-54 -23 -119 -15q-66 8 -107 44q-25 23 -35 52q-10 32 0 68q23 84 115 92q44 5 128 -14q29 -6 126 -39q19 30 51 90q10 20 15 29l61 -33q-4 -9 -14 -28q-28 -53 -45 -81l111 -37
q42 62 58 81q23 28 53 46q36 22 74 24q60 4 109 -41q30 -28 37 -68zM296 508q48 20 89 64q-73 25 -95 30q-62 13 -92 13h-15q-23 -2 -35.5 -12t-18.5 -30q-8 -29 15 -48q24 -22 69 -27q46 -6 83 10zM868 565q5 12 5 24t-4 22.5t-12 17.5q-28 25 -58 23q-42 -2 -78 -45
q-12 -14 -41 -58q90 -28 114 -28q26 -1 45.5 11t28.5 33z" />
    <glyph glyph-name="l" unicode="l" horiz-adv-x="1009" 
d="M701 512q-2 -3 -2 -12v-519h94v67h70v-200h-70v70h-157v582q0 37 21 58q21 20 87 20h14l8 -1q13 1 22 8q11 11 12 35q-1 27 -15 37q-7 5 -15 5h-206v-814l-255 572v-549h-192v63h129v814l254 -571v548h270q11 0 25 -4.5t30 -15t27 -32.5t11 -52q-1 -54 -32 -82
q-27 -25 -65 -25h-1h-6h-3q-6 1 -14 1q-34 0 -41 -3z" />
    <glyph glyph-name="m" unicode="m" horiz-adv-x="1035" 
d="M387 -148l-7 70q76 7 130 25q73 23 128 61q55 37 90 86q73 103 55 251v4q-115 -152 -271 -202q-81 -26 -166 -10.5t-149 68.5q-56 46 -84 109q-29 68 -21 146q7 64 40 119q30 51 79 90q60 47 138 68.5t155 11.5q147 -19 244 -139q33 -40 57 -90q45 94 68 197l68 -15
q-32 -146 -104 -271q11 -38 16 -78q10 -87 -7 -163q-17 -75 -61 -137q-42 -59 -108 -103q-63 -43 -145 -70q-62 -20 -145 -28zM456 682q-115 0 -202 -68q-81 -65 -92 -162q-6 -57 14 -106.5t65 -86.5q50 -40 116 -53q68 -13 134 8q76 24 142 78q61 50 111 123q9 12 17 26
q-24 71 -67 125q-79 98 -198 113q-20 3 -40 3z" />
    <glyph glyph-name="n" unicode="n" horiz-adv-x="931" 
d="M852 525q4 -149 -24 -285q-33 -168 -107 -267q-67 -89 -189 -115q-39 -8 -79 -8q-76 0 -144 28q-141 60 -184 314q-23 138 -27 458l70 1q4 -314 26 -448q16 -92 45 -154q19 -40 43.5 -67t54.5 -39q85 -36 180 -16q96 20 148 88q64 86 95 239q25 128 22 269q-1 44 -16 80
t-40 56q-37 29 -93 18q-94 -19 -184 -94q-41 -34 -65.5 -66t-32.5 -54q-6 -19 0 -24q10 -10 48 7q32 13 100 59q62 41 84 48q54 17 86 -13q26 -25 16 -65q-5 -19 -16 -36.5t-30.5 -35t-32.5 -27.5t-36 -27q-18 -13 -25 -18q-4 -4 -17 -12q-29 -21 -42 -32q-11 -10 -17 -18
q4 -1 10 -3q10 -2 34 -6q23 -4 32 -7q54 -17 58 -57q3 -28 -21 -56q-15 -17 -41 -36q-30 -21 -87 -53q-11 -6 -15 -8q-13 -7 -39 -22l-35 60q27 16 39 23q4 2 16 9q47 26 72 42q25 17 36 30q-2 1 -3 1q-5 2 -23 5q-35 5 -52 11q-40 13 -51 42q-10 25 4 52q9 16 26 34
q19 18 59 46q11 8 14 10q8 6 27 20q41 29 59 46q22 21 28 36q-6 0 -12 -2q-13 -4 -66 -40q-74 -48 -111 -64q-33 -15 -60 -16q-37 -2 -63 21q-18 16 -23.5 42.5t4.5 55.5q11 34 42.5 74.5t76.5 77.5q104 86 215 108q88 18 151 -31q39 -32 61 -85q19 -48 21 -104z" />
    <glyph glyph-name="o" unicode="o" horiz-adv-x="1108" 
d="M383 -150l-32 15q-70 33 -124 86q-68 66 -104.5 154.5t-36.5 182.5q0 104 45 198q58 120 173.5 192t248.5 72q6 0 17.5 0.5t17.5 0.5q9 0 17 -1q144 -17 255.5 -118.5t143.5 -243.5q11 -47 11 -101q0 -124 -62.5 -233.5t-170.5 -171.5l-40 68q90 52 142 143t52 194
q0 42 -9 84q-27 118 -119.5 200.5t-211.5 96.5q-21 3 -43 3q-110 0 -206 -60t-144 -159q-37 -77 -37 -165q0 -166 116 -279q32 -30 72 -55l304 503l68 -41z" />
    <glyph glyph-name="p" unicode="p" horiz-adv-x="697" 
d="M424 365h173v-65h-173v-445h-65v445h-266l331 455v-390zM221 365h138v190z" />
    <glyph glyph-name="q" unicode="q" horiz-adv-x="865" 
d="M689 78l59 -25l-85 -203l-59 25l27 64q-96 48 -171 133l-203 -198l-48 42l5 8q6 8 15.5 21t22 31t28.5 41t32.5 47.5t36 54t37.5 58.5q-48 84 -70 169t-22 134v26l-79 78l-54 -62l-48 42l146 165l48 -42l-49 -55l46 -45q12 53 44 89t94 60q35 14 61 14q38 0 72 -26
q58 -45 58 -147q0 -6 -1 -16.5t-1 -15.5q0 -56 -77 -204l92 -89l-140 -136q64 -73 150 -116zM464 676q-56 -21 -80 -52t-24 -92l147 -145q55 109 62 165v25q0 72 -33 97q-11 10 -33 10q-19 0 -39 -8zM425 240q25 40 51 89l-115 113q13 -102 64 -202zM467 167l88 85l-32 31
q-20 -36 -62 -106q1 -1 3 -4.5t3 -5.5z" />
    <glyph glyph-name="r" unicode="r" horiz-adv-x="937" 
d="M184 -150l33 100q5 16 13.5 37t36 75t59 96t83 82t107.5 52q10 6 29.5 37t29.5 73q7 31 7 61q0 95 -66 182q-22 28 -43 28q-28 0 -106 -58q-7 -5 -19 -14.5t-19 -13.5q-86 -59 -178 -90l-24 73q80 27 158 81q12 8 36 26q28 21 47.5 34t50 26t56.5 13q58 0 102 -58
q83 -108 83 -228q0 -57 -21 -118q-19 -51 -48.5 -87t-58.5 -42q-110 -24 -200 -194q122 56 208 56q32 0 61 -9q57 -20 103 -68q26 -28 31 -31q18 -11 29 -3l49 -59q-26 -22 -60 -22q-30 0 -59 18q-15 9 -47 41q-34 38 -72 51q-13 5 -36 5q-53 0 -130 -30t-136 -67z" />
    <glyph glyph-name="s" unicode="s" horiz-adv-x="904" 
d="M167 -150l454 900l63 -32l-382 -759q8 2 53 13.5t65.5 16.5t53.5 10.5t54 5.5q92 0 149 -57l4 -4q20 10 49 34l45 -56q-58 -47 -92 -52h-6q-22 0 -49 27q-37 37 -93 37q-42 0 -115 -16t-122.5 -30.5t-53.5 -16.5zM314 262l-155 108l41 58l155 -108zM444 509l-155 108
l41 58l155 -108z" />
    <glyph glyph-name="t" unicode="t" horiz-adv-x="996" 
d="M361 -150l-257 553h425l153 347l64 -28l-141 -319h291v-70h-322zM214 333l145 -313l139 313h-284z" />
    <glyph glyph-name="u" unicode="u" horiz-adv-x="936" 
d="M242 -150q-17 0 -37 5q-39 11 -63.5 48t-24.5 101q0 81 104 151q47 33 145 131q0 45 3 123.5t3 107.5l-206 -98l-29 63l305 144v-54l-2 -76q-2 -75 -2 -137q31 32 65.5 68t61.5 64.5t49 52t35 37.5l13 14l142 155l-85 -192q-57 -127 -99 -270.5t-42 -231.5q0 -72 31 -89
l6 -3l4 -5q15 -15 50 -15q44 0 104 30l31 -62q-73 -37 -135 -37q-61 0 -98 34q-61 37 -61 149q0 96 41 237q19 67 39 122q-120 -125 -156 -161q0 -93 -12.5 -180.5t-30.5 -126.5q-20 -45 -61.5 -72t-87.5 -27zM360 184q-64 -61 -100 -86q-30 -20 -48.5 -40.5t-22 -30
t-3.5 -15.5v-2l1 -6l-1 -4q-1 -6 -1 -18q0 -51 38 -61q10 -2 17 -2q26 0 51 15.5t37 42.5q32 70 32 207z" />
    <glyph glyph-name="v" unicode="v" horiz-adv-x="760" 
d="M339 588q63 -17 119 -48.5t103.5 -77.5t75.5 -112t28 -142q0 -23 -4 -55q-21 -168 -86.5 -235.5t-179.5 -67.5h-29q-69 0 -135.5 25t-102.5 71q-31 40 -31 88q0 28 10 57q0 3 4.5 18.5t16 40t24.5 40.5q9 10 9 27q0 22 -12 39q-11 17 -11 40q0 40 28 60q16 11 35 11
q53 0 119 -85l-56 -44q-34 44 -54 54q22 -34 22 -75q0 -43 -26 -73q-19 -23 -32 -73q-6 -19 -6 -35q0 -26 16 -47q27 -34 85 -50.5t119 -16.5q42 0 71.5 8.5t57.5 32.5t46 73.5t27 125.5q3 24 3 48q0 61 -22.5 113t-54 84.5t-73.5 58t-70 37t-55 18.5q-69 27 -141 97
l-50 -39l-43 56l147 115l44 -56l-41 -32q17 -16 34 -29t29 -21t22 -13.5t15 -8.5z" />
    <glyph glyph-name="w" unicode="w" horiz-adv-x="972" 
d="M128 -100v842l375 -371l306 303l49 -50l-305 -303l305 -302l-49 -50l-306 303zM198 574v-506l255 253z" />
    <glyph glyph-name="x" unicode="x" horiz-adv-x="838" 
d="M660 39h74v-189h-74v66h-320v497q-65 -17 -130 -17q-45 0 -60 5l-70 12l333 335v-230q95 47 168 137l-43 43l52 52l133 -133l-52 -53l-38 39q-94 -114 -220 -166v-447h247v49zM340 489v79l-98 -97q39 0 98 18z" />
    <glyph glyph-name="y" unicode="y" horiz-adv-x="1087" 
d="M540 -150q-48 0 -98 11q-137 32 -234.5 140t-113.5 247q-3 24 -3 48q0 129 70 242t186 169q90 43 192 43q61 0 119 -15.5t111.5 -46t95.5 -74.5q61 -62 94 -144t33 -170v-34h-544v69h474q0 123 -106 231q-54 56 -126.5 86t-149.5 30q-86 0 -163 -37q-99 -47 -158 -142.5
t-59 -204.5q0 -21 2 -42q14 -119 96.5 -210.5t198.5 -117.5q41 -9 83 -9q102 0 192.5 51.5t141.5 140.5l59 -35q-60 -105 -166.5 -165.5t-226.5 -60.5z" />
    <glyph glyph-name="z" unicode="z" horiz-adv-x="907" 
d="M125 -150l32 76q142 332 225 496q-45 11 -90 35.5t-75.5 48.5t-58 51.5t-37.5 40t-15 19.5l54 39q4 -6 12.5 -16t35 -36.5t54 -48.5t69 -43.5t82.5 -29.5q35 68 70 126q43 71 101.5 107.5t111.5 36.5q12 0 22 -2q30 -4 50.5 -22t26.5 -44q2 -10 2 -21q0 -83 -129 -180
q-97 -72 -217 -72q-98 -193 -201 -435q198 83 240 91q26 5 41 5q29 0 54 -17.5t72 -68.5q7 -8 13 -12.5t8 -5.5h3q4 2 7.5 16t3.5 25q0 4 -1 7l65 16q2 -9 2 -21q0 -30 -11.5 -59.5t-35.5 -42.5q-14 -8 -30 -8q-36 0 -73 40q-26 28 -37.5 39.5t-21.5 17.5t-20 6q-6 0 -26 -4
q-55 -11 -303 -117zM697 684q-35 0 -79 -27t-78 -83q-38 -64 -54 -96q75 8 142 59q55 41 79.5 74t24.5 52q0 3 -1 5q-4 12 -23 15q-2 0 -5.5 0.5t-5.5 0.5z" />
    <glyph glyph-name="comma" unicode="," horiz-adv-x="583" 
d="M37 -291l-61 32l139 269l61 -32z" />
    <glyph glyph-name="Fullstop" unicode="." horiz-adv-x="1069" 
d="M208 -130q-58 0 -99.5 41t-41.5 100q0 58 41.5 99.5t99.5 41.5t99.5 -41.5t41.5 -99.5q0 -59 -41.5 -100t-99.5 -41zM208 80q-29 0 -49.5 -20.5t-20.5 -48.5q0 -29 20.5 -49.5t49.5 -20.5t49.5 20.5t20.5 49.5q0 28 -20.5 48.5t-49.5 20.5z" />
    <glyph glyph-name="uni0307" unicode="&#x307;" horiz-adv-x="747" 
d="M432 582l-142 26l26 142l74 -13l-12 -68l68 -13z" />
    <glyph glyph-name="uni0327" unicode="&#x327;" horiz-adv-x="807" 
d="M372 -151l-27 151l152 28l14 -79l-73 -13l14 -73z" />
    <glyph glyph-name="cedilla" unicode="&#xb8;" horiz-adv-x="997" 
d="M444 -151l-27 151l152 28l14 -79l-73 -13l14 -73z" />
    <glyph glyph-name="uni0323" unicode="&#x323;" horiz-adv-x="795" 
d="M493 599l-130 -299l130 -300l-74 -31l-144 331l144 331z" />
    <glyph glyph-name="plus" unicode="+" horiz-adv-x="843" 
d="M715 339v-78h-254v-254h-78v254h-254v78h254v254h78v-254h254z" />
    <glyph glyph-name="two" unicode="2" horiz-adv-x="739" 
d="M631 -150h-533v43q0 31 13.5 60.5t27 45.5t36.5 40q4 4 11 11.5t10 10.5l309 321q47 47 47 113q0 70 -54 119.5t-130 49.5t-130 -49.5t-54 -119.5h-86q0 105 79 180t191 75t191 -75t79 -180q0 -100 -71 -173l-308 -322q-3 -3 -10.5 -10t-11.5 -11q-27 -27 -38 -43h432
v-86z" />
    <glyph glyph-name="uni1ECC" unicode="&#x1ecc;" horiz-adv-x="1450" 
d="M625 753q96 -11 181 -61t144 -129t80 -174q35 -150 -28 -293.5t-197 -220.5l-5 -3l-34 60l5 2q114 66 168 189t24 251q-28 123 -124.5 210t-221.5 101q-22 3 -45 3q-115 0 -215 -63q-101 -62 -151 -166q-55 -116 -32 -245.5t115 -218.5q36 -35 81 -60l319 527l59 -36
l-352 -581l-28 13q-71 34 -127 88q-107 104 -134.5 255.5t37.5 287.5q59 121 177 195q117 72 251 72q27 0 53 -3zM1323 602l-135 -310l135 -309l-63 -27l-147 336l147 337zM823 -179l-113 132l63 54l113 -132z" />
    <glyph glyph-name="uni1EB8" unicode="&#x1eb8;" horiz-adv-x="1005" 
d="M636 750v-839h63v-61h-187v61h63v670q-75 -62 -170 -62q-48 0 -91 19q-42 -15 -96 -16q-26 0 -54 4v-35h-61v142h61v-45q6 -1 11.5 -1.5l11 -1l11 -1t10.5 -0.5h10q9 0 17.5 0.5t16.5 1.5q-8 10 -9 24q-1 9 -1 17q0 40 21.5 64.5t51.5 30.5q7 2 15 2q21 0 38 -10
q17 -11 25.5 -28t8.5 -37q0 -19 -7 -37q-6 -15 -18 -30q18 -2 28 -2q104 0 176 96zM338 635q8 20 -2 27h-6h-1q-26 -5 -26 -35q1 -5 1 -10q2 -3 10 -9q19 12 24 27zM897 584l-130 -299l130 -298l-56 -24l-140 322l140 323z" />
    <glyph glyph-name="uni1EA0" unicode="&#x1ea0;" horiz-adv-x="1353" 
d="M1022 696q5 -7 8.5 -15.5t6 -17.5t4 -18.5t1.5 -20.5q0 -5 -0.5 -11t-1.5 -12l-2 -12t-2 -12.5t-3 -13.5q-29 -115 -234 -141q0 -38 -1 -113t-1 -106v-68q0 -135 -71 -211q-71 -77 -196 -77q-79 0 -141 17q-58 16 -98 53q-80 74 -80 222v275h-84v-56h-71v177h71v-48
q9 0 37 -0.5t47 -0.5v186h-90v71h250v-71h-89v-186q49 0 129 -0.5t111 -0.5q59 0 128.5 1t78.5 1q0 122 21 162q21 44 69 71q51 28 99 28q26 0 49 -9q33 -10 55 -43zM964 581q2 8 3.5 15t2 13.5t0.5 12.5q0 8 -1 15q-5 28 -26 35q-14 4 -24 4q-30 0 -62 -17q-33 -19 -43 -42
q-13 -26 -13 -123q61 9 100 27q54 24 63 60zM727 414h-208h-237q0 -63 1.5 -154.5t1.5 -119.5q0 -120 56 -171q56 -50 189 -50q96 0 145 55q51 56 51 161v61q0 39 0.5 112.5t0.5 105.5zM1234 607l-135 -310l135 -309l-66 -29l-147 338l1 3l146 335z" />
    <glyph glyph-name="uni1EE5" unicode="&#x1ee5;" horiz-adv-x="1057" 
d="M198 -150q-15 0 -37 5q-39 11 -63 48t-24 101q0 83 106 153q45 31 153 139q0 49 3.5 136t3.5 118l-224 -107l-25 54l309 147v-47q0 -7 -1 -43t-2 -90.5t-1 -105.5q34 35 71.5 74t67 70.5t54 57.5t38.5 42l14 15l122 133l-73 -165q-39 -87 -71.5 -180.5t-54 -187.5
t-21.5 -157q0 -80 35 -100l4 -3l4 -4q18 -18 58 -18q48 0 111 32l27 -53q-14 -7 -27.5 -12.5t-26 -9.5t-24 -7t-22 -5t-20 -3t-18.5 -1q-64 0 -99 35q-61 38 -61 155q0 145 91 393q-108 -114 -183 -189q0 -98 -13 -189t-31 -132q-20 -45 -61.5 -72t-88.5 -27zM328 208
q-71 -70 -115 -100q-14 -9 -25.5 -18.5t-19.5 -17.5t-14 -15.5t-9.5 -14t-6 -11.5t-3.5 -9.5t-1.5 -6.5t-0.5 -4v-1l1 -5l-1 -5q-1 -9 -1 -17q0 -59 45 -71q9 -2 19 -2q29 0 57 16.5t41 46.5q13 31 23.5 96t10.5 139zM909 -25l-127 294l127 293l54 -24l-117 -269l117 -269z
" />
    <glyph glyph-name="uni1ECB" unicode="&#x1ecb;" horiz-adv-x="1005" 
d="M559 124l5 9l59 -33l-5 -9q-3 -5 -7.5 -14t-6.5 -12q-22 -35 -34.5 -53.5t-42 -54t-54.5 -55t-62 -36t-75 -16.5q-18 0 -37 3l-10 4q-86 47 -86 163q0 54 19 127q-12 1 -27 8q-34 14 -57 44.5t-28 69.5q-5 15 -5 36q0 73 37 155q13 27 24 46q63 94 119.5 146.5
t143.5 97.5l31 -60q-79 -41 -129 -88t-108 -132l-9.5 -19t-10.5 -20q-30 -66 -30 -126q0 -11 3 -23q8 -49 45 -65q11 -4 20 -5q3 7 7 19l24 61q18 44 28 64q3 5 9.5 17.5t10.5 18.5q81 145 188 189l5 1q10 3 22 3q25 0 43 -12q23 -14 28 -40l1 -7v-9v-7.5v-8.5q0 -23 -8 -38
q-5 -14 -19 -42q-57 -113 -154 -187q-21 -16 -40 -27q-8 -4 -12 -8q-10 -7 -22 -14q-14 -8 -34 -16q-8 -6 -24 -14q-23 -87 -23 -136q0 -72 46 -100q9 -1 18 -1q32 0 61.5 15t57 44t47.5 56.5t45 67.5q1 1 5.5 9.5t7.5 13.5zM335 267l-7 -18q1 1 3 2.5t3 2.5q8 6 19 12
q12 7 33 23q81 60 134 163q10 21 17 38l3 4v18v6q-1 -1 -9 -1q-80 -34 -152 -158q-3 -7 -10 -19t-9 -15q-12 -26 -25 -58zM895 632l-143 -329l143 -329l-62 -27l-155 356l155 356z" />
    <glyph glyph-name="uni1ECD" unicode="&#x1ecd;" horiz-adv-x="1395" 
d="M618 753q146 -17 259.5 -118.5t145.5 -245.5q6 -25 9 -51t3 -52q0 -126 -63.5 -237t-173.5 -174l-5 -3l-34 60l5 2q94 54 148 149.5t54 202.5q0 45 -10 88q-28 123 -124.5 210t-221.5 101q-22 3 -45 3q-114 0 -215 -63q-100 -60 -151 -166q-39 -81 -39 -172
q0 -82 31.5 -158.5t90.5 -133.5q40 -38 81 -60l319 527l59 -36l-352 -581l-28 13q-74 36 -127 88q-69 67 -105.5 156.5t-36.5 184.5q0 107 45 202q60 122 177 195q116 72 251 72q27 0 53 -3zM1316 602l-135 -310l135 -309l-63 -27l-147 336l147 337z" />
    <glyph glyph-name="uni1EB9" unicode="&#x1eb9;" horiz-adv-x="845" 
d="M543 -150h-265v544q-93 -56 -176 -85l-21 55q104 41 197 100v209q0 32 30 54.5t66 22.5q42 0 70 -33q28 -36 28 -97q0 -92 -135 -188v-523h206v-59zM373 691q-12 0 -23 -7t-13 -12v-165q76 64 76 113q0 71 -35 71h-5zM687 -9l-145 334l145 333l55 -23l-135 -310l135 -311
z" />
    <glyph glyph-name="uni1EA1" unicode="&#x1ea1;" horiz-adv-x="1357" 
d="M979 748q10 -4 20.5 -10.5t24 -19.5t22.5 -36t9 -52q0 -14 -2.5 -29t-6.5 -32q-17 -67 -92 -122q-67 -49 -146 -68q0 -30 -1 -89t-1 -85v-71q0 -137 -71 -214q-72 -77 -199 -77q-75 0 -111 7q-58 11 -103 42q-50 33 -76 90q-31 65 -31 156q0 5 -1.5 17t-1.5 21
q-21 -8 -57 -23t-51 -21l-5 -2l-27 66l8 3q40 18 132 54v435v7h72v-7v-71t0.5 -162t0.5 -174q364 141 450 159q0 169 25 215q20 43 69 72q50 28 101 28q29 0 49 -7zM977 587q6 24 6 42q0 41 -28 50q-9 4 -25 4q-32 0 -63 -17q-32 -18 -43 -42v-1q-15 -30 -15 -170
q60 17 109 55q48 39 59 79zM735 367q-104 -27 -450 -163q0 -13 0.5 -34.5t0.5 -30.5q0 -122 58 -174q55 -51 192 -51q84 0 133 42q66 55 66 178v64v169zM1252 635l-136 -313l136 -312l-66 -29l-2 6l-146 335l148 342z" />
    <glyph glyph-name="uni1E3F" unicode="&#x1e3f;" horiz-adv-x="1067" 
d="M981 108l-34 -61l-39 21q-23 -46 -59 -85q-48 -53 -112 -86q-64 -34 -132 -44q-25 -3 -50 -3q-45 0 -87 12q-47 13 -81 44t-49 74q-14 40 -8 82q5 44 31 80q38 53 118 83q45 17 142 37q96 19 132 35q55 24 78 79q22 54 6 113q-17 67 -74 106q-67 44 -167 34
q-133 -14 -216 -128q-66 -91 -75 -208l52 -6l-8 -70l-172 22l9 69l49 -6q12 135 88 240q47 65 112 105q70 43 154 52q125 12 213 -46q79 -54 103 -146q21 -82 -10 -158q-16 -38 -44 -68q-30 -31 -70 -48q-43 -19 -146 -40q-44 -9 -67 -14.5t-57 -16.5t-56.5 -26t-36.5 -35
q-32 -45 -14 -98q20 -56 83 -74q50 -14 107 -6.5t110 36t93 71.5q30 33 49 72l-46 25l34 61zM241 602q-38 -42 -62 -97q-27 -64 -28 -114l-70 2q2 64 34 139q28 66 74 117q58 64 141 101l28 -64q-69 -31 -117 -84z" />
    <glyph glyph-name="uni1E3E" unicode="&#x1e3e;" horiz-adv-x="1067" 
d="M981 108l-34 -61l-39 21q-23 -46 -59 -85q-48 -53 -112 -86q-64 -34 -132 -44q-25 -3 -50 -3q-45 0 -87 12q-47 13 -81 44t-49 74q-14 40 -8 82q5 44 31 80q38 53 118 83q45 17 142 37q96 19 132 35q55 24 78 79q22 54 6 113q-17 67 -74 106q-67 44 -167 34
q-133 -14 -216 -128q-66 -91 -75 -208l52 -6l-8 -70l-172 22l9 69l49 -6q12 135 88 240q47 65 112 105q70 43 154 52q125 12 213 -46q79 -54 103 -146q21 -82 -10 -158q-16 -38 -44 -68q-30 -31 -70 -48q-43 -19 -146 -40q-44 -9 -67 -14.5t-57 -16.5t-56.5 -26t-36.5 -35
q-32 -45 -14 -98q20 -56 83 -74q50 -14 107 -6.5t110 36t93 71.5q30 33 49 72l-46 25l34 61zM241 602q-38 -42 -62 -97q-27 -64 -28 -114l-70 2q2 64 34 139q28 66 74 117q58 64 141 101l28 -64q-69 -31 -117 -84z" />
    <glyph glyph-name="uni1E43" unicode="&#x1e43;" horiz-adv-x="1092" 
d="M717 127l33 61l151 -80l-33 -62l-42 23q-24 -47 -61 -87q-48 -52 -114 -86q-64 -33 -134 -43q-26 -3 -50 -3q-47 0 -90 12q-47 13 -82 44t-50 75q-14 40 -8 82q6 43 32 79q37 52 100 74q36 13 111 22q86 12 124 29q43 19 59 58q16 38 5 85q-14 63 -65 107q-54 46 -128 45
q-69 -2 -122 -29q-48 -24 -82 -69q-52 -69 -61 -169l53 -3l-5 -70l-176 12l5 70l53 -4q10 121 76 207q91 121 258 125q100 2 175 -62q68 -59 87 -144q16 -69 -8 -128q-27 -65 -95 -95q-48 -21 -144 -34q-68 -9 -96 -19q-43 -15 -67 -49q-33 -45 -15 -97q20 -57 85 -75
q35 -9 72.5 -9t76 10t74.5 28q55 29 95 72q31 33 50 72zM755 603q-49 53 -119 83l28 64q84 -37 143 -101q48 -51 76 -117q33 -75 35 -139l-70 -2q-2 52 -30 116q-24 54 -63 96z" />
    <glyph glyph-name="uni1E42" unicode="&#x1e42;" horiz-adv-x="1092" 
d="M717 127l33 61l151 -80l-33 -62l-42 23q-24 -47 -61 -87q-48 -52 -114 -86q-64 -33 -134 -43q-26 -3 -50 -3q-47 0 -90 12q-47 13 -82 44t-50 75q-14 40 -8 82q6 43 32 79q37 52 100 74q36 13 111 22q86 12 124 29q43 19 59 58q16 38 5 85q-14 63 -65 107q-54 46 -128 45
q-69 -2 -122 -29q-48 -24 -82 -69q-52 -69 -61 -169l53 -3l-5 -70l-176 12l5 70l53 -4q10 121 76 207q91 121 258 125q100 2 175 -62q68 -59 87 -144q16 -69 -8 -128q-27 -65 -95 -95q-48 -21 -144 -34q-68 -9 -96 -19q-43 -15 -67 -49q-33 -45 -15 -97q20 -57 85 -75
q35 -9 72.5 -9t76 10t74.5 28q55 29 95 72q31 33 50 72zM755 603q-49 53 -119 83l28 64q84 -37 143 -101q48 -51 76 -117q33 -75 35 -139l-70 -2q-2 52 -30 116q-24 54 -63 96z" />
    <glyph glyph-name="Adieresis" unicode="&#xc4;" horiz-adv-x="1301" 
d="M1197 579l-143 26l26 143l70 -13l-14 -73l74 -14zM148 635v71h226v-71h-77v-36v-65v-74q338 -2 425 1q4 126 20 154q23 52 88 79.5t120 7.5q7 -2 15 -6.5t19 -13t19 -21.5t14 -30.5t5.5 -43t-8.5 -54.5q-28 -111 -223 -136q-2 -68 -2 -213v-60q-1 -130 -69 -203t-187 -73
q-48 0 -86 5t-80.5 22t-70.5 46.5t-47.5 82t-19.5 124.5q-2 97 -3 262q-38 0 -77 1v-48h-71v157h71v-39h22h25.5h29.5v174h-78zM903 639q-14 0 -29 -4t-28.5 -11.5t-24.5 -18t-16 -21.5q-8 -19 -12 -116q137 21 153 82q18 72 -20 86q-10 3 -23 3zM297 390q1 -167 2 -261
q2 -117 54 -163.5t180 -46.5q90 0 137 52t48 153v60q0 134 2 207q-96 -3 -423 -1z" />
    <glyph glyph-name="quoteright" unicode="&#x2019;" horiz-adv-x="887" 
d="M233 70h63v-195h-181v64h118v131z" />
    <glyph glyph-name="Edieresis" unicode="&#xcb;" 
d="M329 608q2 -3 6 -6q13 10 18 22q6 15 -1 19h-1h-2q-22 -5 -20 -35zM865 580l-143 26l26 143l69 -13l-13 -74l74 -13zM122 462v177h71v-59q40 -5 72 -2q-5 9 -6 18q-5 49 17.5 78.5t57.5 37.5q28 6 55 -9q26 -17 34 -46.5t-5 -59.5q-5 -12 -13 -23q10 -1 18 -1
q99 1 167 92l64 85v-829h56v-71h-183v71h56v637q-72 -55 -160 -55h-1q-45 0 -88 18q-59 -22 -141 -12v-47h-71z" />
    <glyph glyph-name="Odieresis" unicode="&#xd6;" horiz-adv-x="1132" 
d="M568 705q135 -16 240 -110t135 -227q30 -129 -18.5 -254t-156.5 -201l16 -19l-54 -47l-91 104l54 47l27 -31q94 63 136 169t17 216q-25 111 -112.5 190t-201.5 92t-218 -44t-154 -161q-50 -105 -29 -222.5t104 -198.5q32 -30 69 -52l289 475l61 -37l-323 -532l-29 14
q-65 31 -117 81q-100 97 -125 237.5t36 265.5q59 124 183 192.5t262 52.5zM978 660l74 -14l-12 -70l-146 26l27 145l70 -13z" />
    <glyph glyph-name="Idieresis" unicode="&#xcf;" horiz-adv-x="804" 
d="M476 81l33 63l116 -62l-34 -63l-27 15q-18 -29 -30 -46.5t-36.5 -47.5t-47 -47.5t-54.5 -31t-65 -13.5q-16 0 -33 3l-11 4q-108 59 -62 248q-8 2 -17 5q-30 13 -51 40.5t-26 62.5q-3 13 -4 31q1 67 32 135q10 21 21 40q34 50 63.5 85t62.5 61.5t76 50.5l-12 32l66 25
l45 -117l-67 -25l-7 18q-51 -30 -88 -67t-79 -100q-8 -15 -16 -32q-26 -55 -26 -105q0 -9 3 -19q5 -38 35 -50q5 -3 10 -3l24 63q16 38 25 55q7 15 17 31q31 56 69.5 98.5t93.5 65.5l5 2q34 8 61 -9q22 -14 27 -39v-7q0 -2 1 -7q2 -32 -9 -52q-5 -15 -15 -34
q-50 -98 -133 -161q-17 -12 -35 -23q-4 -2 -10 -7q-12 -9 -20 -13q-13 -7 -28 -13q-9 -7 -19 -11q-12 -47 -17 -78.5t2 -64t31 -48.5q23 -3 45 4.5t40 20.5t37 35t33 41.5t31 47.5zM357.5 256.5q-7.5 -14.5 -19.5 -43.5q3 2 4 2q14 9 28 19q69 52 112 137q8 15 15 32
q2 6 1 14q-67 -30 -125 -132q-8 -14 -15.5 -28.5zM617 662l74 -14l-12 -69l-144 26l26 143l70 -13z" />
    <glyph glyph-name="Udieresis" unicode="&#xdc;" horiz-adv-x="1030" 
d="M750 -2l58 25l61 -141l-59 -25l-17 40q-43 -18 -80.5 -22.5t-62.5 3t-38.5 14.5t-23.5 16q-24 15 -38 42.5t-19 61.5t-2.5 76.5t10 85t20 90.5t25.5 89t29 84q-94 -100 -170 -175q-13 -247 -43 -315q-20 -45 -61.5 -72t-88.5 -27q-18 0 -36 5q-42 11 -68 49t-20 100
q-1 11 1.5 24t11.5 34t32.5 45.5t59.5 48.5q42 29 149 135q6 117 7 244l-201 -96l17 -45l-60 -23l-56 149l59 22l17 -43l288 137v-51q0 -108 -4 -227q92 94 235 249l132 143l-79 -178q-39 -87 -71.5 -183t-54 -186t-19 -156t33.5 -84l9 -7q2 -2 5 -4.5t14.5 -7t25.5 -5.5
t38 3t52 16zM341 -27q21 47 34 222q-74 -70 -109 -94q-22 -15 -38 -30t-23.5 -25.5t-11 -20t-4 -13t-0.5 -4.5l1 -5l-1 -4q-8 -71 41 -85q29 -7 62.5 9t48.5 50zM889 572l66 -12l-11 -63l-130 24l24 129l63 -12z" />
    <glyph glyph-name="adieresis" unicode="&#xe4;" horiz-adv-x="1255" 
d="M482 -150q-47 0 -84 5t-78.5 22t-69 45.5t-46.5 80t-20 121.5v32l-98 -40l-27 66q55 22 124 49q-1 160 -1 400h70q0 -220 1 -372q323 125 411 145q4 165 21 197q15 33 51 57.5t76 31.5t78 -4q7 -3 14.5 -7t18.5 -12.5t19 -21.5t14 -30t5.5 -41.5t-8.5 -54.5
q-16 -61 -79.5 -109.5t-139.5 -65.5q-1 -53 -1 -164v-60q-1 -127 -67.5 -198.5t-183.5 -71.5zM254 183q0 -25 1 -58q1 -113 52 -158.5t175 -45.5q88 0 133.5 51t46.5 149v59q0 97 1 151q-95 -25 -409 -148zM844 623q-28 0 -56.5 -16t-38.5 -38q-10 -21 -14 -152q55 16 98 50
t52 70q18 69 -19 82q-10 4 -22 4zM1172 584l-140 26l25 140l70 -13l-13 -70l71 -13z" />
    <glyph glyph-name="edieresis" unicode="&#xeb;" horiz-adv-x="746" 
d="M491 -150h-251v493q-75 -43 -151 -72l-25 66q94 37 176 89v187q0 32 29 55.5t67 23.5q43 0 70 -33q28 -34 28 -94q0 -87 -124 -177l1 -467h180v-71zM336 622q-6 0 -11.5 -2.5t-9.5 -5t-5 -4.5v-132q53 48 53 87q0 51 -21 56q-3 1 -6 1zM683 584l-140 26l25 140l70 -13
l-13 -70l71 -13z" />
    <glyph glyph-name="odieresis" unicode="&#xf6;" horiz-adv-x="1167" 
d="M369 -150l-28 14q-69 32 -122 84q-103 100 -129 245.5t36 275.5q62 128 191 199t271 55q140 -16 249 -114t140 -236q33 -144 -27.5 -282t-189.5 -212l-34 61q108 62 159 179t24 239q-18 77 -65.5 141t-116.5 104.5t-147 49.5q-121 14 -229.5 -46t-161.5 -168
q-52 -110 -30 -233t109 -208q34 -33 75 -57l301 498l60 -36zM1092 581l-143 26l26 143l68 -12l-13 -75l74 -13z" />
    <glyph glyph-name="idieresis" unicode="&#xef;" horiz-adv-x="686" 
d="M271 -150q-16 0 -33 3l-10 4q-35 19 -54 49t-21.5 66.5t0.5 67.5t12 67q-8 2 -18 6q-15 7 -28 17.5t-23 23.5t-16.5 29t-9.5 33q-4 13 -4 32q1 67 32 136q10 22 22 41q37 55 70 92t70 65.5t89 54.5l32 -62q-67 -35 -110 -75t-92 -113q-8 -15 -16 -32q-26 -56 -26 -106
q0 -10 2 -19q6 -39 36 -52q5 -2 10 -3q2 5 4 11l22 54q15 38 24 55.5t17 31.5q32 56 71 99t94 66l5 1q34 9 61 -8q22 -14 27 -39l1 -7v-7q3 -33 -9 -53q-4 -13 -15 -33q-51 -100 -134 -163q-18 -13 -36 -24q-4 -2 -10 -7q-12 -9 -20 -13q-13 -6 -28 -14q-9 -6 -19 -10
q-13 -47 -17.5 -79.5t2.5 -65.5t32 -48q28 -4 55 7t52 36.5t42.5 49.5t40.5 61q4 6 10 18l5 9l62 -34l-5 -9q-7 -14 -12 -21q-18 -30 -30 -47t-37 -48t-47.5 -48.5t-55 -31.5t-66.5 -14zM441 425q-69 -30 -127 -133q-8 -13 -16 -29q-8 -15 -20 -45q3 2 5 3q14 8 28 18
q70 53 113 139q8 15 15 32q2 6 2 15zM609 584l-140 26l26 140l69 -13l-13 -70l71 -13z" />
    <glyph glyph-name="udieresis" unicode="&#xfc;" horiz-adv-x="1018" 
d="M213 -150q-19 0 -37 5q-41 11 -67.5 49t-20.5 100q-1 9 0 18t7 25t16.5 32.5t31.5 37t50 39.5q41 28 148 133q5 116 6 240l-212 -101l-28 59l306 146v-52q0 -107 -4 -223q98 100 232 245l134 147l-80 -182q-39 -87 -71 -182t-53.5 -184t-19.5 -154.5t33 -83.5l9 -7
q2 -2 6 -5t17.5 -7.5t30 -4.5t45 7.5t61.5 23.5l29 -58q-50 -25 -93 -33.5t-71.5 -1.5t-44 14.5t-25.5 17.5q-33 20 -48 64t-13.5 96.5t14.5 119t30 123t39 118.5q-92 -97 -165 -170q-13 -245 -43 -312q-13 -30 -36.5 -52.5t-53 -34.5t-59.5 -12zM335 193q-71 -68 -106 -91
q-22 -15 -38 -30t-23 -25t-11 -20t-4 -12.5v-4.5l1 -6l-1 -3q-8 -70 40 -83q29 -8 61.5 8t47.5 49q21 47 33 218zM937 531l-130 23l24 130l65 -11l-12 -66l65 -12z" />
    <glyph glyph-name="uni01F9" unicode="&#x1f9;" horiz-adv-x="886" 
d="M660 415l-1 -496h26v-69h-122v69h27l1 495q0 5 -1 11.5t-4.5 18.5t-10 22t-16.5 20t-26.5 15.5t-37.5 5.5q-25 0 -44 -9t-28.5 -21t-15 -27.5t-6.5 -23.5t-1 -14l1 -344q-1 -3 0 -13t-2 -30.5t-7.5 -41.5t-16.5 -45t-28 -42q-44 -46 -114 -46q-85 0 -119 70
q-20 48 -19 97t16 92l-19 8l28 63l100 -45l-28 -63l-18 8q-9 -30 -10 -63.5t12 -66.5q16 -31 57 -31q40 0 64 24q17 19 26 51.5t9.5 46.5t0.5 24l-2 348q1 19 5.5 39t17 42.5t30 40t46.5 29.5t65 12t65.5 -11.5t47 -29t29.5 -40t17 -42.5t6 -38zM486 750q3 -1 8.5 -2.5
t19.5 -6t28.5 -10t35 -15.5t41 -21t44.5 -27.5t46.5 -34.5t46 -42t44.5 -51l-54 -42q-32 41 -73 75.5t-72.5 53t-65.5 33t-46 18.5t-19 5z" />
    <glyph glyph-name="uni01F8" unicode="&#x1f8;" horiz-adv-x="886" 
d="M660 415l-1 -496h26v-69h-122v69h27l1 495q0 5 -1 11.5t-4.5 18.5t-10 22t-16.5 20t-26.5 15.5t-37.5 5.5q-25 0 -44 -9t-28.5 -21t-15 -27.5t-6.5 -23.5t-1 -14l1 -344q-1 -3 0 -13t-2 -30.5t-7.5 -41.5t-16.5 -45t-28 -42q-44 -46 -114 -46q-85 0 -119 70
q-20 48 -19 97t16 92l-19 8l28 63l100 -45l-28 -63l-18 8q-9 -30 -10 -63.5t12 -66.5q16 -31 57 -31q40 0 64 24q17 19 26 51.5t9.5 46.5t0.5 24l-2 348q1 19 5.5 39t17 42.5t30 40t46.5 29.5t65 12t65.5 -11.5t47 -29t29.5 -40t17 -42.5t6 -38zM486 750q3 -1 8.5 -2.5
t19.5 -6t28.5 -10t35 -15.5t41 -21t44.5 -27.5t46.5 -34.5t46 -42t44.5 -51l-54 -42q-32 41 -73 75.5t-72.5 53t-65.5 33t-46 18.5t-19 5z" />
    <glyph glyph-name="nacute" unicode="&#x144;" horiz-adv-x="814" 
d="M685 -81h30v-69h-129v69h30l1 520q0 6 -1 14t-7.5 24.5t-16 29t-30 22.5t-46.5 10q-18 0 -32.5 -4t-24 -11t-17.5 -14.5t-13 -17.5t-8 -18t-4.5 -16.5t-2 -12.5t-0.5 -7l1 -362q-1 -2 0 -13t-2 -32t-8 -42.5t-17 -47t-30 -43.5q-45 -48 -118 -48q-87 0 -123 73
q-14 28 -17.5 65.5t1 71t13.5 61.5l-21 9l29 62l104 -47l-28 -62l-21 9q-4 -14 -7 -31t-4 -36.5t2.5 -38.5t10.5 -34q17 -33 61 -33q43 0 68 26q19 20 28.5 54t10 50t-0.5 25l-1 365q1 19 6 40t17.5 44.5t31 41.5t48.5 30t67.5 12t67.5 -12t48.5 -30t31 -41.5t17.5 -44
t6 -39.5zM526 683q-6 -1 -19.5 -5t-48.5 -19.5t-69 -35.5t-76.5 -56t-76.5 -79l-54 43q38 48 86 88.5t85.5 62.5t77.5 39.5t55 22t25 6.5z" />
    <glyph glyph-name="Nacute" unicode="&#x143;" horiz-adv-x="814" 
d="M685 -81h30v-69h-129v69h30l1 520q0 6 -1 14t-7.5 24.5t-16 29t-30 22.5t-46.5 10q-18 0 -32.5 -4t-24 -11t-17.5 -14.5t-13 -17.5t-8 -18t-4.5 -16.5t-2 -12.5t-0.5 -7l1 -362q-1 -2 0 -13t-2 -32t-8 -42.5t-17 -47t-30 -43.5q-45 -48 -118 -48q-87 0 -123 73
q-14 28 -17.5 65.5t1 71t13.5 61.5l-21 9l29 62l104 -47l-28 -62l-21 9q-4 -14 -7 -31t-4 -36.5t2.5 -38.5t10.5 -34q17 -33 61 -33q43 0 68 26q19 20 28.5 54t10 50t-0.5 25l-1 365q1 19 6 40t17.5 44.5t31 41.5t48.5 30t67.5 12t67.5 -12t48.5 -30t31 -41.5t17.5 -44
t6 -39.5zM526 683q-6 -1 -19.5 -5t-48.5 -19.5t-69 -35.5t-76.5 -56t-76.5 -79l-54 43q38 48 86 88.5t85.5 62.5t77.5 39.5t55 22t25 6.5z" />
    <glyph glyph-name="uni1EE4" unicode="&#x1ee4;" 
d="M721 -1l63 27l59 -139l-63 -27l-15 37q-42 -17 -79 -21t-61 3t-37.5 14.5t-23.5 15.5q-111 69 -20 386q17 58 40 123q-88 -93 -157 -161q-13 -242 -43 -308q-20 -45 -61 -72t-88 -27q-19 0 -37 5q-41 11 -67.5 49t-20.5 100q-1 11 1.5 24.5t11.5 34t32.5 45t58.5 48.5
q41 27 145 130q5 112 7 232l-190 -90l16 -41l-65 -25l-55 145l64 25l15 -40l284 135v-54q0 -103 -4 -214q111 114 225 237l141 154l-85 -191q-29 -66 -55.5 -138.5t-47.5 -148t-31.5 -138t-5 -108.5t29.5 -59l6 -4l4 -5l1 -1t4.5 -3t7 -3.5t10 -3.5t13.5 -3t16.5 -1t20.5 2
t24.5 5.5t27.5 9.5zM321 -24q20 45 32 209q-68 -64 -101 -86q-21 -15 -36.5 -29.5t-22.5 -24.5t-10.5 -19t-4 -12t-0.5 -4l1 -6l-1 -4q-7 -67 38 -79q28 -7 59.5 8t45.5 47zM928 496l-111 -255l111 -255l-63 -27l-122 282l122 282z" />
    <glyph glyph-name="Aogonek" unicode="&#x104;" horiz-adv-x="1130" 
d="M985 742q8 -3 15.5 -7t19 -13t19.5 -22.5t14.5 -31.5t6 -44t-8.5 -57q-30 -114 -235 -141q-2 -73 -2 -230l-1 -59q0 -44 -8 -83t-24 -71t-39 -57t-52.5 -41.5t-65 -25.5t-77.5 -9q-49 0 -88.5 5t-83.5 23t-73.5 48.5t-49.5 85.5t-21 129q-2 106 -2 279q-45 0 -88 1v-53
h-68v164h68v-43q42 0 87 -1v190h-85v68h238v-68h-84v-190q366 -2 452 1q5 134 21 163q24 54 91 82t124 8zM745 196q1 146 2 225q-97 -4 -450 -2q1 -175 2 -277q2 -124 57.5 -174t190.5 -50q97 1 147 56.5t51 162.5v59zM985 585q20 78 -23 93q-11 4 -25 4q-20 0 -42 -8
t-39 -22t-25 -30q-9 -20 -13 -126q149 22 167 89zM1004 69l12 -67l-80 -15l14 -80l-67 -12l-27 148z" />
    <glyph glyph-name="Eogonek" unicode="&#x118;" horiz-adv-x="928" 
d="M604 748v-834h59v-66h-184v66h59v653q-74 -59 -165 -59q-44 -1 -90 19q-60 -23 -145 -12v-31h-66v139h66v-41q44 -7 79 -3q-6 11 -7 21q-6 49 17 78t57 37q28 6 54 -9q25 -17 32.5 -46t-4.5 -58q-6 -14 -16 -26q16 -2 23 -2q102 0 171 94zM304 627q8 17 -1 23h-4h-1
q-26 -6 -22 -42q1 -2 7 -6q16 11 21 25zM865 -6l-77 -14l14 -77l-65 -12l-26 142l142 26z" />
    <glyph glyph-name="uni01EA" unicode="&#x1ea;" horiz-adv-x="1207" 
d="M986 395q31 -136 -20.5 -267t-164.5 -210l19 -22l-52 -46l-96 109l52 46l30 -35q100 66 145.5 179t19.5 231q-27 118 -120 201t-213 97q-80 9 -157.5 -15t-139.5 -77t-97 -125q-54 -111 -31.5 -235.5t110.5 -209.5q35 -34 76 -58l305 503l59 -36l-338 -557l-28 13
q-68 32 -122 85q-104 101 -130.5 247.5t36.5 277.5q63 130 192.5 201.5t272.5 54.5q142 -16 251.5 -114.5t140.5 -237.5zM1150 -8l-82 -15l15 -81l-68 -12l-27 149l149 27z" />
    <glyph glyph-name="Iogonek" unicode="&#x12e;" horiz-adv-x="874" 
d="M473 106l34 62l127 -68l-34 -62l-33 18l-1 -2q-20 -32 -32.5 -50.5t-40 -51.5t-51.5 -52t-59 -34.5t-71 -15.5q-17 0 -35 3l-11 4q-30 16 -49 42t-26 52.5t-6.5 60.5t4.5 60t12 57q-12 3 -22 7q-33 14 -55 43.5t-28 66.5q-3 15 -4 34q1 72 35 147q10 21 23 43
q37 56 69.5 94t69 67.5t84.5 55.5l-14 38l65 25l49 -129l-65 -25l-10 25q-58 -34 -99.5 -75.5t-89.5 -112.5q-10 -17 -18 -35q-28 -61 -29 -117q1 -11 3 -22q7 -44 41 -58q7 -3 15 -4l28 72q17 42 27 61q8 16 19 34q34 61 76 107.5t102 70.5l4 2q36 9 64 -9q22 -14 28 -40
v-7q0 -2 1 -8q2 -35 -9 -55q-5 -15 -17 -37q-55 -109 -145 -177q-19 -14 -39 -25q-3 -2 -10 -8q-14 -9 -22 -14q-15 -7 -31 -15q-11 -7 -22 -12q-8 -30 -12.5 -53t-7 -50t0 -46.5t12.5 -37.5t27 -29q32 -4 62 8t57 39.5t47 54.5t44 66zM314 243l-2 -5q9 6 14 9q15 9 31 21
q77 58 125 151q9 18 16 36q3 7 2 20v1h-4q-76 -33 -141 -147q-9 -16 -17 -31q-8 -17 -24 -55zM800 273l-85 -15l16 -85l-69 -12l-28 153l153 28z" />
    <glyph glyph-name="Uogonek" unicode="&#x172;" horiz-adv-x="999" 
d="M895 -119l-55 -24l-19 44q-45 -19 -83.5 -24t-63.5 2.5t-38.5 15t-22.5 16.5q-9 6 -17.5 15t-18.5 29.5t-16 47t-7 70t6.5 95.5t28 126.5t52.5 160.5q-101 -107 -180 -186q-13 -251 -44 -320q-20 -45 -61.5 -72t-87.5 -27q-19 0 -37 5q-41 11 -67.5 49t-20.5 100
q-1 11 1.5 24t11.5 33.5t33 46t60 49.5q43 29 153 138q6 122 7 253l-210 -100l18 -48l-56 -21l-58 151l56 21l18 -47l292 139v-48q0 -114 -4 -237q121 124 244 258l123 134l-74 -167q-39 -89 -72.5 -187t-55 -190t-19 -160t34.5 -86l9 -7q1 -2 5 -4.5t16 -7t27 -6t40 3
t54 16.5l-19 46l55 24zM362 -27q22 50 35 234q-78 -75 -115 -100q-23 -15 -40 -31t-24 -27t-11 -21t-4.5 -13t0.5 -5l1 -5l-1 -4q-8 -74 43 -88q31 -9 66 8t50 52zM819 215l11 -59l-71 -13l13 -70l-59 -11l-23 129z" />
    <glyph glyph-name="aogonek" unicode="&#x105;" horiz-adv-x="1126" 
d="M526 -138q-49 0 -88 5t-82.5 23t-72.5 48t-48.5 84.5t-20.5 127.5q0 13 -1 36q-52 -21 -106 -42l-26 65q79 32 132 53q-2 170 -2 424h71q0 -234 1 -397q347 135 439 155q4 175 22 209q24 53 90.5 81t122.5 8q8 -2 16 -6.5t19 -13.5t19.5 -22.5t14.5 -31t5.5 -43.5
t-8.5 -57q-7 -26 -23.5 -51t-39 -46t-50.5 -38.5t-58 -29.5t-61 -19q-1 -58 -1 -178v-60q-1 -133 -71 -208.5t-192 -75.5h-1zM284 214v-63q2 -121 56 -169.5t186 -48.5q94 0 143 54.5t50 158.5v61q1 101 1 165q-99 -27 -436 -158zM909 679q-19 0 -40 -7.5t-38 -20.5t-24 -29
q-10 -23 -14 -165q58 17 105 53.5t57 75.5q19 75 -22 90q-10 3 -24 3zM870 -150l-27 146l147 27l12 -70l-77 -14l14 -76z" />
    <glyph glyph-name="eogonek" unicode="&#x119;" horiz-adv-x="842" 
d="M510 -138h-265v524q-79 -46 -162 -78l-25 66q100 39 187 95v200q0 32 30 56.5t70 24.5q45 0 73 -34q29 -35 29 -99q0 -91 -131 -186v-498h194v-71zM345 679q-10 0 -18.5 -4.5t-10.5 -8.5v-145q60 53 60 96q0 56 -25 62h-6zM646 -150l-27 146l147 27l12 -70l-77 -14
l14 -76z" />
    <glyph glyph-name="uni01EB" unicode="&#x1eb;" horiz-adv-x="1212" 
d="M384 -115l-29 14q-67 31 -119 82q-103 100 -128.5 243.5t36.5 271.5q61 127 188 197t267 54q139 -16 246.5 -112.5t138.5 -232.5q32 -143 -28 -279t-186 -209l-36 61q107 62 157.5 176.5t23.5 234.5q-26 115 -116.5 196t-207.5 95q-118 14 -225 -45t-159 -166
q-51 -108 -29.5 -229t107.5 -205q33 -32 72 -55l297 490l61 -37zM1003 -150l-26 142l142 25l12 -69l-72 -13l13 -72z" />
    <glyph glyph-name="iogonek" unicode="&#x12f;" horiz-adv-x="892" 
d="M324 -135q-18 0 -37 3l-10 4q-32 17 -51.5 44t-27 54.5t-7 63t5 62.5t12.5 60q-12 2 -24 7q-34 15 -56.5 45.5t-28.5 68.5q-4 14 -4 35q0 75 36 153q11 23 24 45q61 92 117 144t141 96l33 -63q-53 -27 -90 -55t-70 -65.5t-71 -94.5q-10 -17 -20 -37q-29 -64 -29 -122
q0 -12 3 -22q7 -47 43 -62q8 -4 17 -5l29 75q18 45 28 64q10 20 20 36q10 19 20 34.5t23.5 34.5t28 35t32 31t38 28t43.5 22q41 11 70 -7q23 -15 28 -41l1 -7q0 -2 1 -9q2 -35 -10 -56q-6 -16 -17 -39q-57 -112 -151 -183q-20 -15 -40 -27q-4 -2 -12 -8q-13 -10 -22 -14
l-32 -16q-11 -8 -23 -13q-11 -41 -16.5 -70.5t-6.5 -62t10 -56.5t34 -38q33 -4 64.5 8.5t60 41.5t49.5 57t47 70q3 6 13 23l5 8l62 -34l-5 -9q-9 -15 -14 -25q-15 -23 -23.5 -36.5t-27 -38.5t-33 -41t-36.5 -36t-43 -31.5t-47.5 -20t-53.5 -8.5zM518 518q-2 0 -4 -1
q-77 -32 -146 -153q-9 -15 -18 -33q-9 -17 -25 -58l-4 -8q11 8 18 12q16 10 32 21q81 61 131 159q8 17 17 38q3 6 2 20v1v2h-3zM665 -150l-28 155l155 28l12 -70l-84 -16l15 -84z" />
    <glyph glyph-name="uogonek" unicode="&#x173;" horiz-adv-x="1036" 
d="M218 -139q-18 0 -36 5q-41 11 -67 48.5t-20 99.5q-1 10 2 23t11.5 33.5t32 45t59.5 48.5q42 28 149 135q6 118 7 246l-217 -103l-26 55l304 144v-48q0 -111 -4 -230q125 128 237 251l125 136l-75 -169q-38 -88 -70.5 -183.5t-54 -186t-19 -156.5t33.5 -84l9 -7q2 -2 6 -5
t18 -7.5t31 -5t46 7t63 24.5l27 -54q-50 -25 -93.5 -33.5t-71.5 -1.5t-43 14.5t-25 17.5q-34 20 -48.5 65.5t-12.5 99t16 122t31.5 126t40.5 119.5q-98 -103 -175 -180q-13 -247 -43 -314q-20 -44 -61 -71t-87 -27zM344 209q-75 -72 -110 -95q-23 -16 -39.5 -31.5
t-23.5 -25.5t-11 -20t-4 -13v-5l1 -5l-1 -4q-8 -72 42 -85q29 -8 63 8t49 51q22 47 34 225zM862 -150l-23 128l128 23l11 -59l-69 -13l13 -68z" />
    <glyph glyph-name="aacute" unicode="&#xe1;" horiz-adv-x="1020" 
d="M522 -150q-42 0 -75 4.5t-70 19.5t-62 41t-41.5 72t-17.5 109q0 8 -1 23q-44 -17 -82 -33l-26 64q48 19 108 43q-1 145 -1 352h68q0 -188 1 -325q278 108 358 126q4 145 19 174q21 45 79 69.5t106 6.5q5 -2 11 -4.5t14.5 -9t15 -14t13 -19.5t9.5 -26.5t2 -34.5t-7 -43
q-10 -36 -40 -69t-70.5 -55t-83.5 -33q-1 -47 -1 -144v-52q-1 -113 -60.5 -177.5t-165.5 -64.5zM324 146v-49q2 -99 46 -138.5t152 -39.5q77 0 117 44t40 130v51q1 90 1 132q-86 -25 -356 -130zM843 535q-23 0 -48 -13.5t-33 -32.5q-9 -19 -12 -129q46 14 82.5 43.5
t44.5 58.5q15 59 -15 70q-8 3 -19 3zM104 518l-54 42q33 42 74.5 77t74 54t67 34t48 19t21.5 6l16 -67q-3 0 -9.5 -2t-23 -8t-34 -14t-41.5 -22t-46.5 -30t-47 -39.5t-45.5 -49.5z" />
    <glyph glyph-name="eacute" unicode="&#xe9;" horiz-adv-x="706" 
d="M414 -81h157v-69h-226v435q-65 -37 -129 -61l-25 64q82 31 154 77v164q0 29 26.5 51t61.5 22q40 0 65 -30q25 -31 25 -86q0 -78 -110 -158zM413 525v-109q42 40 42 70q0 42 -17 47q-2 1 -5 1q-15 0 -20 -9zM382 750l16 -67q-6 -1 -17 -4.5t-41 -16.5t-59 -30t-65.5 -47.5
t-64.5 -66.5l-54 42q33 42 74.5 77t74 54t67 34t48 19t21.5 6z" />
    <glyph glyph-name="oacute" unicode="&#xf3;" 
d="M393 -150l-28 13q-58 28 -103 72q-89 86 -111 210.5t31 235.5q53 110 163.5 171t231.5 47q120 -14 213 -97.5t120 -201.5q15 -62 7.5 -124.5t-31 -118t-65.5 -102.5t-96 -78l-34 58q91 53 133.5 150.5t19.5 199.5q-22 97 -99 166t-176 80q-100 12 -191 -38t-135 -141
q-44 -92 -25.5 -194.5t91.5 -173.5q26 -26 59 -45l253 417l58 -35zM134 521l-54 42q24 30 52 56.5t53 44.5t52 33.5t46.5 24.5t39 16t26.5 9t12 3l15 -66q-5 -1 -16 -4.5t-40.5 -16.5t-58 -29.5t-64 -46.5t-63.5 -66z" />
    <glyph glyph-name="iacute" unicode="&#xed;" horiz-adv-x="702" 
d="M332 -150q-15 0 -30 3l-10 3q-98 54 -57 223l-14 4q-28 12 -46.5 37.5t-23.5 56.5q-3 11 -4 29q1 60 29 122q9 18 19 36q48 72 93 113.5t111 75.5l32 -61q-59 -30 -97 -65.5t-81 -99.5q-7 -13 -14 -28q-23 -49 -23 -93q0 -8 2 -16q5 -33 30 -43q3 -2 6 -2l21 53
q14 35 23 51q8 15 15 28q64 113 148 147q35 10 61 -6q20 -13 25 -37l1 -12q2 -30 -8 -48q-4 -12 -14 -30q-45 -89 -120 -146q-15 -11 -31 -21l-9 -6q-11 -8 -18 -12q-14 -6 -25 -12q-8 -5 -16 -9q-11 -40 -15 -68t2 -56t26 -42q25 -3 48.5 7t44.5 32.5t37 43.5t35 52
q5 9 11 20l3 4l60 -33l-3 -5q-7 -13 -12 -21q-16 -26 -27 -42t-33.5 -43t-42.5 -43t-49.5 -28.5t-59.5 -12.5zM480 357q-57 -26 -108 -114q-6 -12 -14 -26q-6 -11 -14 -31q11 6 21 14q62 47 100 122q7 14 13 28q1 3 2 7zM143 517l-54 43q33 42 74.5 77t74 54t67.5 34t48 19
t21 6l16 -67q-6 -1 -17 -4.5t-41 -16.5t-59 -30t-65 -47.5t-65 -67.5z" />
    <glyph glyph-name="uacute" unicode="&#xfa;" 
d="M335 -150q-19 0 -36 5q-40 11 -66 47.5t-21 97.5q-1 11 2 24t11.5 33t31.5 44t57 47q40 26 140 126q5 107 7 223l-199 -94l-30 62l297 141v-55q0 -97 -3 -205q76 79 216 229l141 153l-85 -190q-28 -64 -53.5 -134.5t-46 -143t-30.5 -133.5t-5 -105t28 -57l10 -8
q3 -3 5.5 -5t16 -6t28.5 -4t41.5 7t57.5 22l31 -61q-39 -19 -75 -28t-59.5 -8t-44.5 7.5t-31 12.5t-18 14q-38 24 -51.5 78.5t-4 127t27 140t44.5 142.5q-83 -87 -148 -152q-12 -233 -41 -298q-19 -43 -59.5 -69.5t-85.5 -26.5zM448 173q-64 -61 -96 -82q-20 -14 -35 -28
t-21.5 -23t-10.5 -18t-4 -12v-4l1 -6l-1 -3q-7 -64 36 -76q26 -7 56.5 7.5t44.5 45.5q19 43 30 199zM171 518l-54 42q33 42 74.5 77t74 54t67 34t48 19t21.5 6l16 -67q-6 -1 -17 -4.5t-41 -16.5t-59 -30t-65 -47.5t-65 -66.5z" />
    <glyph glyph-name="agrave" unicode="&#xe0;" horiz-adv-x="1080" 
d="M435 -150q-40 0 -72 4.5t-68 19t-60 39.5t-40 69.5t-17 104.5v21q-40 -16 -78 -31l-25 64q52 21 102 40l-1 337h68q0 -181 1 -310q263 102 342 121q3 138 18 166q20 44 76 67.5t103 6.5q6 -2 13 -6t16.5 -11t16.5 -18.5t12.5 -26.5t5 -37t-7.5 -47q-13 -53 -67 -94.5
t-119 -57.5q-1 -46 -1 -139v-48q0 -73 -26.5 -125.5t-75 -80.5t-116.5 -28zM246 135v-47q2 -94 44 -131.5t145 -37.5q73 0 111 42t38 123l1 48v126q-84 -24 -339 -123zM743 507q-22 0 -45.5 -12.5t-31.5 -30.5q-7 -18 -10 -121q43 14 77 41.5t41 55.5q14 55 -13 65
q-8 2 -18 2zM959 525q-27 35 -62 64t-62 45.5t-56.5 29t-39 15.5t-15.5 4l15 67q8 -2 20.5 -5.5t46 -18t65 -33t71.5 -52.5t71 -74z" />
    <glyph glyph-name="egrave" unicode="&#xe8;" horiz-adv-x="750" 
d="M494 -150h-235v383q-67 -39 -136 -65l-25 64q86 33 161 81v172q0 30 27.5 52.5t63.5 22.5q41 0 66 -31q26 -32 26 -89q0 -81 -114 -164v-357h166v-69zM350 491q-7 0 -14 -3.5t-9 -6.5v-117q47 43 47 76q0 46 -19 50q-3 1 -5 1zM596 510q-30 38 -68 70t-68 50t-61.5 31.5
t-43 17t-17.5 4.5l16 67q8 -2 22 -6t50 -19.5t70 -35.5t77 -56.5t77 -80.5z" />
    <glyph glyph-name="ograve" unicode="&#xf2;" horiz-adv-x="1023" 
d="M319 -150l-28 13q-58 28 -103 72q-89 86 -111 210.5t31 235.5q53 110 163.5 171t231.5 47q120 -14 213 -97.5t120 -201.5q28 -124 -23.5 -242t-161.5 -181l-34 59q91 52 133.5 149.5t19.5 199.5q-22 97 -99 166t-176 80q-100 12 -191 -38t-135 -141q-44 -92 -25.5 -194.5
t91.5 -173.5q26 -26 59 -45l253 417l58 -35zM916 521q-28 36 -64 66t-64 46.5t-57.5 29.5t-40.5 16.5t-17 4.5l16 66q8 -2 21 -6t47 -18.5t66 -33.5t73 -53.5t73 -75.5z" />
    <glyph glyph-name="igrave" unicode="&#xec;" horiz-adv-x="776" 
d="M308 -150q-15 0 -30 3l-10 3q-98 54 -57 223l-14 4q-28 12 -46.5 37.5t-23.5 56.5q-3 11 -4 28q1 61 29 122q9 19 19 37q48 72 93 113.5t111 75.5l32 -61q-40 -21 -69 -42.5t-54.5 -50t-54.5 -72.5q-8 -13 -14 -28q-23 -49 -23 -93q0 -8 2 -15q5 -34 30 -44q3 -2 6 -2
l21 54q14 34 22 50q9 15 16 28q64 113 148 147q35 10 60 -6q21 -13 26 -37l1 -12q2 -30 -8 -48q-4 -12 -14 -30q-45 -90 -120 -146q-15 -11 -31 -21q-4 -2 -9 -6q-11 -8 -18 -11q-11 -6 -25 -13q-8 -5 -16 -9q-11 -40 -15 -68t2 -56t26 -42q25 -3 48 7t44.5 32t37 43.5
t35.5 52.5q3 5 11 19l3 6l60 -34l-3 -5l-12 -21q-17 -26 -27.5 -42t-33 -43t-42.5 -43t-49.5 -28.5t-59.5 -12.5zM455 357q-56 -26 -107 -114q-6 -12 -14 -26q-6 -11 -14 -31q11 7 21 14q62 47 100 122q7 14 13 28q1 3 1 7zM610 517q-45 59 -110 101t-92.5 52t-43.5 13
l16 67q4 -1 11.5 -3t27 -9t39.5 -16t47.5 -25t53 -34.5t54 -45.5t52.5 -57z" />
    <glyph glyph-name="ugrave" unicode="&#xf9;" 
d="M618 -42q2 -2 5.5 -4t17 -6.5t29.5 -4.5t44 7t60 23l31 -61q-50 -25 -93 -33t-71.5 -1.5t-44 14.5t-25.5 17q-41 25 -59.5 71t-15 103t14.5 107t30 104q-63 -43 -111 -77q-14 -207 -41 -268q-19 -45 -60.5 -72t-88.5 -27q-19 0 -37 5q-41 11 -67.5 49t-20.5 101
q-1 8 0 17.5t7 25.5t16.5 32t31.5 36.5t49 39.5q44 30 144 99q7 123 8 266l-207 -99l-30 62l306 145v-54q0 -135 -6 -271q147 101 162 112l105 73l-55 -116q-19 -40 -37.5 -94t-34 -120t-8 -119.5t41.5 -72.5zM327 -23q19 42 30 191q-65 -46 -99 -69q-22 -14 -37.5 -28.5
t-22.5 -24.5t-11 -19t-4 -12v-5l1 -5l-1 -4q-7 -68 38 -80q28 -7 59.5 8t46.5 48zM592 750q8 -2 22 -6t49.5 -19.5t69.5 -35.5t77 -56t76 -80l-54 -42q-29 38 -66.5 69.5t-68 49.5t-61 31.5t-42.5 17t-18 4.5z" />
    <glyph glyph-name="NameMe.187" unicode="&#x301;" 
d="M630 749l16 -67q-5 -1 -16 -4.5t-40 -15.5t-57 -28.5t-63 -46t-62 -65.5l-54 43q32 40 72 74t72 53t65.5 33.5t46 18t20.5 5.5z" />
    <glyph glyph-name="NameMe.188" unicode="&#x300;" 
d="M368 748q8 -2 21 -6t47 -18.5t66 -34t73 -54t73 -75.5l-54 -42q-28 36 -64 66t-64 47t-57.5 29.5t-40 16t-16.5 4.5z" />
    <glyph glyph-name="uni1ECA" unicode="&#x1eca;" horiz-adv-x="970" 
d="M456 107l34 65l137 -73l-35 -65l-36 19v0q-55 -87 -96 -128q-35 -35 -71 -53q-42 -22 -87 -22q-17 0 -35 3h-1l-10 4q-30 16 -48.5 41.5t-26 51.5t-7.5 59.5t4 60t12 57.5q-11 2 -21 7q-32 13 -54.5 42.5t-27.5 66.5q-4 15 -5 35v0q1 72 35 146q10 22 23 44
q54 81 102.5 128.5t117.5 85.5l-16 42l69 26l53 -139l-69 -26l-10 28q-57 -33 -97.5 -74t-87.5 -110q-9 -17 -18 -36q-27 -60 -28 -114q0 -11 3 -21q7 -43 39 -56q6 -3 13 -4l27 71q17 40 26 59q9 17 19 34q34 61 76 107t101 71h1q14 3 27 3q24 0 42 -11q23 -14 29 -41v-1
v-6q0 -2 1 -7v-1q2 -35 -9 -55q-6 -17 -17 -38q-55 -107 -144 -175q-19 -13 -39 -25v-1q-4 -2 -9 -6q-1 0 -1 -1q-13 -9 -22 -13q-14 -8 -30 -15q-11 -7 -21 -12q-10 -37 -15 -63.5t-6 -57.5t8.5 -53.5t30.5 -35.5q8 -1 15 -1q53 0 106 52q36 36 84 112zM307 242q5 3 8 5
q15 9 31 20q75 58 122 150q9 16 16 35l1 1q2 5 1 17h-2q-72 -31 -137 -144q-9 -16 -17 -32q-8 -15 -22 -51zM876 639l-140 -321l140 -322l-68 -30l-153 352l2 2l151 349z" />
    <glyph glyph-name="dieresis" unicode="&#xa8;" horiz-adv-x="747" 
d="M432 582l-142 26l26 142l74 -13l-12 -68l68 -13z" />
    <glyph glyph-name="asterisk" unicode="*" horiz-adv-x="421" 
d="M372 638l-90 -52l90 -51l-35 -61l-90 52v-104h-70v104l-90 -52l-35 61l90 51l-90 52l35 61l90 -52v104h70v-104l90 52z" />
    <glyph glyph-name="Aacuteupper" unicode="&#xc1;" horiz-adv-x="1117" 
d="M971 611q7 -2 14 -5.5t17 -12t17 -19t12.5 -27.5t5.5 -38q0 -11 -1.5 -24t-5.5 -27q-26 -99 -198 -123q-1 -62 -1 -186v-52q-1 -116 -62 -181.5t-168 -65.5q-43 0 -76.5 4.5t-71.5 20t-63.5 41.5t-42.5 73t-18 111q-1 66 -1 229q-14 0 -35 0.5t-28 0.5v-39h-68v138h68
v-31h62v148h-66v69h200v-69h-65v-149h104.5h105.5q119 0 159 1q4 109 18 135q17 37 59.5 61t86.5 24q11 0 21.5 -2t20.5 -5zM762 149q0 81 2 181q-59 -2 -197 -2h-44t-43.5 0.5t-42.5 0.5h-41q0 -38 0.5 -116t1.5 -112q1 -101 46.5 -141.5t156.5 -40.5q159 0 161 178v52z
M964 475q5 19 5 33t-5 24t-16 14q-9 3 -19 3q-25 0 -50 -13.5t-34 -33.5q-6 -14 -11 -97q116 19 130 70zM360 717l8 -34q-7 0 -42.5 -13t-100 -55.5t-110.5 -101.5l-54 42q111 143 292 195l15 -67z" />
    <glyph glyph-name="Eacuteupper" unicode="&#xc9;" horiz-adv-x="898" 
d="M747 -87h56v-62h-175v62h56v568q-64 -49 -143 -50q-41 0 -79 17q-36 -13 -83 -13q-20 0 -42 2v-31h-63v136h63v-42q22 -3 42 -3q11 0 22 1q-4 8 -5 16q-5 44 17 73q18 24 49 31q7 1 14 1q19 0 35 -9h1q22 -15 29 -42q7 -26 -4 -53q-5 -10 -12 -20q8 -1 16 -1q89 0 149 82
l57 75v-738zM479 539q5 12 0 17h-3h-1q-20 -4 -17 -33l4 -4q12 10 17 20zM384 690l-6 -2q-3 0 -9.5 -2t-23.5 -8.5t-35.5 -14.5t-43.5 -22.5t-48 -31t-49 -41t-47 -52.5l-4 -5l-50 38l4 5q34 43 76.5 79t76 56t68.5 35t48.5 19t22.5 6l6 2z" />
    <glyph glyph-name="Oacuteupper" unicode="&#xd3;" horiz-adv-x="1105" 
d="M964 314q26 -113 -17 -223q-41 -108 -134 -175l18 -21l-52 -46l-94 106l53 46l29 -32q77 53 113 141q38 93 16 189q-11 47 -36.5 89.5t-61 74.5t-80.5 52.5t-93 26.5q-17 2 -35 2q-90 0 -168 -49q-79 -49 -118 -130q-43 -90 -25 -191.5t90 -170.5q26 -25 56 -44l255 421
l60 -37l-288 -476l-29 14q-57 27 -103 71q-88 86 -110 209.5t31 234.5q48 99 144 159q96 59 206 59q21 0 42 -2q120 -14 212.5 -97t118.5 -201zM421 678q-6 -1 -17.5 -4.5t-42.5 -17t-60.5 -31t-66.5 -48.5t-66 -69l-7 -8l-55 43l6 8q20 25 42 47.5t42.5 39.5t43 32
t41.5 25.5t38.5 19.5t33 14.5t26.5 9.5t18 5.5t8 2.5l10 2l16 -68z" />
    <glyph glyph-name="Iacuteupper" unicode="&#xcd;" horiz-adv-x="691" 
d="M482 116l114 -61l-30 -55l-30 16q-43 -70 -77 -104q-62 -61 -130 -61q-14 0 -29 2h-1l-8 3v1q-96 52 -55 220q-8 2 -16 5q-18 8 -32 21.5t-23.5 31.5t-12.5 38q-3 12 -4 28v0q1 59 29 120q8 18 18 35l1 1q44 66 83.5 104.5t95.5 70.5l-13 34l58 22l44 -116l-58 -22l-9 22
q-45 -26 -78 -59t-70 -90q-8 -13 -15 -28q-23 -49 -23 -93q0 -9 2 -17q6 -34 31 -45q5 -2 10 -3l22 57q13 33 21 49q8 14 15 28q63 111 146 145v0q12 3 23 3q20 0 35 -9q19 -13 23 -35l1 -1v-5v-6q3 -29 -7 -46q-5 -13 -14 -30q-44 -88 -118 -144q-16 -11 -31 -21
q-4 -2 -8 -5h-1q-11 -8 -18 -12q-13 -7 -25 -12q-8 -5 -16 -9q-11 -41 -15 -68.5t2 -57.5t27 -44q6 -1 12 -1q43 0 79 35.5t74 97.5l-28 15zM335 175l4 2q12 7 25 16q61 47 100 122q7 14 13 29q2 4 1 13v-1q-59 -24 -111 -117q-7 -12 -14 -25t-18 -39zM401 688
q-6 -1 -17.5 -4.5t-42.5 -17t-61 -31t-67.5 -49.5t-67.5 -70l-4 -5l-49 38l4 5q24 32 53 59.5t55 46.5t54.5 35t48.5 25t40 16.5t27.5 9.5t12.5 3l6 2l15 -61z" />
    <glyph glyph-name="Uacuteupper" unicode="&#xda;" horiz-adv-x="1202" 
d="M1023 26l67 -155l-59 -25l-20 47q-58 -24 -107 -24q-64 0 -100 35q-84 52 -55 244q18 122 80 292q-97 -103 -173 -179q-13 -250 -44 -318q-19 -44 -61.5 -71.5t-89.5 -27.5q-19 0 -37 4q-47 13 -70.5 53t-18.5 98q-2 27 14 59q25 50 93 95q42 29 151 136q6 118 7 247
l-204 -97l20 -51l-60 -23l-62 162l60 23l19 -50l292 138v-51q0 -106 -5 -230q113 115 238 251l1 1l132 144l-79 -179q-87 -196 -126 -370q-23 -99 -21 -161q3 -68 34 -85l1 -1l8 -7q16 -17 55 -17q36 0 82 19l-21 49zM399 5l1 -4v-5q-4 -36 7 -58q10 -21 34 -28q9 -2 19 -2
q27 0 54 16t40 45q21 48 33 225q-74 -71 -109 -94q-52 -35 -70 -69q-9 -16 -9 -26zM414 695l-6 -1q-6 -2 -18 -5.5t-44 -17.5t-63 -32t-69.5 -50.5t-69.5 -71.5l-4 -6l-50 40l4 5q34 44 77.5 81t78 57.5t71 36t50.5 19.5t22 6l7 2z" />
    <glyph glyph-name="agraveupper" unicode="&#xc0;" horiz-adv-x="1060" 
d="M809 580q7 -2 14 -6t17 -11.5t17 -19t12 -26.5t5 -37.5t-7 -48.5q-25 -95 -190 -118q-1 -57 -1 -178v-49q-1 -112 -59.5 -175t-162.5 -63q-41 0 -73.5 4t-69 19t-61 40.5t-41 70.5t-17.5 107q-1 83 -2 218q-27 1 -57 1v-36h-68v132h68v-28h57v139h-62v69h192v-69h-61
v-140q270 -1 351 1q4 104 18 129q20 45 77 68.5t104 6.5zM607 135q1 110 2 173q-90 -3 -350 -1q1 -134 2 -217q0 -49 10.5 -81.5t34 -53.5t59 -30t89.5 -9q75 0 114 43.5t39 126.5v49zM801 449q14 57 -14 67q-8 3 -18 3q-24 0 -47.5 -13.5t-32.5 -31.5q-6 -15 -10 -91
q109 18 122 66zM717 748q8 -2 21 -6t47 -18.5t66 -34t73 -54t73 -75.5l-54 -42q-16 21 -34.5 39.5t-35.5 32.5t-36.5 27t-35 21.5t-32 16.5t-27 12t-22 8t-14 4.5t-5.5 1.5z" />
    <glyph glyph-name="egraveupper" unicode="&#xc8;" horiz-adv-x="937" 
d="M574 629v-713h43v-68h-155v68h43v528q-60 -42 -131 -42q-44 2 -76 15q-49 -17 -116 -10v-39h-68v157h68v-49q28 -4 51 -2q-2 5 -3 11q-5 44 15.5 70t51.5 33q25 6 50 -8q23 -15 30.5 -42t-4.5 -54q-3 -7 -7 -14h7q82 1 139 76zM307 505q7 12 4 17l-1.5 -1t-2.5 -1
t-2.5 -1t-2 -2t-2 -3t-2 -4.5t-0.5 -5.5v-7l1 -1q5 4 8 9zM535 748q8 -2 21 -6t47 -18.5t66 -34t73 -54t73 -75.5l-54 -42q-28 36 -63.5 66t-64 47t-58 29.5t-40 16t-16.5 4.5z" />
    <glyph glyph-name="ograveupper" unicode="&#xd2;" 
d="M337 -134l-27 13q-55 26 -99 68q-84 81 -105 199.5t30 224.5q50 104 154.5 161.5t219.5 44.5q114 -13 202.5 -92.5t114.5 -191.5q26 -117 -23 -229.5t-153 -171.5l-34 59q85 49 125 140t18 187q-21 91 -93 155.5t-165 75.5q-94 11 -179 -36t-126 -132q-41 -86 -24 -182.5
t86 -162.5q24 -24 53 -41l238 392l58 -35zM654 -160l-85 114l55 41l84 -115zM847 511q-28 36 -63.5 66t-63.5 46.5t-57.5 29t-40 16t-16.5 4.5l16 67q8 -2 21 -6t47 -18.5t66 -33.5t72.5 -53.5t72.5 -75.5z" />
    <glyph glyph-name="igraveupper" unicode="&#xcc;" horiz-adv-x="694" 
d="M393 51l33 60l120 -64l-33 -60l-36 19q-12 -19 -21 -32.5t-25 -34t-31 -34t-34.5 -27.5t-42 -21t-45.5 -7q-14 0 -29 3l-10 3q-94 51 -56 211q-5 2 -11 4q-27 12 -45 36t-23 54q-3 11 -3 27q1 58 28 117q8 18 17 34q42 62 80 99.5t89 67.5l-18 42l64 24l56 -130l-64 -25
l-11 25q-41 -25 -71.5 -56t-65.5 -83q-8 -13 -14 -27q-21 -45 -22 -87q1 -7 3 -14q4 -31 27 -41q2 0 4 -1l20 50q13 33 20 47q7 13 15 27q61 108 141 141q35 9 59 -7q20 -12 25 -35l1 -13q2 -27 -7 -44q-6 -15 -14 -31q-43 -84 -114 -138q-15 -11 -30 -20q-3 -2 -8 -5
q-11 -8 -17 -12q-11 -5 -24 -11q-7 -5 -14 -8q-10 -38 -14 -64t1.5 -52t23.5 -39q42 -5 76.5 27t72.5 92zM304 199q-5 -10 -11 -25q7 5 15 11q58 44 94 115q7 12 12 26l2 4q-52 -25 -98 -107q-9 -14 -14 -24zM324 750q5 -1 12.5 -3t26.5 -9t38.5 -16t46.5 -24.5t52.5 -33.5
t53.5 -44.5t51 -56.5l-54 -43q-20 27 -44.5 50t-46.5 38.5t-45.5 29.5t-41 21.5t-33.5 13.5t-22 8t-9 2z" />
    <glyph glyph-name="ugraveupper" unicode="&#xd9;" 
d="M687 -5l64 28l57 -135l-63 -27l-15 35q-41 -16 -76 -20t-59 2.5t-37 13.5t-22 16q-39 24 -55 71t-9.5 107t20 114t34.5 112q-68 -53 -124 -96q-13 -209 -39 -270q-20 -43 -60.5 -69.5t-85.5 -26.5q-19 0 -36 5q-41 11 -67 48t-20 97q-1 11 1.5 24t11.5 33.5t31.5 44.5
t57.5 47q42 28 139 102q6 116 7 246l-181 -86l15 -38l-65 -25l-54 141l65 24l14 -37l276 131v-55q0 -120 -5 -245q23 18 182 144l121 96l-68 -139q-25 -51 -48.5 -115t-41 -133t-13.5 -123t35 -71l10 -9q2 -1 4 -3t13 -5.5t23 -4.5t33 2.5t45 12.5zM299 -25q18 40 30 185
q-62 -47 -94 -69q-21 -13 -36 -27t-21.5 -23.5t-10 -18.5t-4 -11.5t-0.5 -4.5l1 -5l-1 -4q-7 -64 36 -75q26 -7 56.5 7.5t43.5 45.5zM659 750q8 -2 21 -6t47.5 -18.5t67 -34t74 -54.5t74.5 -77l-55 -42q-28 36 -64.5 66.5t-65 47t-58.5 29.5t-40.5 16.5l-16.5 5.5z" />
    <glyph glyph-name="dotaccent" unicode="&#x2d9;" horiz-adv-x="747" 
d="M432 582l-142 26l26 142l74 -13l-12 -68l68 -13z" />
    <glyph glyph-name="NameMe.206" unicode="&#x2db;" horiz-adv-x="997" 
d="M444 -151l-27 151l152 28l14 -79l-73 -13l14 -73z" />
    <glyph glyph-name="NameMe.207" unicode="&#x2dc;" horiz-adv-x="1036" 
d="M949 397q-5 -10 -12.5 -21t-19.5 -26.5t-27 -27.5t-29 -16q-11 -4 -85 -42l25 -105l-67 -16l-2 10t-8 33.5t-11 44.5q-191 -100 -471 -249q-8 -4 -16 -10t-15.5 -15t-8.5 -17q-1 -13 1 -15t6.5 -3.5t19.5 -2.5t36 1t60 11t88 25q109 35 206.5 60t127.5 31t47 9h5h146v-68
h-143q-137 -24 -368 -98q-127 -40 -196 -40q-52 0 -78 22q-32 27 -26 76q2 17 10.5 32.5t17.5 25.5t20.5 19t17.5 12l10 5q311 167 486 258q-35 143 -50 204q-10 41 -30 51q-15 8 -24 3q-1 0 -17 -4t-47 -11.5t-61 -15.5q-31 -159 -52 -222q-25 -72 -71 -84
q-19 -6 -40.5 1.5t-33.5 16t-30 24.5l-150 128q-29 20 -24 52q6 48 103 77q73 22 238 63q3 16 6 32.5t5 30t4.5 26t4 22.5t2.5 17t1.5 11l0.5 4l68 -10q-9 -58 -19 -115q38 9 92 23q1 1 11 3t29 0t36 -11q47 -25 65 -95q14 -58 46 -189q72 37 83 40q7 3 21.5 20.5t25.5 37.5
zM350 327q18 52 43 182q-140 -36 -205 -55q-29 -9 -45 -18l142 -121q34 -30 42 -28q10 3 23 40zM912 547q-5 22 -30.5 51.5t-54.5 52.5t-57 41l37 58q14 -9 32.5 -22.5t51 -40.5t57.5 -61t31 -65z" />
    <glyph glyph-name="NameMe.208" unicode="&#x302;" horiz-adv-x="985" 
d="M608 748q3 -1 8 -2.5t17.5 -5.5t25.5 -9t31.5 -13.5t36.5 -19t39.5 -25t41.5 -30.5t41.5 -37.5t39.5 -45.5l-54 -42q-20 26 -44.5 49t-46.5 39t-46 29.5t-40.5 21t-34 14t-22 8t-8.5 2.5zM109 513v68h586v-68h-586zM109 365v69h586v-69h-586z" />
    <glyph glyph-name="Ntilde" unicode="&#xd1;" horiz-adv-x="1036" 
d="M949 397q-5 -10 -12.5 -21t-19.5 -26.5t-27 -27.5t-29 -16q-11 -4 -85 -42l25 -105l-67 -16l-2 10t-8 33.5t-11 44.5q-191 -100 -471 -249q-8 -4 -16 -10t-15.5 -15t-8.5 -17q-1 -13 1 -15t6.5 -3.5t19.5 -2.5t36 1t60 11t88 25q109 35 206.5 60t127.5 31t47 9h5h146v-68
h-143q-137 -24 -368 -98q-127 -40 -196 -40q-52 0 -78 22q-32 27 -26 76q2 17 10.5 32.5t17.5 25.5t20.5 19t17.5 12l10 5q311 167 486 258q-35 143 -50 204q-10 41 -30 51q-15 8 -24 3q-1 0 -17 -4t-47 -11.5t-61 -15.5q-31 -159 -52 -222q-25 -72 -71 -84
q-19 -6 -40.5 1.5t-33.5 16t-30 24.5l-150 128q-29 20 -24 52q6 48 103 77q73 22 238 63q3 16 6 32.5t5 30t4.5 26t4 22.5t2.5 17t1.5 11l0.5 4l68 -10q-9 -58 -19 -115q38 9 92 23q1 1 11 3t29 0t36 -11q47 -25 65 -95q14 -58 46 -189q72 37 83 40q7 3 21.5 20.5t25.5 37.5
zM350 327q18 52 43 182q-140 -36 -205 -55q-29 -9 -45 -18l142 -121q34 -30 42 -28q10 3 23 40zM912 547q-5 22 -30.5 51.5t-54.5 52.5t-57 41l37 58q14 -9 32.5 -22.5t51 -40.5t57.5 -61t31 -65z" />
    <glyph glyph-name="quotedblleft" unicode="&#x201c;" horiz-adv-x="1145" 
d="M975 410l-110 -110l110 -110l-53 -53l-110 110l-110 -110l-53 53l110 110l-110 110l53 53l110 -110l110 110z" />
    <glyph glyph-name="uni1E26" unicode="&#x1e26;" horiz-adv-x="1162" 
d="M273 232q-22 0 -39 -8q-37 -15 -55 -65q-30 -83 20 -148q35 -45 96.5 -70.5t110.5 -21.5q32 3 53 7.5t45 17t39.5 34t29 58t21.5 88.5q-56 19 -120 42.5t-97 36t-37 14.5q-34 15 -67 15zM1018 -58l-168 385l168 384l62 -27l-155 -357l155 -358zM393 -150
q-64 0 -134.5 31.5t-113.5 88.5q-73 94 -30 212q28 78 91 105q73 32 161 -7q81 -35 232 -85q-6 105 -93 198q-42 44 -87.5 69.5t-68.5 24.5q-63 -4 -85 31q-20 33 3 73l51 77l-38 25l38 57l129 -84l-37 -57l-34 22l-50 -75q7 -1 18 0q43 3 101.5 -29.5t109.5 -86.5
q115 -123 112 -267q81 -25 121 -32v53h68v-156h-68v35q-46 6 -129 31q-12 -72 -34 -120t-55 -75.5t-70.5 -40.5t-88.5 -17q-9 -1 -19 -1z" />
    <glyph glyph-name="uni1E22" unicode="&#x1e22;" horiz-adv-x="870" 
d="M235 232q-22 0 -40 -8q-36 -15 -54 -65q-30 -83 20 -148q34 -45 95.5 -70.5t110.5 -21.5q32 3 53 7.5t45 17t39.5 34t29.5 58t22 88.5q-56 19 -120 42.5t-97 36t-38 14.5q-34 15 -66 15zM665 538l-166 30l30 166l67 -12l-18 -99l99 -17zM355 -150q-64 0 -134.5 31.5
t-114.5 88.5q-72 94 -30 212q28 78 92 105q72 32 160 -7q81 -35 233 -85q-7 106 -93 198q-42 44 -88 69.5t-69 24.5q-62 -4 -84 31q-21 33 2 73l52 77l-38 25l37 57l129 -84l-37 -57l-34 22l-49 -75q7 -1 18 0q42 3 100.5 -29.5t109.5 -86.5q116 -123 113 -267
q81 -25 120 -32v53h69v-156h-69v35q-45 6 -128 31q-12 -72 -34 -120t-55.5 -75.5t-70.5 -40.5t-89 -17q-8 -1 -18 -1z" />
    <glyph glyph-name="uni1E24" unicode="&#x1e24;" horiz-adv-x="912" 
d="M759 177q-43 1 -120 12q0 -25 -3 -50q-7 -56 -19 -98.5t-29.5 -73.5t-38 -52t-48 -34t-55.5 -20t-64 -10q-8 -1 -18 -1q-64 0 -134.5 31.5t-114.5 88.5q-72 94 -30 212q16 44 45.5 75t64 44.5t73.5 17.5t75 -7q77 -18 210 -40q-24 64 -76 121q-29 30 -61.5 52.5
t-56.5 32.5t-39 9q-62 -4 -84 31q-21 33 2 73l52 77l-38 25l37 57l129 -84l-37 -57l-34 22l-50 -75q8 -1 19 0q42 3 100.5 -29.5t109.5 -86.5q78 -83 103 -180q89 -13 130 -15v56h69v-177h-69v53zM568 147q3 26 1 53q-152 25 -242 46q-21 5 -44 5q-100 0 -133 -92
q-30 -83 19 -148q35 -45 96.5 -70.5t110.5 -21.5q34 3 55.5 8t46 19t40.5 37.5t29.5 64.5t20.5 99zM866 0l-99 -18l18 -99l-67 -12l-30 166l166 30z" />
    <glyph glyph-name="uni1E27" unicode="&#x1e27;" horiz-adv-x="1218" 
d="M401 -150q-47 0 -87.5 10.5t-69.5 27.5t-53 40.5t-39.5 46.5t-26.5 48q-6 14 -11.5 28t-9 26.5t-6.5 25.5t-5 23.5t-3.5 21t-2 17.5t-1 13.5t-0.5 9v3.5v35h520q-2 136 -102 229q-41 38 -88.5 59t-77.5 19q-66 -4 -88 32q-6 9 -8 19.5t-1 20.5t4 19t7 17l73 109l58 -39
l-72 -107v-1q8 -2 23 -1q43 3 103 -21.5t115 -74.5q121 -113 123 -280h186v-70h-189q-14 -147 -98 -231q-74 -75 -172 -75h-1zM159 156q3 -27 10 -53t24.5 -61t42.5 -60.5t68 -43.5t97 -18h1q69 0 122 54q64 64 78 182h-443zM1074 -84l-170 392l170 391l64 -28l-158 -363
l158 -364z" />
    <glyph glyph-name="uni1E23" unicode="&#x1e23;" horiz-adv-x="872" 
d="M632 205h169v-71h-172q-15 -136 -92 -214q-70 -70 -162 -70h-1q-54 0 -99 14.5t-75.5 39.5t-50.5 51.5t-34 57.5q-36 78 -36 157v35h482q-3 123 -93 207q-38 35 -81 54t-71 17q-63 -3 -85 32q-21 33 2 73l68 102l59 -40l-64 -96q6 -1 15 0q45 3 101.5 -22t103.5 -68
q113 -105 116 -259zM486 -30q58 58 71 164h-404q3 -25 9.5 -49t23 -55.5t39.5 -54t62 -38.5t88 -16q63 0 111 49zM589 631l-13 -70l-159 29l29 160l69 -13l-16 -90z" />
    <glyph glyph-name="uni1E25" unicode="&#x1e25;" horiz-adv-x="958" 
d="M411 -150q-59 0 -107 15.5t-80.5 42t-53.5 54.5t-36 61q-11 24 -18.5 49.5t-11.5 44.5t-6 37.5t-2.5 25.5t-0.5 11v35h520q-2 136 -102 229q-41 38 -88.5 59t-77.5 19q-66 -4 -88 32q-22 34 2 76l73 109l58 -39l-72 -107v-1q8 -2 23 -1q44 3 103.5 -21.5t114.5 -74.5
q122 -113 124 -280h185v-70h-188q-15 -147 -99 -231q-74 -75 -172 -75zM168 156q3 -27 10 -53t24.5 -61t42.5 -60.5t68 -43.5t98 -18q69 0 123 54q63 64 77 182h-443zM726 -114l-31 169l169 30l13 -68l-101 -18l18 -101z" />
    <glyph glyph-name="ccedilla" unicode="&#xe7;" 
d="M907 750v-74h-341v-822h-73v336h-267q-33 0 -47 -15q-6 -7 -9.5 -17.5t-3 -16t0.5 -7.5v-284h-73v280q-1 1 -1 6.5t1 16t3.5 21.5t9.5 24.5t17 25.5q36 40 102 40h267v412h-341v74h755z" />
    <glyph glyph-name="acircumflex" unicode="&#xe2;" horiz-adv-x="481" 
d="M223 390q-62 0 -94 26q-39 32 -39 85l-15 -6l-22 55q15 6 37 15v142h60v-118q8 2 11 4q82 32 116 41q0 53 10 73q11 23 43 36q17 7 38 7h19q16 -6 27 -22.5t11 -40.5q0 -11 -3 -25q-9 -33 -47 -58q-18 -12 -38 -18v-53v-22q0 -57 -33 -90q-31 -31 -81 -31zM151 525v-12
q0 -38 16 -50q14 -13 56 -13q26 0 38 13q16 16 16 48v23v37q-24 -8 -96 -35q-20 -8 -30 -11zM341 679q-2 -10 -2 -27q1 0 3 2q17 11 22 23q1 7 1 10l-2 1h-4.5t-5.5 -1q-10 -4 -12 -8z" />
    <glyph glyph-name="ecircumflex" unicode="&#xea;" horiz-adv-x="331" 
d="M239 390h-120v166q-23 -8 -41 -13l-14 59q26 6 55 18v88q0 18 15 30t38 12h1q29 0 51.5 -19.5t22.5 -54.5q1 -36 -32 -67q-14 -14 -36 -26v-133h60v-60zM179 689v-31q8 9 8 17q0 9 -4 12z" />
    <glyph glyph-name="ocircumflex" unicode="&#xf4;" horiz-adv-x="496" 
d="M186 381l-25 12q-28 13 -50 35q-43 41 -53.5 101.5t15.5 114.5q26 53 79 82.5t112 22.5q58 -7 103 -47t58 -98q8 -41 0.5 -79.5t-31.5 -71.5t-59 -54l-30 52q37 21 54 60t7 80q-8 39 -39 66.5t-70 31.5q-27 3 -52.5 -5t-46 -25.5t-31.5 -40.5q-18 -37 -10.5 -78t36.5 -69
q5 -5 11 -10l105 173l51 -31z" />
    <glyph glyph-name="icircumflex" unicode="&#xee;" horiz-adv-x="382" 
d="M184 393q-30 0 -50 22q-30 34 -21 95q-12 10 -19 23q-21 37 -8 81q12 42 53 83q34 34 70 53l28 -53q-28 -15 -55 -42q-31 -31 -39 -58q-1 -3 -1 -5q14 23 35 44q13 14 30 25q36 26 61 18q24 -7 30 -34v-2q7 -48 -25 -91q-29 -39 -72 -54q-15 -5 -30 -6q-1 -27 8 -37
q2 -2 8 -1q27 3 63 67l52 -29q-10 -18 -17 -29t-21 -28.5t-31.5 -27.5t-37.5 -13q-5 -1 -11 -1zM235 608q-9 -7 -16 -14q-16 -16 -26 -34q31 16 42 48z" />
    <glyph glyph-name="ucircumflex" unicode="&#xfb;" horiz-adv-x="487" 
d="M155 390q-9 0 -18 2q-23 7 -36 27q-12 19 -9 46q-2 38 47 71q16 11 52 39v12q1 28 2 60l-62 -29l-24 49l141 67v-43q0 -31 -1 -71q35 28 58 48l100 82l-58 -116q-21 -42 -35 -88q-11 -38 -11 -61q0 -20 7 -23l4 -3l2 -2q14 -8 46 8l25 -49q-69 -34 -107 0q-31 20 -32 68
q0 32 13 76q-8 -7 -15 -13q-5 -83 -17 -110q-6 -14 -17.5 -24.5t-25.5 -16.5t-29 -6zM147 468v-1l-1 -5q-1 -10 2 -15q1 -1 3 -2q6 -2 14 2t12 12q4 10 8 43q-9 -7 -15 -11q-20 -13 -23 -23z" />
    <glyph glyph-name="NameMe.237" unicode="&#x304;" horiz-adv-x="985" 
d="M168 513v68h630v-68h-630zM168 365v69h630v-69h-630z" />
    <glyph glyph-name="ntilde" unicode="&#xf1;" horiz-adv-x="1036" 
d="M949 397q-5 -10 -12.5 -21t-19.5 -26.5t-27 -27.5t-29 -16q-11 -4 -85 -42l25 -105l-67 -16l-2 10t-8 33.5t-11 44.5q-191 -100 -471 -249q-8 -4 -16 -10t-15.5 -15t-8.5 -17q-1 -13 1 -15t6.5 -3.5t19.5 -2.5t36 1t60 11t88 25q109 35 206.5 60t127.5 31t47 9h5h146v-68
h-143q-137 -24 -368 -98q-127 -40 -196 -40q-52 0 -78 22q-32 27 -26 76q2 17 10.5 32.5t17.5 25.5t20.5 19t17.5 12l10 5q311 167 486 258q-35 143 -50 204q-10 41 -30 51q-15 8 -24 3q-1 0 -17 -4t-47 -11.5t-61 -15.5q-31 -159 -52 -222q-25 -72 -71 -84
q-19 -6 -40.5 1.5t-33.5 16t-30 24.5l-150 128q-29 20 -24 52q6 48 103 77q73 22 238 63q3 16 6 32.5t5 30t4.5 26t4 22.5t2.5 17t1.5 11l0.5 4l68 -10q-9 -58 -19 -115q38 9 92 23q1 1 11 3t29 0t36 -11q47 -25 65 -95q14 -58 46 -189q72 37 83 40q7 3 21.5 20.5t25.5 37.5
zM350 327q18 52 43 182q-140 -36 -205 -55q-29 -9 -45 -18l142 -121q34 -30 42 -28q10 3 23 40zM912 547q-5 22 -30.5 51.5t-54.5 52.5t-57 41l37 58q14 -9 32.5 -22.5t51 -40.5t57.5 -61t31 -65z" />
    <glyph glyph-name="amacron" unicode="&#x101;" horiz-adv-x="946" 
d="M438 -150q-133 0 -195 61t-64 192v55q-23 -1 -44 -1h-33.5h-13.5v68q13 0 90 1l-1 211h69v-210q265 3 343 6q1 46 5 68t14 43q20 47 74.5 72t102.5 9q7 -2 14 -6t17.5 -11.5t17.5 -19.5t13 -27.5t5.5 -39.5t-7.5 -51q-4 -20 -14.5 -36t-26 -26.5t-31 -17.5t-37.5 -11
t-39 -6t-40 -4v-31v-38q-1 -118 -59 -184t-160 -66zM247 158q0 -27 1 -54q1 -103 43.5 -144.5t146.5 -41.5q36 1 63 12t43 28.5t26.5 42t14 48.5t3.5 51v38v6.5v6.5v6.5v6.5q-83 -3 -341 -6zM748 363q-22 0 -45.5 -13.5t-32.5 -34.5q-11 -22 -12 -77q56 4 85.5 14t35.5 34
q15 64 -16 74q-6 3 -15 3zM92 682v68h735v-68h-735zM92 496v69h735v-69h-735z" />
    <glyph glyph-name="imacron" unicode="&#x12b;" horiz-adv-x="838" 
d="M402 -150q-16 0 -32 3l-10 3q-28 15 -45.5 32t-25 32.5t-7.5 35.5t3 34.5t10 35.5q-10 2 -20 7q-30 13 -49.5 38.5t-24.5 57.5q-3 11 -4 30q1 65 33 130q10 20 21 39q54 76 104.5 119.5t126.5 80.5l30 -61q-35 -17 -61 -33.5t-50.5 -37.5t-46 -46.5t-46.5 -60.5
q-8 -13 -17 -30q-25 -52 -26 -99q1 -9 3 -17q6 -35 34 -48q8 -3 15 -3l4 10q9 21 16 37l5 11q16 38 25 55q11 19 18 30q72 119 166 156q38 9 65 -8q20 -13 25 -36l1 -8q0 -1 1 -6q2 -32 -9 -51q-6 -13 -16 -32q-51 -94 -135 -154q-17 -11 -36 -22q-3 -2 -10 -6
q-12 -9 -20 -12q-13 -7 -29 -14q-9 -5 -19 -10q-2 -6 -5 -17q-16 -41 -13 -59.5t35 -35.5q30 -4 57.5 6t52.5 34.5t43.5 47.5t41.5 57q5 9 13 23l32 -14l29 -18q-12 -21 -17 -28q-18 -28 -30 -44.5t-37 -45t-47.5 -45t-55 -30t-66.5 -13.5zM574 326q-1 0 -3 -1
q-67 -26 -128 -126q-6 -10 -16 -27q-7 -14 -19 -42q4 3 8 5q14 8 28 17q70 51 114 131q7 14 15 31q2 4 1 12zM190 682v68h476v-68h-476zM190 491v68h476v-68h-476z" />
    <glyph glyph-name="umacron" unicode="&#x16b;" horiz-adv-x="1123" 
d="M294 -150q-22 0 -43 6q-42 12 -69 50.5t-21 99.5q-1 12 1.5 25.5t12.5 34.5t35.5 46.5t64.5 49.5q47 30 162 90q2 42 4 85l-232 -103l-28 62l329 146v-52q0 -43 -3 -101q137 71 261 131l125 62l-83 -112q-22 -31 -47 -72.5t-52.5 -95t-42 -106t-6.5 -86.5q7 -29 32 -42
l10 -8q3 -2 7 -4.5t19.5 -7t33.5 -4.5t49 7.5t66 23.5l29 -62q-53 -25 -99 -33.5t-76.5 -1.5t-47 14.5t-27.5 17.5q-49 28 -62 84q-26 110 90 309q-106 -53 -183 -94q-14 -187 -49 -259q-14 -30 -39.5 -53t-56.5 -35t-64 -12zM431 172q-83 -45 -120 -68q-24 -15 -41 -30
t-24.5 -25t-11.5 -19t-4.5 -12.5t-0.5 -4.5l2 -6l-2 -4q-8 -67 41 -81q32 -9 69 7t53 50q26 53 39 193zM199 682v68h749v-68h-749zM199 492v69h749v-69h-749z" />
    <glyph glyph-name="emacron" unicode="&#x113;" horiz-adv-x="775" 
d="M598 -150h-275v260q-83 -40 -176 -70l-21 66q104 33 197 82v168q0 32 31.5 53.5t70.5 21.5q44 0 72 -29q32 -32 32 -90q0 -83 -137 -165v-229h206v-68zM392 352v-123q69 47 69 83q0 41 -23 48q-14 3 -27 0t-19 -8zM136 682v68h462v-68h-462zM136 496v69h462v-69h-462z
" />
    <glyph glyph-name="omacron" unicode="&#x14d;" horiz-adv-x="1177" 
d="M420 -150l-27 13q-70 33 -125 86q-107 103 -133.5 253t37.5 284q64 132 196.5 205t278.5 56q145 -17 256.5 -117t143.5 -243q34 -148 -28 -290t-195 -218l-33 59q113 65 166 186t24 248q-24 109 -105 190l-166 -259l241 -153h-339zM595 682q-114 0 -213 -61.5
t-149 -164.5q-55 -114 -32 -242t114 -216q36 -35 80 -60l137 212h-306l289 196l-206 130l37 57l231 -146l283 191q-96 87 -221 102q-22 2 -44 2zM656 218h61l-44 28zM447 218h128l41 64l-38 24zM639 347l14 -8l20 31z" />
    <glyph glyph-name="NameMe.252" unicode="&#x309;" 
d="M300 498v69h585v-69h-585zM392 749l16 -67q-5 -1 -16.5 -4.5t-40 -15.5t-56.5 -28.5t-63 -46t-62 -65.5l-55 43q32 40 72.5 74t72 53t65 33.5t46.5 18t21 5.5zM300 419h585v-68h-34h-26h-525v68z" />
    <glyph glyph-name="acute" unicode="&#xb4;" 
d="M630 749l16 -67q-5 -1 -16 -4.5t-40 -15.5t-57 -28.5t-63 -46t-62 -65.5l-54 43q32 40 72 74t72 53t65.5 33.5t46 18t20.5 5.5z" />
    <glyph glyph-name="glyph184" unicode="`" 
d="M368 748q8 -2 21 -6t47 -18.5t66 -34t73 -54t73 -75.5l-54 -42q-28 36 -64 66t-64 47t-57.5 29.5t-40 16t-16.5 4.5z" />
    <glyph glyph-name="Amacron" unicode="&#x100;" horiz-adv-x="946" 
d="M438 -150q-133 0 -195 61t-64 192v55q-23 -1 -44 -1h-33.5h-13.5v68q13 0 90 1l-1 211h69v-210q265 3 343 6q1 46 5 68t14 43q20 47 74.5 72t102.5 9q7 -2 14 -6t17.5 -11.5t17.5 -19.5t13 -27.5t5.5 -39.5t-7.5 -51q-4 -20 -14.5 -36t-26 -26.5t-31 -17.5t-37.5 -11
t-39 -6t-40 -4v-31v-38q-1 -118 -59 -184t-160 -66zM247 158q0 -27 1 -54q1 -103 43.5 -144.5t146.5 -41.5q36 1 63 12t43 28.5t26.5 42t14 48.5t3.5 51v38v6.5v6.5v6.5v6.5q-83 -3 -341 -6zM748 363q-22 0 -45.5 -13.5t-32.5 -34.5q-11 -22 -12 -77q56 4 85.5 14t35.5 34
q15 64 -16 74q-6 3 -15 3zM92 682v68h735v-68h-735zM92 496v69h735v-69h-735z" />
    <glyph glyph-name="Imacron" unicode="&#x12a;" horiz-adv-x="838" 
d="M402 -150q-16 0 -32 3l-10 3q-28 15 -45.5 32t-25 32.5t-7.5 35.5t3 34.5t10 35.5q-10 2 -20 7q-30 13 -49.5 38.5t-24.5 57.5q-3 11 -4 30q1 65 33 130q10 20 21 39q54 76 104.5 119.5t126.5 80.5l30 -61q-35 -17 -61 -33.5t-50.5 -37.5t-46 -46.5t-46.5 -60.5
q-8 -13 -17 -30q-25 -52 -26 -99q1 -9 3 -17q6 -35 34 -48q8 -3 15 -3l4 10q9 21 16 37l5 11q16 38 25 55q11 19 18 30q72 119 166 156q38 9 65 -8q20 -13 25 -36l1 -8q0 -1 1 -6q2 -32 -9 -51q-6 -13 -16 -32q-51 -94 -135 -154q-17 -11 -36 -22q-3 -2 -10 -6
q-12 -9 -20 -12q-13 -7 -29 -14q-9 -5 -19 -10q-2 -6 -5 -17q-16 -41 -13 -59.5t35 -35.5q30 -4 57.5 6t52.5 34.5t43.5 47.5t41.5 57q5 9 13 23l32 -14l29 -18q-12 -21 -17 -28q-18 -28 -30 -44.5t-37 -45t-47.5 -45t-55 -30t-66.5 -13.5zM574 326q-1 0 -3 -1
q-67 -26 -128 -126q-6 -10 -16 -27q-7 -14 -19 -42q4 3 8 5q14 8 28 17q70 51 114 131q7 14 15 31q2 4 1 12zM190 682v68h476v-68h-476zM190 491v68h476v-68h-476z" />
    <glyph glyph-name="Umacron" unicode="&#x16a;" horiz-adv-x="1123" 
d="M294 -150q-22 0 -43 6q-42 12 -69 50.5t-21 99.5q-1 12 1.5 25.5t12.5 34.5t35.5 46.5t64.5 49.5q47 30 162 90q2 42 4 85l-232 -103l-28 62l329 146v-52q0 -43 -3 -101q137 71 261 131l125 62l-83 -112q-22 -31 -47 -72.5t-52.5 -95t-42 -106t-6.5 -86.5q7 -29 32 -42
l10 -8q3 -2 7 -4.5t19.5 -7t33.5 -4.5t49 7.5t66 23.5l29 -62q-53 -25 -99 -33.5t-76.5 -1.5t-47 14.5t-27.5 17.5q-49 28 -62 84q-26 110 90 309q-106 -53 -183 -94q-14 -187 -49 -259q-14 -30 -39.5 -53t-56.5 -35t-64 -12zM431 172q-83 -45 -120 -68q-24 -15 -41 -30
t-24.5 -25t-11.5 -19t-4.5 -12.5t-0.5 -4.5l2 -6l-2 -4q-8 -67 41 -81q32 -9 69 7t53 50q26 53 39 193zM199 682v68h749v-68h-749zM199 492v69h749v-69h-749z" />
    <glyph glyph-name="Emacron" unicode="&#x112;" horiz-adv-x="775" 
d="M598 -150h-275v260q-83 -40 -176 -70l-21 66q104 33 197 82v168q0 32 31.5 53.5t70.5 21.5q44 0 72 -29q32 -32 32 -90q0 -83 -137 -165v-229h206v-68zM392 352v-123q69 47 69 83q0 41 -23 48q-14 3 -27 0t-19 -8zM136 682v68h462v-68h-462zM136 496v69h462v-69h-462z
" />
    <glyph glyph-name="Omacron" unicode="&#x14c;" horiz-adv-x="1177" 
d="M420 -150l-27 13q-70 33 -125 86q-107 103 -133.5 253t37.5 284q64 132 196.5 205t278.5 56q145 -17 256.5 -117t143.5 -243q34 -148 -28 -290t-195 -218l-33 59q113 65 166 186t24 248q-24 109 -105 190l-166 -259l241 -153h-339zM595 682q-114 0 -213 -61.5
t-149 -164.5q-55 -114 -32 -242t114 -216q36 -35 80 -60l137 212h-306l289 196l-206 130l37 57l231 -146l283 191q-96 87 -221 102q-22 2 -44 2zM656 218h61l-44 28zM447 218h128l41 64l-38 24zM639 347l14 -8l20 31z" />
    <glyph glyph-name="uni864E" unicode="&#x864e;" 
d="M950 700l-400 -400l400 -400l-50 -50l-400 400l-400 -400l-50 50l400 400l-400 400l50 50l400 -400l400 400z" />
    <glyph glyph-name="uni5B50" unicode="&#x5b50;" 
d="M553 -150h-484v68h208v764h-208v68h484v-68h-207v-764h207v-68zM931 6h-484v69h207v443h-207v69h484v-69h-208v-443h208v-69z" />
    <glyph glyph-name="uni9577" unicode="&#x9577;" 
d="M89 -150l-29 63l404 181v411l-404 181l29 63l410 -184l412 185l29 -63l-407 -182v-409l407 -182l-29 -63l-410 184z" />
    <glyph glyph-name="uni6728" unicode="&#x6728;" 
d="M939 488l-406 -183v-209l406 -182l-28 -63l-410 184l-412 -185l-28 63l403 181v211l-403 182l28 63l375 -169v124l-403 181l28 63l410 -184l412 185l28 -63l-406 -182v-124l378 170z" />
    <glyph glyph-name="uni6797" unicode="&#x6797;" 
d="M559 -150l-49 50l184 183v230l-184 184l49 49l135 -134v104l-184 183l49 50l170 -169l171 170l50 -50l-186 -184v-104l137 135l49 -49l-186 -185v-228l186 -184l-49 -50l-171 169zM100 -150l-50 50l185 183v230l-185 184l50 49l135 -134v104l-185 183l50 50l170 -169
l171 170l49 -50l-185 -184v-104l136 135l49 -49l-185 -185v-228l185 -184l-49 -50l-170 169z" />
    <glyph glyph-name="uni67CF" unicode="&#x67cf;" 
d="M676 310v-218l265 -183l-39 -57l-259 178l-82 -56l96 -66l-39 -57l-118 81l-117 -81l-40 57l96 66l-80 55l-261 -179l-39 57l263 181v419l-263 181l39 57l259 -177l84 57l-98 67l40 57l119 -82l116 79l39 -57l-94 -64l78 -54l261 179l39 -57l-265 -183v-116l226 156
l39 -58zM607 510l-105 73l-85 -58l190 -131v116zM392 90l108 -74l107 74v220l-215 148v-368z" />
    <glyph glyph-name="uni672C" unicode="&#x672c;" 
d="M259 -91l242 153l240 -152l-37 -59l-203 129l-205 -130zM534 179l416 -259l-37 -59l-412 256l-414 -257l-37 60l414 257v131l-410 180l28 64l382 -167v120l-410 180l28 64l417 -183l418 184l29 -64l-412 -181v-120l383 168l29 -64l-412 -181v-129z" />
    <glyph glyph-name="uni738B" unicode="&#x738b;" 
d="M534 214v-118l405 -182l-28 -63l-410 184l-412 -185l-28 63l405 182v119v51h-266v-85h-69v85v69v84h69v-84h266v51v119l-405 182l28 63l410 -184l412 185l28 -63l-405 -182v-120v-51h266v84h69v-238h-69v85h-266v-51z" />
    <glyph glyph-name="uni5BAB" unicode="&#x5bab;" 
d="M50 750h900v-900h-900v900zM878 -78v756h-756v-756h756zM457 143v115h-193v-56h-73v184h73v-56h193v115l-279 136l32 66l283 -139l285 139l31 -65l-280 -137v-115h198v56h73v-184h-73v56h-198v-114l280 -136l-31 -66l-283 139l-285 -139l-32 65z" />
    <glyph glyph-name="uni8449" unicode="&#x8449;" 
d="M937 473l-397 -366v-133l351 323l46 -51l-431 -396l-443 396l45 51l363 -325v136l-408 365l45 50l363 -324v135l-408 365l45 51l363 -324v297h69v-297l351 324l46 -51l-397 -366v-134l351 324z" />
    <glyph glyph-name="uni6C34" unicode="&#x6c34;" 
d="M501 750l441 -410l-46 -50l-395 367l-397 -369l-46 50zM197 31l304 282l302 -281l-46 -50l-256 238l-258 -239zM131 182l370 344l368 -342l-47 -50l-321 298l-323 -300zM282 -100l219 203l217 -202l-46 -50l-171 159l-173 -160z" />
    <glyph glyph-name="uni86C7" unicode="&#x86c7;" horiz-adv-x="1063" 
d="M980 682h-98v-729q2 -37 -20 -61q-39 -42 -168 -42q-122 0 -163 51q-20 24 -18 52l-78 694l-2 10q-2 9 -3 11q-15 12 -138 12q-99 0 -124 -21v-775h-69v769q-4 24 11 45q37 51 182 51q61 0 96.5 -3t60 -12t35 -23t16.5 -39l3 -14l79 -706l-1 -5q0 -2 3 -4.5t10.5 -7
t19.5 -8t33 -6t47 -2.5q99 0 118 20q2 2 1 11v732h-98v68h265v-68z" />
    <glyph glyph-name="uni5973" unicode="&#x5973;" horiz-adv-x="1021" 
d="M198 86l59 -37l-37 -59q43 -29 92 -47q65 -23 136 -23q80 0 153 30q70 29 125 82t84.5 122.5t29.5 145.5t-29.5 145.5t-84.5 122.5t-125 82q-73 30 -153 30q-71 0 -136 -23q-49 -18 -91 -46l36 -57l-59 -38l-108 171l59 38l35 -55q48 33 104 53q77 27 160 27
q93 0 179 -35q83 -34 147.5 -96.5t99.5 -142.5q36 -84 36 -176t-36 -176q-35 -80 -99.5 -142.5t-147.5 -96.5q-86 -35 -179 -35q-83 0 -160 27q-56 21 -106 54l-33 -53l-59 38z" />
    <glyph glyph-name="uni7537" unicode="&#x7537;" horiz-adv-x="1011" 
d="M743 49l59 37l108 -170l-59 -38l-33 53q-50 -33 -106 -54q-77 -27 -160 -27q-93 0 -179 35q-83 34 -147.5 96.5t-99.5 142.5q-36 84 -36 176t36 176q35 80 99.5 142.5t147.5 96.5q86 35 179 35q83 0 160 -27q56 -20 104 -53l35 55l59 -38l-108 -171l-59 38l36 57
q-42 28 -91 46q-65 23 -136 23q-80 0 -153 -30q-70 -29 -125 -82t-84.5 -122.5t-29.5 -145.5t29.5 -145.5t84.5 -122.5t125 -82q73 -30 153 -30q71 0 136 23q49 18 92 47z" />
    <glyph glyph-name="uni81EA" unicode="&#x81ea;" horiz-adv-x="1053" 
d="M960 681h-112v-762h112v-69h-295v69h115v762h-115v69h295v-69zM642 457q31 -75 31 -157t-31 -156q-31 -73 -86.5 -128.5t-128.5 -86.5q-74 -31 -156 -31q-44 0 -86 9l9 -45l-68 -14l-42 198l69 14l16 -76q49 -16 102 -16q137 0 234.5 97.5t97.5 235t-97.5 235
t-234.5 97.5q-53 0 -102 -16l-16 -77l-69 14l42 198l68 -14l-9 -44q42 9 86 9q82 0 156 -32q73 -30 128.5 -86t86.5 -128z" />
    <glyph glyph-name="uni4E73" unicode="&#x4e73;" horiz-adv-x="1065" 
d="M731 44l53 48l177 -194l-53 -48zM730 350l178 194l53 -48l-178 -194zM961 698l-178 -194l-53 48l178 194zM548.5 585q55.5 -56 85.5 -128q32 -75 32 -157t-32 -156q-30 -73 -85.5 -128.5t-128.5 -86.5q-75 -31 -156 -31q-44 0 -86 9l9 -45l-68 -14l-42 198l69 14l16 -76
q49 -16 102 -16q137 0 234.5 97.5t97.5 235t-97.5 235t-234.5 97.5q-53 0 -102 -16l-16 -77l-69 14l42 198l68 -14l-9 -44q42 9 86 9q81 0 156 -32q73 -30 128.5 -86z" />
    <glyph glyph-name="uni4EBA" unicode="&#x4eba;" 
d="M916 682h-370v-764h370v-68h-832v68h394v764h-394v68h832v-68z" />
    <glyph glyph-name="uni5BB6" unicode="&#x5bb6;" 
d="M539 749h394v-899h-394v899zM864 -82v762h-256v-762h256zM67 682v68h356v-68h-144v-763h144v-68h-356v68h144v763h-144z" />
    <glyph glyph-name="uni56DB" unicode="&#x56db;" 
d="M950 337v-74h-413v-413h-74v413h-413v74h413v413h74v-413h413z" />
    <glyph glyph-name="uni984C" unicode="&#x984c;" 
d="M882 387h68v-174h-68v53h-348v-348h53v-68h-174v68h53v348h-348v-53h-68v174h68v-53h348v348h-53v68h174v-68h-53v-348h348v53z" />
    <glyph glyph-name="uni5263" unicode="&#x5263;" 
d="M950 540v-74h-420v-616h-74v616h-406v74h406v210h74v-210h420z" />
    <glyph glyph-name="uni65AC" unicode="&#x65ac;" horiz-adv-x="1014" 
d="M794 446v-104h156v-74h-156v-418h-74v418h-134v74h134v104h74zM530 585h420v-74h-420v-661h-74v661h-406v74h406v165h74v-165z" />
    <glyph glyph-name="uni82E5" unicode="&#x82e5;" 
d="M317 750v-167h205v-70h-205v-663h-70v663h-197v70h197v167h70zM950 589h-70v45h-206v-170h206v46h70v-161h-70v45h-206v-175h206v46h70v-161h-70v45h-206v-178h206v40h70v-161h-70v51h-276v803h276v46h70v-161z" />
    <glyph glyph-name="uni68D2" unicode="&#x68d2;" horiz-adv-x="1080" 
d="M988 -150h-70v563v1q0 24 -8 56q-17 63 -63 110q-43 44 -110 69q-83 31 -199 31t-199 -31q-67 -25 -111 -69q-45 -47 -62 -110q-8 -32 -8 -56v-1v-563h-70v562q0 11 2 27t9 48.5t27 70t51 69.5q55 57 137 87q95 36 224 36t224 -36q82 -30 137 -87q31 -32 51 -69.5t27 -70
t9 -48.5t2 -27v-562z" />
    <glyph glyph-name="uni6163" unicode="&#x6163;" horiz-adv-x="1094" 
d="M547 -150q-129 0 -224 36q-82 30 -137 87q-25 26 -43.5 57t-27 55t-13 49t-5 35.5t-0.5 18.5v562h70v-563v-1q0 -24 8 -56q17 -63 62 -110q44 -44 111 -69q83 -31 199 -31t199 31q67 25 110 69q46 47 63 110q8 32 8 56v1v563h70v-562q0 -11 -2 -27t-9 -48.5t-27 -70
t-51 -69.5q-55 -57 -137 -87q-95 -36 -224 -36z" />
    <glyph glyph-name="uni5F31" unicode="&#x5f31;" horiz-adv-x="1096" 
d="M895 -80h94v-70h-259v70h95v493q0 30 -9 68q-18 76 -66 124q-73 75 -211 75t-211 -75q-48 -48 -66 -124q-9 -38 -9 -68v-1v-492h95v-70h-259v70h94v492q0 12 2 30.5t9.5 56t29 79.5t53.5 75q94 97 262 97t262 -97q32 -33 53.5 -75t29 -79.5t9.5 -56t2 -30.5v-492z" />
    <glyph glyph-name="uni5292" unicode="&#x5292;" horiz-adv-x="1042" 
d="M936 -150l-412 412l-412 -412l-51 51l427 427v422h72v-422l427 -427z" />
    <glyph glyph-name="uni6240" unicode="&#x6240;" 
d="M535 309l410 -410l-49 -49l-396 396l-396 -396l-49 49l410 410v372h-376v69h822v-69h-376v-372z" />
    <glyph glyph-name="uni6551" unicode="&#x6551;" 
d="M932 123h-409v-202h409v-71h-864v71h384v202h-384v71h384v556h71v-556h409v-71z" />
    <glyph glyph-name="uni4E00" unicode="&#x4e00;" horiz-adv-x="1036" 
d="M68 263v74h900v-74h-900z" />
    <glyph glyph-name="uni4E8C" unicode="&#x4e8c;" 
d="M84 -82v69h832v-69h-832zM84 612v68h832v-68h-832z" />
    <glyph glyph-name="uni4E09" unicode="&#x4e09;" horiz-adv-x="1090" 
d="M949 -150v900h74v-900h-74zM499 -150v900h74v-900h-74zM49 -150v900h74v-900h-74z" />
    <glyph glyph-name="uni683D" unicode="&#x683d;" horiz-adv-x="1033" 
d="M71 -187v74h900v-74h-900zM71 263v74h900v-74h-900zM71 713v74h900v-74h-900z" />
    <glyph glyph-name="uni5099" unicode="&#x5099;" horiz-adv-x="1078" 
d="M947 -83h65v-67h-205v67h73v735l-615 -238q55 -25 79.5 -49t22.5 -50q0 -10 -5 -20l413 -196l-254 -24l182 -58l-21 -64l-338 109l7 65l174 16l-331 158l96 21q1 0 1 1q-33 25 -129 60l-84 30l869 337v-833z" />
    <glyph glyph-name="uni6A5F" unicode="&#x6a5f;" horiz-adv-x="1036" 
d="M954 319q0 -88 -57 -154t-143 -80v-235h-74v413h-542v-77h-74v228h74v-77h542v413h74v-198q86 -13 143 -79t57 -154zM754 160q36 9 64.5 31.5t45 56t16.5 71.5t-16.5 71t-45 56t-64.5 31v-317z" />
    <glyph glyph-name="uni65E5" unicode="&#x65e5;" 
d="M950 475v-70h-415v-555h-70v555h-415v70h223l-161 231l57 40l190 -271h106v275h70v-275h106l190 271l57 -40l-161 -231h223z" />
    <glyph glyph-name="uni5DEE" unicode="&#x5dee;" 
d="M941 497h-412v-119h412v-73h-412v-455h-73v455h-397v73h397v119h-397v73h186l-150 124l47 56l216 -180h98v161h73v-161h112l216 180l47 -56l-150 -124h187v-73z" />
    <glyph glyph-name="uni7167" unicode="&#x7167;" horiz-adv-x="1069" 
d="M934 308h73v-208h-73v70h-368v-320h-72v320h-368v-70h-73v208h73v-65h368v255h-391v72h183l-148 125l47 55l213 -180h96v162h72v-162h109l213 180l47 -55l-147 -125h183v-72h-405v-255h368v65z" />
    <glyph glyph-name="uni7DBA" unicode="&#x7dba;" horiz-adv-x="1141" 
d="M1046 418v-250h-448v-318h-73v318h-433v250h433v79h-397v73h186l-150 124l47 56l216 -180h98v161h73v-161h112l216 180l47 -56l-150 -124h187v-73h-412v-79h448zM165 240h360v105h-360v-105zM973 240v105h-375v-105h375z" />
    <glyph glyph-name="uni9E97" unicode="&#x9e97;" horiz-adv-x="1060" 
d="M552 299h431v-449h-918v449h417v204h-382v70h180l-146 124l46 53l208 -177h94v159h70v-159h107l208 177l46 -53l-146 -124h181v-70h-396v-204zM913 -80v310h-778v-310h778z" />
    <glyph glyph-name="uni697D" unicode="&#x697d;" horiz-adv-x="1084" 
d="M570 299h431v-449h-918v449h417v204h-382v70h180l-145 124l45 53l208 -177h94v159h70v-159h107l208 177l46 -53l-146 -124h181v-70h-396v-204zM931 -80v310h-778v-310h778zM863 35v-69h-642v69h296v64h-296v70h642v-70h-277v-64h277z" />
    <glyph glyph-name="uni6C42" unicode="&#x6c42;" horiz-adv-x="1090" 
d="M952 405h74v-210h-74v68h-376v-413h-74v413h-376v-68h-74v210h74v-68h376v413h74v-413h376v68z" />
    <glyph glyph-name="uni63A2" unicode="&#x63a2;" horiz-adv-x="1054" 
d="M68 -87l297 191l38 -60l-297 -191zM405 359l-39 -61l-298 192l38 60zM405 558l-39 -60l-298 192l38 60zM921 358h71v-193h-71v61h-336v-376h-71v376h-336v-61h-72v193h72v-61h336v376h71v-376h336v61z" />
    <glyph glyph-name="uni8208" unicode="&#x8208;" 
d="M428 260v-342h262v-68h-612v68h281v764h-281v68h612v-68h-262v-349l469 182l25 -64z" />
    <glyph glyph-name="uni4E94" unicode="&#x4e94;" 
d="M950 356v-70h-381l275 -396l-57 -40l-286 412l-288 -412l-57 40l277 396h-383v70h415v394h70v-394h415z" />
    <glyph glyph-name="uni516D" unicode="&#x516d;" horiz-adv-x="1072" 
d="M1004 588l-407 -288l407 -288l-42 -60l-392 276v-378h-74v378l-392 -276l-42 60l407 288l-407 288l42 60l392 -276v378h74v-378l392 276z" />
    <glyph glyph-name="uni4E03" unicode="&#x4e03;" 
d="M938 273v-73h-360l259 -303l-55 -47l-282 331l-283 -331l-54 47l259 303h-360v73h360l-259 303l54 47l247 -289v416h72v-416l246 289l55 -47l-259 -303h360z" />
    <glyph glyph-name="uni4E0A" unicode="&#x4e0a;" horiz-adv-x="1056" 
d="M906 614h-344v-693h70v-71h-208v71h66v693h-339v-78h-72v214h71v-65h756v65h71v-214h-71v78z" />
    <glyph glyph-name="uni793A" unicode="&#x793a;" horiz-adv-x="1045" 
d="M897 614h-344v-693h70v-71h-208v71h66v693h-339v-78h-72v214h71v-65h756v65h71v-214h-71v78zM341 534l50 -50l-219 -219l212 -213l-50 -50l-263 263z" />
    <glyph glyph-name="uni6367" unicode="&#x6367;" horiz-adv-x="1066" 
d="M924 483h-363v-562h59v-71h-186v71h56v562h-359v-65l-71 -1l-1 199h72v-62h119v196h72v-196h418v196h71v-196h113v62h71v-199h-71v66z" />
    <glyph glyph-name="uni96E8" unicode="&#x96e8;" horiz-adv-x="1072" 
d="M670 325l60 39l198 -304l-60 -39zM670 574l60 39l245 -375l-60 -39zM670 80l60 38l138 -212l-60 -38zM128 56l199 306l60 -39l-199 -306zM82 234l245 377l60 -39l-246 -377zM188 -97l139 213l60 -39l-139 -213zM573 625v-704h57v-71h-181v71h53v704h-327v-54h-72v168h71
l1 -43h729v43h72v-168h-72v54h-331z" />
    <glyph glyph-name="uni51CC" unicode="&#x51cc;" horiz-adv-x="1051" 
d="M467 694v44h71v-160h-71v44h-129v-701h42v-71h-159v71h46v701h-129v-44h-71v160h71v-44h329zM969 614v-72h-164v-671h-71v671h-165v72h50l-40 112l67 24l48 -136h40v124h71v-124h41l48 136l68 -24l-40 -112h47z" />
    <glyph glyph-name="uni970E" unicode="&#x970e;" horiz-adv-x="1033" 
d="M623 259q9 79 51 143.5t109 102t145 37.5v-71q-99 0 -168.5 -72.5t-69.5 -175t69.5 -175t168.5 -72.5v-71q-78 0 -145 37.5t-109 102t-51 143.5h-79v-267h50v-71h-168v71h50v267h-75q-13 -120 -100 -201.5t-204 -81.5v71q98 0 168 72.5t70 175t-70 175t-168 72.5v71
q77 0 144 -37.5t109.5 -102t50.5 -143.5h75v377h-345v-49h-69v163h68l1 -43h762v43h69v-163h-68l-1 49h-349v-377h79z" />
    <glyph glyph-name="uni4E9C" unicode="&#x4e9c;" horiz-adv-x="1045" 
d="M552 -80h65v-70h-196v70h61v698h-343v-75h-70v207h70v-62h760v62h70v-207h-70v75h-347v-698zM69 376v70h221v-70h-76v-456h76v-70h-221v70h75v456h-75zM969 376h-75v-456h75v-70h-221v70h76v456h-76v70h221v-70z" />
    <glyph glyph-name="uni54C0" unicode="&#x54c0;" horiz-adv-x="1023" 
d="M916 681h-100v-763h100v-68h-832v68h96v764h-96v68h265v-69h-101v-763h499v764h-96v68h265v-69z" />
    <glyph glyph-name="uni516B" unicode="&#x516b;" horiz-adv-x="1066" 
d="M983 337v-74h-361l255 -255l-52 -52l-255 255v-361h-74v361l-255 -255l-52 52l254 255h-360v74h361l-255 255l52 52l255 -254v360h74v-361l255 255l52 -52l-255 -255h361z" />
    <glyph glyph-name="uni4E5D" unicode="&#x4e5d;" horiz-adv-x="1051" 
d="M972 336l-346 -62l300 -187l-39 -62l-295 184l112 -336l-70 -23l-110 332l-119 -329l-68 25l119 332l-298 -177l-37 63l299 178l-350 62l13 72l350 -62l-228 268l55 48l229 -269v357h73v-354l221 271l57 -46l-224 -274l343 61z" />
    <glyph glyph-name="uni5341" unicode="&#x5341;" horiz-adv-x="1081" 
d="M1008 439l-333 -126l329 -81l-18 -72l-330 82l203 -260l-59 -46l-213 274v-360h-75v352l-212 -266l-58 46l210 263l-348 -85l-18 72l330 81l-334 126l26 69l345 -130l-191 269l60 43l190 -268v328h75v-323l180 263l61 -42l-183 -267l337 127z" />
    <glyph glyph-name="uni62FE" unicode="&#x62fe;" horiz-adv-x="1079" 
d="M688 543h294v-70h-294l222 -105l-29 -63l-349 164l-349 -164l-30 63l223 105h-294v70h294l-223 104l30 64l314 -148v187h70v-187l314 148l29 -64zM910 192l-222 -104h294v-70h-294l222 -105l-29 -63l-349 164l-349 -164l-30 63l223 105h-294v70h294l-223 104l30 64
l314 -148v187h70v-187l314 148z" />
    <glyph glyph-name="uni66D6" unicode="&#x66d6;" horiz-adv-x="1063" 
d="M269 -8l126 69h-209v69h209l-126 69l33 60l191 -105v131h69v-131l191 105l33 -60l-126 -69h210v-69h-210l126 -69l-33 -60l-225 124l-226 -124zM269 359l126 70h-209v68h209l-126 70l33 60l191 -106v131h69v-131l191 106l33 -60l-126 -70h210v-68h-210l126 -70l-33 -60
l-225 125l-226 -125zM83 750h900v-900h-900v900zM915 -82v764h-764v-764h764z" />
    <glyph glyph-name="uni60AA" unicode="&#x60aa;" horiz-adv-x="1011" 
d="M50 750h900v-900h-900v900zM880 680h-760v-61h760v61zM120 194h760v70h-760v-70zM880 124h-760v-73h760v73zM120 336h760v70h-760v-70zM120 476h760v73h-760v-73zM120 -80h760v61h-760v-61z" />
    <glyph glyph-name="uni63E1" unicode="&#x63e1;" horiz-adv-x="1057" 
d="M947 -10l36 -59l-137 -81l-35 60l38 22q-68 103 -133 103h-2q-36 0 -71.5 -29.5t-62.5 -69.5l41 -12l-20 -66l-163 48l20 66l38 -11v606q-69 -77 -146 -77h-3q-23 1 -45.5 8t-42 19.5t-36 26.5t-31 30.5t-24.5 30t-19 26.5l-36 -21l-36 59l137 81l35 -60l-40 -23
q9 -14 19.5 -27.5t25 -28.5t29 -26t32 -18t33.5 -8q67 -2 135 103l-39 12l19 66l163 -48l-19 -66l-42 12v-611q72 76 148 78q105 3 195 -138z" />
    <glyph glyph-name="uni5727" unicode="&#x5727;" horiz-adv-x="972" 
d="M840 476q36 -84 36 -176t-36 -176q-34 -81 -96.5 -144t-143.5 -97q-85 -35 -177 -35t-176 35q-81 34 -144 97l-5 5l50 49q3 -2 5 -4q54 -55 124 -83.5t146.5 -28.5t146.5 28.5t124 83t83 124t29 146.5t-29 146.5t-83 124t-124 83t-146.5 28.5t-146.5 -28.5t-124 -83.5
q-2 -2 -5 -4l-50 49l5 5q63 63 144 97q84 35 176 35t177 -35q81 -34 143.5 -97t96.5 -144zM285 -27q-63 27 -113 76l-4 4l51 49q2 -3 3 -3q83 -84 201 -84t201.5 83.5t83.5 201.5t-83.5 201.5t-201.5 83.5t-201 -84q-1 0 -3 -3l-51 49l4 4q50 49 113 76q66 28 138.5 28
t138.5 -28q63 -27 112 -76t76 -113q28 -66 28 -138t-28 -138q-27 -64 -76 -113t-112 -76q-66 -28 -138.5 -28t-138.5 28zM423.5 49q-104.5 0 -177.5 73l-3 3l50 49q54 -55 130 -55q75 0 128.5 53t53.5 128t-53.5 128t-128.5 53q-76 0 -130 -55l-50 49l3 3q73 73 177.5 73
t178 -73.5t73.5 -177.5t-73.5 -177.5t-178 -73.5zM423 149q-64 0 -108 46l50 49q24 -25 58 -25t58 23.5t24 57.5t-24 57.5t-58 23.5t-58 -25l-50 49q44 46 108 46q63 0 107.5 -44t44.5 -107t-44.5 -107t-107.5 -44z" />
    <glyph glyph-name="uni6271" unicode="&#x6271;" horiz-adv-x="1117" 
d="M1010 349v-72h-424l-425 -427l-51 51l425 427v422h72v-401h403z" />
    <glyph glyph-name="uni5B9B" unicode="&#x5b9b;" horiz-adv-x="1153" 
d="M611 328l427 -427l-51 -51l-412 412l-412 -412l-51 51l427 427v422h72v-241h207v-72h-207v-109z" />
    <glyph glyph-name="uni5D50" unicode="&#x5d50;" horiz-adv-x="1177" 
d="M882 314l179 -436l-68 -28l-148 361l-147 -361l-68 28l179 436v119h-450v-119l179 -436l-68 -28l-147 361l-148 -361l-68 28l179 436v436h73v-244h450v244h73v-244h64h45v-73h-45h-64v-119z" />
    <glyph glyph-name="uni5B89" unicode="&#x5b89;" horiz-adv-x="1063" 
d="M283 455l-146 -196l-57 42l167 226v223h71v-113h430v113h71v-113h61v-72h-61v-38l167 -226l-57 -42l-146 196l-145 -196l-57 42l167 226v38h-430v-38l167 -226l-57 -42zM569 177v-121l409 -138l-23 -68l-422 143l-422 -143l-23 68l409 138v121h72z" />
    <glyph glyph-name="uni6848" unicode="&#x6848;" horiz-adv-x="1060" 
d="M565 317l417 -417l-50 -50l-402 402l-402 -402l-50 50l417 417v413h70v-236h202v-71h-202v-106zM103 231l241 109l1 113l-242 109l29 64l213 -96v50l-242 105l28 65l285 -125l-2 -330l-282 -128z" />
    <glyph glyph-name="uni6697" unicode="&#x6697;" horiz-adv-x="1078" 
d="M935 -37v43h74v-156h-74v39h-792v-39h-74v156h74v-43h792zM149 56l-65 35l138 260h-105v74h134v291h74v-167h58v-74h-58v-50h137h294l75 132q-93 61 -224 68v-61h-74v186h74v-51q149 -7 260 -79l20 34l64 -37l-25 -43q83 -81 83 -179q0 -114 -69 -183q-2 -2 -7 -5.5
t-6 -5.5l24 -43l-64 -36l-22 38q-137 -68 -449 -70v-58h-74v186h74v-54q292 3 412 61l-72 126h-294h-36l164 -105l-40 -62l-248 158zM935 395q0 60 -46 113l-69 -120l69 -121q46 47 46 128z" />
    <glyph glyph-name="uni4EE5" unicode="&#x4ee5;" horiz-adv-x="1063" 
d="M565 309l410 -410l-49 -49l-396 396l-396 -396l-49 49l158 158v624h-124v69h822v-69h-376v-198h199v-69h-199v-105zM313 127l182 182v372h-182v-554z" />
    <glyph glyph-name="uni8863" unicode="&#x8863;" horiz-adv-x="1048" 
d="M413 283l-38 -58l-290 190l37 58zM413 482l-38 -58l-290 190l37 58zM571 309l398 -411l-49 -48l-384 395l-383 -395l-49 48l398 411v372h-364v69h797v-69h-364v-198h192v-69h-192v-105z" />
    <glyph glyph-name="uni4F4D" unicode="&#x4f4d;" horiz-adv-x="948" 
d="M650 -150h-347q-111 0 -164 61q-13 15 -21.5 33t-12 32.5t-4 29t-0.5 20t1 9.5l-1 121h71l1 -126q-4 -46 20 -73q32 -36 110 -36h347q79 0 110 37q11 12 16.5 29.5t4.5 26t0 11.5v725h71v-720l0.5 -7.5t-0.5 -20t-4.5 -27t-12 -32t-21.5 -32.5q-53 -61 -164 -61z" />
    <glyph glyph-name="uni571F" unicode="&#x571f;" horiz-adv-x="1069" 
d="M563 -14h344v78h71v-214h-71v65h-756v-65h-71v214h72v-78h339v693h-93v71h263v-71h-98v-693z" />
    <glyph glyph-name="uni56F2" unicode="&#x56f2;" horiz-adv-x="983" 
d="M894 369l-218 -192q-6 -17 -13 -33q-30 -73 -86 -128.5t-128 -86.5q-75 -31 -157 -31q-43 0 -85 9l9 -45l-69 -14l-41 198l69 14l16 -76q49 -16 101 -16q138 0 236 97q58 58 82 136l-218 123l35 61l197 -111q1 13 1 26q0 138 -97.5 235.5t-235.5 97.5q-52 0 -101 -16
l-16 -77l-69 14l41 198l69 -14l-9 -44q42 9 85 9q82 0 157 -32q72 -30 128 -86t86 -128q32 -75 32 -157v-12l153 134z" />
    <glyph glyph-name="uni533B" unicode="&#x533b;" horiz-adv-x="974" 
d="M798 -16l16 76l69 -14l-42 -198l-68 14l9 45q-42 -9 -85 -9q-82 0 -157 31q-72 31 -128 86.5t-86 128.5q-11 25 -18 52l-173 -150l-46 52l206 180q-1 11 -1 22q0 82 32 157q30 72 86 128t128 86q75 32 157 32q43 0 85 -9l-9 44l68 14l42 -198l-69 -14l-16 77
q-49 16 -101 16q-138 0 -235.5 -97.5t-97.5 -235t97.5 -235t235.5 -97.5q52 0 101 16z" />
    <glyph glyph-name="uni4F9B" unicode="&#x4f9b;" horiz-adv-x="1073" 
d="M73 750h900v-900h-900v900zM905 -82v764h-764v-764h764zM544 408v68h274v-68h-103v-216h103v-68h-274v68h103v216h-103zM592 56v-68h-369v68h150v488h-150v68h369v-68h-150v-488h150z" />
    <glyph glyph-name="uni4F9D" unicode="&#x4f9d;" 
d="M297 682v68h159v-69h-47v-762l47 -1v-68h-159v69h43v188q-45 -58 -112 -91t-144 -33v69q70 0 129 33.5t93 91t34 125.5q0 103 -75 176.5t-181 73.5v68q51 0 99 -15t87.5 -42.5t69.5 -65.5v184zM916 552q-106 0 -181 -73.5t-75 -177t75 -176.5t181 -73v-69q-77 0 -144 33
t-112 91v-188h43v-69h-159v68l47 1v762h-47v69h159v-68l-43 -1v-184q45 57 112 90t144 33v-68z" />
    <glyph glyph-name="uni63A5" unicode="&#x63a5;" 
d="M834 47l68 16l48 -196l-68 -17l-16 67q-55 -17 -113 -17q-81 0 -155 32q-54 22 -98 59q-44 -37 -98 -59q-74 -32 -155 -32q-58 0 -113 17l-16 -67l-68 17l48 196l68 -16l-15 -62q47 -15 96 -15q114 0 203 70q-41 47 -65 105q-31 74 -31 155.5t31 155.5q24 57 65 104
q-89 70 -203 70q-49 0 -96 -14l15 -63l-68 -16l-48 196l68 17l16 -66q55 16 113 16q81 0 155 -31q54 -23 98 -59q44 36 98 59q74 31 155 31q58 0 113 -16l16 66l68 -17l-48 -196l-68 16l15 63q-47 14 -96 14q-114 0 -203 -70q41 -47 65 -104q31 -74 31 -155.5t-31 -155.5
q-24 -58 -65 -105q89 -70 203 -70q49 0 96 15zM500 511q-76 -91 -76 -211t76 -211q76 91 76 211t-76 211z" />
    <glyph glyph-name="uni59D4" unicode="&#x59d4;" 
d="M118 121l21 -38q112 51 190 123q-57 72 -56 145q2 74 60 147q-68 62 -193 122l-22 -40l-61 33l75 137l61 -34l-20 -35q131 -63 208 -132q80 74 200 131l-18 33l61 34l75 -137l-62 -33l-23 42q-109 -51 -185 -121q56 -71 55 -145t-60 -147q70 -63 197 -123l21 38l61 -33
l-75 -137l-61 34l20 37q-133 63 -210 133q-82 -76 -205 -133l21 -37l-61 -34l-75 137zM343 350q-1 -44 34 -92q36 50 37 96q1 44 -33 92q-37 -50 -38 -96zM731 482q34 30 79 55l-12 20l61 35l61 -108l-60 -34l-15 26q-38 -21 -67 -47q25 -40 25 -82q-1 -41 -27 -81
q29 -26 75 -51l13 25l62 -32l-56 -108l-62 33l11 21q-55 30 -89 59q-38 -34 -88 -61l10 -19l-61 -33l-59 107l61 34l15 -27q43 23 75 52q-25 39 -25 81q1 42 27 82q-29 25 -74 50l-15 -28l-62 32l57 108l61 -33l-9 -17q54 -30 88 -59zM733 349q0 3 -2 12q-3 -12 -3 -15
q0 -4 2 -12q3 12 3 15zM53 -150v70h894v-70h-894z" />
    <glyph glyph-name="uni5A01" unicode="&#x5a01;" horiz-adv-x="1070" 
d="M911 60l64 -27l-60 -147l-64 26l19 48q-102 66 -164 137q-67 -78 -160 -137l20 -48l-65 -26l-60 147l65 27l13 -34q88 58 144 129q-49 80 -47 160t51 159q-51 64 -147 127l-14 -35l-65 26l60 148l65 -26l-19 -47q101 -65 162 -135q64 76 156 134l-18 45l65 26l60 -148
l-65 -26l-15 37q-86 -57 -141 -126q49 -80 48 -160q-2 -80 -51 -159q52 -65 149 -129zM685 314q0 -44 21 -92q22 47 23 93q1 44 -20 92q-23 -47 -24 -93zM465 293q-2 -53 -20.5 -105t-47.5 -92t-52.5 -65.5t-47.5 -46.5q5 -17 5 -31q0 -44 -31 -75t-74.5 -31t-75 31
t-31.5 75t31.5 75t74.5 31q33 0 60 -19q21 19 40.5 41t43.5 55.5t39 75t16 83.5q3 132 -142 258q-27 -18 -58 -18q-44 0 -75 31t-31 75t31 75t75 31t75 -31t31 -75q0 -15 -6 -33q174 -148 170 -315zM195 605q15 0 25.5 10.5t10.5 25.5t-10.5 25.5t-25.5 10.5t-25.5 -10.5
t-10.5 -25.5t10.5 -25.5t25.5 -10.5zM196 -83q15 0 26 10.5t11 25.5t-11 25.5t-26 10.5t-25.5 -10.5t-10.5 -25.5t10.5 -25.5t25.5 -10.5z" />
    <glyph glyph-name="uni70BA" unicode="&#x70ba;" horiz-adv-x="1057" 
d="M915 525h57v-73h-884v73h45l-45 209l71 16l49 -225h15l-46 213l35 8l49 -221h15l-46 209l72 16l49 -225h64l-46 209l72 16l49 -225h15l-46 213l35 8l48 -221h16l-46 209l72 16l49 -225h64l-46 209l72 16l49 -225h15l-46 213l35 8l49 -221h15l-45 209l71 16zM88 86v72h884
v-72h-55l-51 -236l-71 16l47 220h-15l-51 -232l-35 8l49 224h-16l-51 -236l-72 16l48 220h-64l-51 -236l-72 16l48 220h-15l-51 -232l-35 8l49 224h-16l-51 -236l-72 16l48 220h-64l-51 -236l-72 16l48 220h-15l-51 -232l-35 8l49 224h-16l-51 -236l-71 16l47 220h-47z" />
    <glyph glyph-name="uni754F" unicode="&#x754f;" horiz-adv-x="1117" 
d="M362 639v111h74v-900h-74v138l-170 -44l-19 72l189 49v210l-170 -44l-19 72l189 49v210l-170 -44l-19 72zM928 231l-179 47v-211l198 -51l-19 -72l-179 47v-141h-74v900h74v-109l198 -51l-19 -72l-179 47v-211l198 -51zM970 -132v881h74v-881h-74zM70 -132v881h74v-881
h-74z" />
    <glyph glyph-name="uni80C3" unicode="&#x80c3;" 
d="M827 -82h106v-68h-280v68h105v363h-622v-83h-69v235h69v-83h622v332h-117v68h281v-68h-95v-764z" />
    <glyph glyph-name="uni598A" unicode="&#x598a;" horiz-adv-x="939" 
d="M843 682h-341v-112q13 1 27 1q124 0 211 -79q42 -37 66 -86q24 -51 24 -107t-24 -107q-24 -49 -66 -86q-87 -79 -211 -79q-14 0 -27 1v-110h341v-68h-745v68h335v764h-335v68h745v-68zM529 501q-14 0 -27 -2v-400q13 -2 27 -2q96 0 163.5 59.5t67.5 142.5t-67.5 142.5
t-163.5 59.5z" />
    <glyph glyph-name="uni8A17" unicode="&#x8a17;" horiz-adv-x="1039" 
d="M573 252v-334h122v-68h-323v68h132v306l-425 -171v255h68v-153l357 143v384h-132v68h323v-68h-122v-356l359 144l25 -63z" />
    <glyph glyph-name="uni5927" unicode="&#x5927;" horiz-adv-x="1026" 
d="M76 386l387 77v142l-387 77l14 68l407 -82l410 82l14 -67l-389 -78v-141l389 -78l-14 -67l-408 82l-409 -82zM61 287h888v-437h-888v437zM881 -81v300h-752v-300h752z" />
    <glyph glyph-name="uni5FC3" unicode="&#x5fc3;" horiz-adv-x="1048" 
d="M718 750q250 -210 245 -449q-2 -72 -28 -144t-57.5 -120.5t-72.5 -93.5t-59 -60.5t-29 -24.5l-40 57q5 3 13.5 10t30.5 29t42.5 45.5t45.5 59.5t43 73h-653q53 -119 180 -228l-42 -54q-245 210 -240 449q2 72 27.5 144t56.5 120t71 93.5t57 60.5t29 24l40 -56
q-5 -3 -14 -11.5t-33.5 -32.5t-46 -51t-47 -67t-41.5 -81h675q-50 132 -195 254zM175 201h704q16 53 17 102q0 30 -6 69h-716q-9 -39 -10 -75q-1 -47 11 -96z" />
    <glyph glyph-name="uni76EE" unicode="&#x76ee;" 
d="M628 85v429h70v-429h-70zM302 81v438h70v-438h-70zM884 561q66 -121 66 -261t-66 -261q-64 -118 -174 -189l-38 59q95 61 151 163q57 106 57 228t-57 228q-56 102 -151 163l38 59q110 -71 174 -189zM177 72q56 -102 151 -163l-38 -59q-110 71 -174 189q-66 121 -66 261
t66 261q64 118 174 189l38 -59q-95 -61 -151 -163q-57 -106 -57 -228t57 -228z" />
    <glyph glyph-name="uni898B" unicode="&#x898b;" 
d="M930 571v-70h-860v70h191l-149 126l46 53l211 -179h96v161h70v-161h109l211 179l46 -53l-148 -126h177zM137 261q-27 -84 -11 -165q20 -103 110 -198l-51 -48q-104 111 -128 234q-19 100 14 202q17 50 47 98t44 64.5t24 25.5l24 -25l25 -25q-8 -7 -20 -21t-38 -56.5
t-40 -85.5zM929 286q33 -102 14 -202q-24 -123 -128 -234l-51 48q90 96 110 200q16 81 -12 165q-14 43 -40 85t-37.5 55.5t-19.5 20.5l49 50l10 -10t21 -25t28.5 -39.5t29 -51.5t26.5 -62zM621 19v300h68v-300h-68zM311 16v306h68v-306h-68z" />
    <glyph glyph-name="uni5C09" unicode="&#x5c09;" 
d="M916 254h-72v-336h65v-68h-205v68h71v336h-546v-336h65v-68h-205v68h72v336h-77v69h77v359h-72v68h205v-68h-65v-359h546v359h-71v68h205v-68h-65v-359h72v-69z" />
    <glyph glyph-name="uni7570" unicode="&#x7570;" 
d="M916 509h-72v-591h65v-68h-205v68h71v591h-546v-591h65v-68h-205v68h71v591h-76v69h76v104h-71v68h205v-68h-65v-104h546v104h-71v68h205v-68h-65v-104h72v-69zM263 12l203 98v210l-203 98l30 61l206 -99l208 100l30 -62l-203 -97v-211l203 -97l-30 -62l-206 99l-208 -99
z" />
    <glyph glyph-name="uni79FB" unicode="&#x79fb;" 
d="M933 437h-69v-51h69v-70h-69v-390h69v-70h-214v70h75v390h-582v-390h69v-70h-214v70h75v390h-75v70h75v51h-75v70h214v-70h-69v-51h582v51h-75v70h214v-70zM535 172v-101l169 -56l-22 -66l-181 60l-183 -61l-22 67l169 56v101l-169 56l22 66l182 -60l182 60l22 -66z
M458 565v157h70v-157h-70zM95 685l38 58l228 -149l-39 -59zM639 594l228 150l38 -59l-228 -150z" />
    <glyph glyph-name="uni840E" unicode="&#x840e;" 
d="M722 -60h-56l-21 -50l-63 26l9 24h-68l-21 -50l-63 26l10 24h-69l-21 -50l-63 26l10 24h-33v68h449v-68zM273 39v68h31l-8 21l63 26l19 -47h69l-8 21l63 26l19 -47h69l-8 21l63 26l19 -47h58v-68h-449zM247 271h68v-17h9v143h-9v-22h-68v110h68v-20h370v20h68v-110h-68
v22h-9v-143h9v17h68v-105h-68v19h-370v-19h-68v105zM487 254h26v143h-26v-143zM608 254v143h-26v-143h26zM393 397v-143h26v143h-26zM916 509h-72v-591h65v-68h-205v68h72v591h-547v-591h65v-68h-205v68h71v591h-76v69h76v104h-71v68h205v-68h-65v-104h547v104h-72v68h205
v-68h-65v-104h72v-69z" />
    <glyph glyph-name="uni5049" unicode="&#x5049;" horiz-adv-x="1057" 
d="M940 575v-73h-841v73h174l-141 120l47 55l206 -175h91v156h73v-156h104l207 175l46 -55l-141 -120h175zM899 38h72v-188h-72v58h-756v-58h-72v188h72v-57h341v380h-80v72h231v-72h-78v-380h342v57z" />
    <glyph glyph-name="uni6905" unicode="&#x6905;" horiz-adv-x="1036" 
d="M893 -20v58h73v-188h-73v58h-451v-58h-72v188h72v-58h189v380h-80v73h231v-73h-79v-380h190zM875 587h91v-70h-593v70h94l-61 134l63 29l74 -163h92v148h70v-148h93l75 163l63 -29zM319 555l-48 -51l-205 195l48 51zM66 497l48 50l205 -194l-48 -51zM66 -99l204 194
l48 -51l-204 -194z" />
    <glyph glyph-name="uni5F59" unicode="&#x5f59;" horiz-adv-x="1162" 
d="M1095 577l-196 -114q11 -41 11 -82q0 -110 -65.5 -197.5t-168.5 -119.5v-214h-71v201q-17 -2 -27 -2q-5 0 -21 2v-201h-72v213q-104 30 -171 118t-67 200q0 40 10 81l-190 110l36 62l180 -104q11 23 26 43l-191 110l36 62l204 -117q94 84 220 84q123 0 216 -80l206 118
l35 -62l-191 -110q17 -23 29 -47l186 108zM578.5 121q107.5 0 183.5 76t76 183.5t-76 184t-183.5 76.5t-184 -76.5t-76.5 -184t76.5 -183.5t184 -76z" />
    <glyph glyph-name="uni610F" unicode="&#x610f;" horiz-adv-x="1080" 
d="M939 750h71v-900h-936v900h71v-186h794v186zM939 493h-794v-20h794v20zM145 107h794v20h-794v-20zM939 36h-794v-21h794v21zM145 198h794v21h-794v-21zM145 290h794v20h-794v-20zM145 381h794v20h-794v-20zM145 -79h794v23h-794v-23z" />
    <glyph glyph-name="uni9055" unicode="&#x9055;" horiz-adv-x="1102" 
d="M1032 525h-74v79h-51v-601h51v72h74v-225h-74v79h-826v-79h-74v225h74v-72h53v601h-53v-79h-74v225h74v-72h826v72h74v-225zM617 604h-142v-601h142v601zM259 604v-601h142v601h-142zM833 3v601h-142v-601h142z" />
    <glyph glyph-name="uni7DAD" unicode="&#x7dad;" horiz-adv-x="1117" 
d="M571 678v72h74v-225h-74v79h-14v-601h14v72h74v-225h-74v79h-425v-79h-75v225h75v-72h15v601h-15v-79h-75v225h75v-72h425zM375 604h-33v-601h33v601zM235 604v-601h33v601h-33zM483 3v601h-34v-601h34zM883 96l154 -176l-56 -48l-134 153l-134 -154l-56 49l152 174v161
l-152 175l56 49l96 -111v140l-152 175l56 48l133 -153l135 154l55 -48l-153 -176v-140l98 112l55 -49l-153 -176v-159z" />
    <glyph glyph-name="uni6170" unicode="&#x6170;" 
d="M866 23l48 -52l-133 -121l-47 52l41 37l-257 288v-240h81v-70h-220v70h70v203l-224 -251l41 -37l-47 -52l-133 121l48 52l40 -37l248 279h-240v-81h-70v220h70v-69h240l-248 279l-40 -37l-47 52l132 121l47 -52l-41 -37l224 -251v192h-70v70h220v-70h-81v-229l257 288
l-41 37l47 52l132 -121l-47 -52l-40 37l-248 -279h218v69h70v-220h-70v81h-218l248 -279z" />
    <glyph glyph-name="uni907A" unicode="&#x907a;" 
d="M844 2h73v-152h-73v40h-688v-40h-73v152h73v-40h291v306l-211 -193l30 -35l-55 -47l-108 127l55 47l31 -37l218 199h-227v-59h-72v181h72v-50h237l-229 210l-30 -35l-55 47l108 127l55 -47l-32 -37l213 -194v185h-69v72h221v-72h-80v-225l256 234l-31 37l55 47l107 -127
l-55 -47l-29 35l-230 -210h204v50h73v-181h-73v59h-193l217 -199l31 37l55 -47l-107 -127l-55 47l29 35l-254 233v-346h325v40z" />
    <glyph glyph-name="uni7DEF" unicode="&#x7def;" horiz-adv-x="1047" 
d="M555 205v-117h33v-68h-141v68h40v108l-122 -151l34 -27l-42 -53l-124 97l43 54l35 -28l141 174h-115v-32h-69v134h69v-33h117l-143 178l-35 -28l-43 54l124 97l42 -54l-34 -27l122 -152v101h-40v69h141v-69h-33v-109l129 160l-34 27l42 54l124 -97l-43 -54l-35 28
l-143 -178h108v33h69v-134h-69v32h-106l140 -174l36 28l42 -54l-123 -97l-42 53l34 27zM138 300q0 -91 36 -172t100 -136t144 -73l-15 -67q-145 32 -239.5 158.5t-94.5 289.5q0 107 43 202t119.5 160t171.5 86l15 -67q-80 -18 -144 -73t-100 -136t-36 -172zM625 750
q74 -14 138.5 -55t110 -100t71.5 -135.5t26 -159.5q0 -168 -98 -295t-248 -155l-12 67q125 24 207 132t82 251t-82 251t-207 132z" />
    <glyph glyph-name="uni57DF" unicode="&#x57df;" horiz-adv-x="1057" 
d="M76 680v70h902v-70h-902zM76 489v69h902v-69h-902zM895 -19l19 33l61 -34l-75 -130l-60 35l20 35l-297 184v-132h83v-70h-247v70h95v119l-276 -171l20 -35l-60 -35l-75 130l61 34l19 -33l215 133h-216v-47h-70v163h70v-46h252l-250 155l-20 -35l-61 34l75 130l60 -35
l-19 -34l275 -170v92h-95v70h247v-70h-83v-105l296 183l-19 34l60 35l75 -130l-61 -34l-20 35l-250 -155h228v46h70v-163h-70v47h-192z" />
    <glyph glyph-name="uni80B2" unicode="&#x80b2;" 
d="M837 -26l31 26l45 -54l-114 -96l-45 53l30 26l-59 66q-104 -79 -233 -79q-123 0 -224 71l-52 -58l30 -26l-45 -53l-114 96l45 54l31 -26l52 58q-53 54 -83 124.5t-30 148.5q0 77 28.5 146t79.5 122l-47 54l-31 -27l-45 54l114 96l45 -53l-30 -25l47 -53q102 75 229 75
q133 0 238 -82l54 60l-30 25l45 53l114 -96l-45 -54l-31 27l-56 -63q100 -111 100 -259q0 -151 -104 -264zM811 305q0 117 -76 207l-158 -178h120v47h70v-164h-70v47h-118l151 -170q81 91 81 211zM492 624q-100 0 -183 -57l149 -167v102h-52v69h165v-69h-44v-119l157 176
q-86 65 -192 65zM172 305q0 -128 89 -221l160 180h-135v-47h-70v164h70v-47h137l-166 187q-85 -92 -85 -216zM492 -14q103 0 187 61l-152 170v-126h44v-69h-165v69h52v109l-143 -161q80 -53 177 -53z" />
    <glyph glyph-name="uni58F1" unicode="&#x58f1;" 
d="M605 341q-29 -28 -70 -37v-247h389v-207h-70v137h-319v-137h-70v137h-319v-137h-70v207h389v247q-40 9 -70 37l-215 -193l-130 4l2 70l102 -3l202 182q-7 21 -7 43q0 27 10 51l-205 184l-102 -3l-2 70l130 4l220 -198q43 37 100 37t100 -37l220 198l130 -4l-2 -70l-102 3
l-205 -184q10 -24 10 -51q0 -22 -7 -43l202 -182l102 3l2 -70l-130 -4zM419 444q0 -31 24 -52.5t57 -21.5q16 0 31 6t26 15.5t17.5 23.5t6.5 29q0 31 -24 53t-57 22t-57 -22t-24 -53z" />
    <glyph glyph-name="uni5B57" unicode="&#x5b57;" horiz-adv-x="1276" 
d="M1128 11l-27 -65l-162 68l28 65zM733 400q-48 0 -82.5 34t-34.5 82t34.5 82.5t82.5 34.5t82 -34.5t34 -82.5t-34 -82t-82 -34zM733 563q-19 0 -33 -13.5t-14 -33t14 -33t33 -13.5t32.5 13.5t13.5 33t-13.5 33t-32.5 13.5zM1113 201l-65 54l-315 -401l-326 757l-226 -254
l-52 46l299 336l322 -749l36 45q-46 39 -56 96q-10 60 27 105t99 46q53 1 99 -32l40 50l-68 57l45 53l186 -156zM800 142q5 -30 29 -52l83 105q-26 18 -55 17t-45.5 -21t-11.5 -49zM236 341q10 0 17.5 -7t9 -18t-4 -19t-16.5 -11q-3 -1 -7 -1q-10 0 -17.5 7t-9 17.5t4 19
t15.5 11.5q4 1 8 1zM343 465q11 0 18.5 -7.5t8.5 -18t-4.5 -19t-15.5 -10.5q-4 -1 -8 -1q-10 0 -17.5 7t-8.5 18q-1 5 0 10t4 8.5t7 6.5t9 5q4 1 7 1zM290 405q10 0 17.5 -7t9 -18t-4 -19t-16.5 -11q-3 -1 -7 -1q-7 0 -12.5 3t-9.5 9t-5 13t1.5 13t7.5 10.5t11 6.5q4 1 8 1z
M396 527q10 0 17.5 -7t9 -17.5t-4 -19t-15.5 -11.5q-4 -1 -8 -1q-10 0 -17.5 7t-9 18t4 19.5t16.5 10.5q3 1 7 1z" />
    <glyph glyph-name="uni9038" unicode="&#x9038;" 
d="M858 276l-361 -35q2 -51 -11.5 -103.5t-36.5 -94.5t-40.5 -68t-34.5 -46l26 -41l-59 -38l-80 124l59 38l14 -22q75 98 90 197q-25 -28 -59 -52t-62 -37.5t-58.5 -24t-42 -13.5t-19.5 -5q-10 -1 -20 -1q-63 0 -87 42q-9 17 -10 37t6 40.5t22 40.5q18 24 83.5 44.5
t121.5 29.5t115 16l1 1q-35 108 -174 192l-5 -27l-69 15l31 144l68 -14l-9 -46q142 -80 200 -187l155 287l-37 17l28 64l135 -61l-28 -64l-34 15l-178 -328l341 32l-11 42l67 18l39 -143l-67 -18zM173 124q13 0 64 21q80 32 128 82q-82 -12 -143 -27.5t-72 -27.5
q-10 -13 -13 -25.5t0 -15.5q6 -9 36 -7z" />
    <glyph glyph-name="uni8328" unicode="&#x8328;" horiz-adv-x="1048" 
d="M881 2v79h72v-231h-72v80h-708v-80h-72v231h72v-79h101v442q-69 57 -109 151l-48 -41l-47 54l164 142l47 -54l-59 -51q79 -212 305 -212q28 0 54.5 3.5t56 12.5t56.5 25t52 38.5t47.5 56.5t38.5 76l-59 51l47 54l164 -142l-47 -54l-48 42q-41 -93 -109 -150v-444h101z
M346 398v-396h362v398q-80 -39 -181 -39q-102 0 -181 37z" />
    <glyph glyph-name="uni611B" unicode="&#x611b;" 
d="M931 24l-46 -69l65 -49l-42 -56l-77 58q-38 -8 -78 -8q-81 0 -155 32q-54 22 -98 59q-44 -37 -98 -59q-74 -32 -155 -32q-40 0 -78 8l-77 -58l-42 56l65 49l-46 69l58 39l58 -87q31 -6 62 -6q114 0 203 70q-41 47 -65 105t-30 120h-86l-68 -73l-51 48l56 60l-57 59l50 49
l70 -73h86q5 63 30 121q24 57 65 104q-89 70 -203 70q-31 0 -61 -6l-59 -87l-58 39l46 69l-65 49l42 56l76 -58q39 8 79 8q81 0 155 -31q54 -23 98 -59q44 36 98 59q74 31 155 31q40 0 79 -8l76 58l42 -56l-65 -49l46 -69l-58 -39l-59 87q-30 6 -61 6q-114 0 -203 -70
q41 -47 65 -104q25 -58 30 -121h86l70 73l50 -49l-57 -59l56 -60l-51 -48l-68 73h-86q-6 -62 -30 -120t-65 -105q89 -70 203 -70q31 0 62 6l58 87zM500 511q-76 -91 -76 -211t76 -211q76 91 76 211t-76 211z" />
    <glyph glyph-name="uni828B" unicode="&#x828b;" 
d="M937 680h-160v-758h160v-70h-401v70h171v758h-171v70h401v-70zM123 73l257 365l57 -40l-257 -365zM63 285l317 450l57 -40l-317 -450zM201 -110l179 254l56 -40l-178 -254z" />
    <glyph glyph-name="uni53E3" unicode="&#x53e3;" 
d="M926 328v-70h-59q-6 -66 -29.5 -131t-48.5 -108.5t-56 -84t-44 -54.5t-22 -22l-48 52q6 5 17.5 17t38.5 47t50 74t44 96t28 114h-586q13 -188 177 -359l-51 -49q-183 192 -196 408h-67v70h67q4 49 16.5 98t29 87.5t37.5 76t38.5 62t36.5 47t27 30.5l12 12l49 -51
q-9 -8 -18.5 -18t-38.5 -48.5t-50.5 -78t-42.5 -99t-26 -118.5h588q-7 195 -181 373l50 49q194 -198 201 -422h57z" />
    <glyph glyph-name="uni5370" unicode="&#x5370;" horiz-adv-x="961" 
d="M868 466l-387 -176v-206l387 -171l-28 -63l-428 189v488l428 194l28 -63l-387 -176v-117l359 163zM292 681v-760h124v-69h-326v69h134v760h-134v69h326v-69h-124z" />
    <glyph glyph-name="uni54E1" unicode="&#x54e1;" horiz-adv-x="1099" 
d="M756 283h-307l-312 -418l-57 43l315 422v420h72v-396h289v-71zM918 -79h104v-71h-275v71h100v818h71v-818z" />
    <glyph glyph-name="uni9662" unicode="&#x9662;" horiz-adv-x="1030" 
d="M909 249v-329h51v-70h-161v70h40v259h-178v-259h45v-70h-161v70h46v259h-175v-259h45v-70h-161v70h46v259h-170v-259h45v-70h-161v70h46v329h803zM799 750h161v-70h-51v-329h-803v329h-46v70h161v-70h-45v-259h170v259h-46v70h161v-70h-45v-259h175v259h-46v70h161v-70
h-45v-259h178v259h-40v70z" />
    <glyph glyph-name="uni6DEB" unicode="&#x6deb;" 
d="M835 16l66 66l49 -50l-181 -180l-50 49l66 66l-152 151q-41 -48 -66 -106q-32 -78 -32 -162h-70q0 84 -32 162q-25 58 -66 106l-152 -151l66 -66l-50 -49l-181 180l49 50l66 -66l153 152q-48 40 -105 64q-77 33 -161 33v70q84 0 161 33q57 24 105 64l-153 152l-66 -66
l-49 50l181 180l50 -49l-66 -66l152 -151q41 48 66 106q32 78 32 162h70q0 -84 32 -162q25 -58 66 -106l152 151l-66 66l50 49l181 -180l-49 -50l-66 66l-153 -152q48 -40 105 -64q77 -33 161 -33v-70q-84 0 -161 -33q-57 -24 -105 -64zM760 303q-70 30 -127 80l-83 -83
l83 -83q57 50 127 80q4 1 8 3q-5 2 -8 3zM497 561q-30 -71 -80 -129l83 -83l83 83q-50 58 -80 129q-1 4 -3 7q-1 -3 -3 -7zM240 297q70 -30 127 -80l83 83l-83 83q-57 -50 -127 -80q-4 -1 -8 -3q4 -2 8 -3zM503 39q30 71 80 129l-83 83l-83 -83q50 -58 80 -129q2 -4 3 -7
q2 3 3 7z" />
    <glyph glyph-name="uni9670" unicode="&#x9670;" 
d="M789 60l161 1v-70l-141 -1v-140l-70 1v160l-106 107q-41 -48 -65 -106q-33 -78 -33 -162h-70q0 84 -33 162q-24 58 -65 106l-106 -107v-160l-70 -1v140l-141 1v70l161 -1l107 107q-48 41 -106 65q-77 33 -162 33v70q85 0 162 33q58 24 106 65l-107 107l-161 -1v70l141 1
v140l70 -1v-160l106 -107q41 48 65 106q33 78 33 162h70q0 -84 33 -162q24 -58 65 -106l106 107v160l70 1v-140l141 -1v-70l-161 1l-107 -107q48 -41 106 -65q78 -33 162 -33v-70q-84 0 -162 -33q-58 -24 -106 -65zM761 303q-70 30 -128 80l-84 -83l84 -83q58 50 128 80
q4 1 8 3q-4 2 -8 3zM497 561q-30 -70 -80 -128l83 -84l83 84q-50 58 -80 128q-2 4 -3 8q-2 -4 -3 -8zM239 297q71 -30 128 -80l84 83l-84 83q-57 -50 -128 -80q-4 -1 -8 -3q4 -2 8 -3zM503 39q30 70 80 128l-83 83l-83 -83q50 -58 80 -128q1 -4 3 -8q2 4 3 8z" />
    <glyph glyph-name="uni98F2" unicode="&#x98f2;" 
d="M682 433q48 -41 106 -65q78 -33 162 -33v-70q-84 0 -162 -33q-58 -24 -106 -65l82 -81l71 71l115 -116l-49 -49l-66 66l-22 -22l66 -66l-49 -49l-66 66l-22 -22l66 -66l-49 -49l-116 115l71 71l-81 82q-41 -48 -65 -106q-33 -78 -33 -162h-70q0 84 -33 162
q-24 58 -65 106l-81 -82l71 -71l-116 -115l-49 49l66 66l-22 22l-66 -66l-49 49l66 66l-22 22l-66 -66l-49 49l115 116l71 -71l82 81q-48 41 -106 65q-78 33 -162 33v70q84 0 162 33q58 24 106 65l-82 81l-71 -71l-115 116l49 49l66 -66l22 22l-66 66l49 49l66 -66l22 22
l-66 66l49 49l116 -115l-71 -71l81 -82q41 48 65 106q33 78 33 162h70q0 -84 33 -162q24 -58 65 -106l81 82l-71 71l116 115l49 -49l-66 -66l22 -22l66 66l49 -49l-66 -66l22 -22l66 66l49 -49l-115 -116l-71 71zM497 561q-30 -70 -80 -128l83 -84l83 84q-50 58 -80 128
q-1 4 -3 8q-2 -4 -3 -8zM239 297q70 -30 128 -80l84 83l-84 83q-57 -50 -128 -80q-4 -2 -8 -3q4 -2 8 -3zM503 39q30 70 80 128l-83 84l-83 -84q50 -58 80 -128q1 -4 3 -8q2 4 3 8zM761 297q4 1 8 3q-4 1 -8 3q-70 30 -128 80l-84 -83l84 -83q58 50 128 80z" />
    <glyph glyph-name="uni96A0" unicode="&#x96a0;" 
d="M656.5 456.5q57.5 -57.5 131.5 -88.5q78 -33 162 -33v-70q-84 0 -162 -33q-74 -31 -131.5 -88.5t-88.5 -131.5q-33 -78 -33 -162h-70q0 84 -33 162q-31 74 -88.5 131.5t-131.5 88.5q-78 33 -162 33v70q84 0 162 33q74 31 131.5 88.5t88.5 131.5q33 78 33 162h70
q0 -84 33 -162q31 -74 88.5 -131.5zM761 297q4 1 8 3q-4 1 -8 3q-87 37 -154 104t-104 154q-1 4 -3 8q-2 -5 -3 -8q-37 -87 -104 -154t-154 -104q-4 -1 -8 -3q4 -2 8 -3q87 -37 154 -104t104 -154q2 -4 3 -8q2 4 3 8q37 87 104 154t154 104zM710 20v70h240v-70h-85v-100h85
v-70h-240v70h85v100h-85zM950 680h-85v-100h85v-70h-240v70h85v100h-85v70h240v-70zM50 20v70h240v-70h-85v-100h85v-70h-240v70h85v100h-85zM290 580v-70h-240v70h85v100h-85v70h240v-70h-85v-100h85z" />
    <glyph glyph-name="uni97FB" unicode="&#x97fb;" horiz-adv-x="1057" 
d="M712 -150v900h75v-900h-75zM918 -150v900h74v-900h-74zM477 337v413h74v-900h-74v413h-421v74h421z" />
    <glyph glyph-name="uni53F3" unicode="&#x53f3;" horiz-adv-x="1072" 
d="M404 346h585v-73h-601l-249 -423l-62 37l254 432v431h73v-404zM870 244l30 -79h89v-73h-634v73h63l-20 52l68 27l30 -79h124l-20 52l68 27l30 -79h125l-21 52zM355 -55v73h634v-73h-87l-32 -83l-68 26l22 57h-124l-32 -83l-68 26l22 57h-124l-32 -83l-68 26l22 57h-65z
M863 450v-73h-345v73h142v227h-142v73h345v-73h-131v-227h131z" />
    <glyph glyph-name="uni5B87" unicode="&#x5b87;" horiz-adv-x="1051" 
d="M972 678h-129v-260h129v-72h-340v72h139v260h-139v72h340v-72zM972 272v-70h-446l-407 -352l-46 53l405 351v496h70v-478h424z" />
    <glyph glyph-name="uni7FBD" unicode="&#x7fbd;" 
d="M50 269v70h900v-70h-900zM113 475v70h774v-70h-774zM50 680v70h900v-70h-900zM835 63q-14 -18 -32 -34q18 -16 32 -34q21 -28 29 -59l78 8l8 -69l-225 -25l-8 70l76 8q-5 13 -14 26q-14 18 -37 34q-103 -54 -242 -54t-242 54q-22 -16 -36 -34q-9 -13 -14 -26l75 -8
l-8 -70l-225 25l8 69l79 -8q8 31 29 59q13 18 32 34q-19 16 -32 34q-21 29 -29 60l-79 -9l-8 70l225 25l8 -70l-75 -8q5 -13 14 -26q14 -18 36 -35q103 54 242 54t242 -54q23 17 37 35q9 13 14 26l-76 8l8 70l225 -25l-8 -70l-78 9q-8 -31 -29 -60zM340 29q73 -25 160.5 -25
t160.5 25q-73 25 -160.5 25t-160.5 -25z" />
    <glyph glyph-name="uni5504" unicode="&#x5504;" 
d="M950 335v-70h-413q10 -73 56 -134t118.5 -98.5t157.5 -42.5l13 52l68 -17l-44 -175l-68 17l14 54q-151 13 -260 108q-59 52 -92 120q-33 -68 -92 -120q-109 -95 -260 -108l14 -54l-68 -17l-44 175l68 17l13 -52q129 7 223 85.5t109 189.5h-413v70h413q-14 112 -108 190.5
t-224 86.5l-13 -53l-68 17l44 174l68 -17l-13 -52q150 -14 259 -109q59 -52 92 -120q33 68 92 120q108 95 259 109l-13 52l68 17l44 -174l-68 -17l-13 53q-130 -8 -224 -86.5t-108 -190.5h413z" />
    <glyph glyph-name="uni755D" unicode="&#x755d;" 
d="M846 28l68 -18l-42 -158l-68 18l13 49l-268 22h-1q-24 0 -50 3q-28 -3 -53 -3l-255 -22l16 -47l-67 -22l-53 158l67 23l14 -43l175 14q-71 53 -71 125t71 124l-169 15l-15 -52l-67 18l43 158l68 -18l-11 -37l257 -22q25 0 51 -3q26 3 52 3l257 22l-13 44l68 19l45 -158
l-67 -20l-13 46l-173 -15q70 -52 70 -124t-70 -124l180 -15zM499 238q-68 -10 -112.5 -41t-44.5 -70t44 -70t112 -42q44 7 80 23.5t56.5 39.5t20.5 49t-20.5 49t-56 39t-79.5 23zM700 425v-70h-163v70h48v255h-48v70h163v-70h-44v-31q90 50 238 50v-70q-52 0 -99 -8t-76 -20
t-46 -24.5t-17 -23.5q0 -8 10 -18t31 -20t49 -18.5t67 -14t81 -5.5v-70q-148 0 -238 50v-32h44zM348 425v32q-90 -50 -238 -50v70q52 0 99 8t76.5 20t46 25t16.5 23.5t-16.5 23t-46 24.5t-76.5 20t-99 8v70q148 0 238 -50v31h-44v70h163v-70h-48v-255h48v-70h-163v70h44z
" />
    <glyph glyph-name="uni6D66" unicode="&#x6d66;" horiz-adv-x="937" 
d="M273 -28q-33 0 -51 30q-61 12 -101 54.5t-40 98t40 98t101 54.5q18 30 51 30q17 0 31 -8.5t22 -22t8 -30.5q0 -25 -18 -42.5t-43 -17.5q-26 0 -45 21q-34 -9 -56 -31.5t-22 -51.5t22 -51.5t56 -31.5q19 22 45 22q25 0 43 -18t18 -43q0 -16 -8 -30t-22 -22t-31 -8z
M327 181q55 -16 90.5 -56.5t35.5 -92t-35.5 -92t-90.5 -56.5q-17 -34 -54 -34q-25 0 -42.5 17.5t-17.5 42.5t17.5 43t42.5 18q26 0 44 -19q30 11 48 32.5t18 48t-18 48t-48 31.5q-18 -18 -44 -18q-25 0 -42.5 17.5t-17.5 42.5t17.5 42.5t42.5 17.5q37 0 54 -33zM321 421v34
q-85 -50 -221 -50v69q62 0 114.5 13t79.5 31t27 34q0 26 -64.5 52t-156.5 26v69q136 0 221 -50v32h-34v69h140v-69h-37v-260h37v-69h-140v69h34zM542 681h-37v69h140v-69h-34v-32q85 50 221 50v-69q-92 0 -156.5 -26t-64.5 -52q0 -16 27 -34t79.5 -31t114.5 -13v-69
q-136 0 -221 50v-34h34v-69h-140v69h37v260zM785 -10l68 -16l-26 -106l-67 16l5 21l-91 19q-4 0 -16 3q-13 -3 -16 -3l-88 -19l5 -21l-67 -16l-25 106l67 16l4 -18l47 10q-33 51 -33 122q0 70 32 121l-45 10l-5 -23l-68 16l26 108l67 -16l-4 -17l87 -19q3 -1 16 -3
q12 2 15 3l79 17l-5 19l67 17l28 -109l-67 -17l-6 23l-38 -8q33 -52 33 -122t-33 -121l50 -11zM621 104q0 -34 10.5 -62t26.5 -41q15 13 25.5 41t10.5 62t-10.5 62t-25.5 40q-16 -12 -26.5 -40t-10.5 -62z" />
    <glyph glyph-name="uni904B" unicode="&#x904b;" horiz-adv-x="1090" 
d="M1027 451l-189 37v-126l63 18l45 -161l-68 -19l-5 16v-56h-114q2 -7 5 -20l26 11l26 -66l-65 -26q-17 -32 -50 -57l203 -15l12 44l68 -18l-41 -161l-69 18l12 47l-295 22q-23 0 -50 4q-28 -4 -53 -4l-281 -22l14 -45l-67 -22l-53 161l67 22l17 -49l-1 2l197 16
q-39 29 -55 67l-60 -16l-19 68l71 19q10 53 64 93l-161 13l-14 -52l-69 18l40 150l-40 -8v-50h-75v161h75v-35l184 36h-41v122h42l-185 36v-35h-75v161h75v-49l629 -123v89h-35v70h141v-70h-35v-101l189 37v-152zM485 536v16h-133v-16h133zM485 518h-133v-16h133v16z
M556 543v-32l81 16zM417 570l-65 13v-13h65zM352 484v-12l65 12h-65zM491 296q22 0 50 -3q28 3 53 3l173 14v166l-563 -109l46 -13l-11 -38zM661 151l30 -13q-5 14 -18.5 27t-32.5 24t-44.5 19.5t-53.5 12.5q-70 -10 -113.5 -40t-43.5 -63.5t43.5 -63.5t111.5 -40
q88 13 132 56l-37 15zM700 233q18 -13 32 -29v27h35v8zM838 231h31l-4 16l-27 -2v-14zM845 316l-7 26v-26h7z" />
    <glyph glyph-name="uni96F2" unicode="&#x96f2;" horiz-adv-x="1033" 
d="M348 415v36q-97 -53 -258 -53v71q45 0 87.5 5.5t72.5 14t52.5 19t34 21t11.5 19t-11.5 19t-34 21t-52.5 19.5t-72.5 14.5t-87.5 5.5v71q161 0 258 -54v35h-43v71h160v-71h-47v-264h47v-71h-160v71h43zM715 415v-71h-160v71h47v264h-47v71h160v-71h-43v-35q97 54 258 54
v-71q-45 0 -87.5 -5.5t-72.5 -14.5t-52.5 -19.5t-34 -21t-11.5 -18.5q0 -7 8.5 -15.5t23.5 -17.5t38 -17.5t50.5 -15t63.5 -10t74 -3.5v-71q-161 0 -258 53v-36h43zM882 -29l69 -16l-24 -102l-69 17l4 18l-103 21q-4 0 -17 3q-14 -3 -18 -3l-96 -21l3 -18l-69 -15l-22 100
l70 15l3 -13l51 11q-36 55 -36 131.5t36 130.5l-50 11l-4 -21l-70 15l22 105l70 -15l-4 -14l96 -21q4 0 18 -3q13 3 17 3l93 20l-5 21l69 16l28 -111l-69 -17l-6 22l-51 -10q37 -55 37 -132q0 -75 -36 -130l60 -12zM699 99.5q0 -38.5 12 -68.5t31 -43q18 13 30 43t12 68.5
t-12 68.5t-30 43q-19 -13 -31 -43t-12 -68.5zM459 -45l4 31l70 -9l-17 -127l-71 10l4 23q-1 0 -5 -0.5t-6 -0.5q-56 0 -120 22q-65 -22 -121 -22q-7 0 -22 2l3 -25l-71 -8l-14 127l70 8l4 -30q21 -3 47 -2q-58 39 -85 85q-59 100 -39 172q11 38 44 67l-23 22l49 51l103 -98
l-48 -51l-29 27q-22 -16 -28 -37q-12 -43 32 -117q35 -59 128 -97q92 38 127 97q44 74 32 117q-6 21 -28 37l-29 -27l-48 51l103 98l49 -51l-23 -22q33 -29 44 -67q20 -72 -39 -172q-27 -46 -85 -85q19 -1 38 1z" />
    <glyph glyph-name="uni6C38" unicode="&#x6c38;" 
d="M184 718v-793h45v-71h-157v71h41v793h71zM480 422v24q-69 -42 -169 -42v71q70 0 119.5 24t49.5 52.5t-49.5 52.5t-119.5 24v71q100 0 169 -42v22h-19v71h112v-71h-22v-257h22v-71h-112v71h19zM658 679h-22v71h112v-71h-19v-22q69 42 169 42v-71q-70 0 -119.5 -24
t-49.5 -52.5t49.5 -52.5t119.5 -24v-71q-101 0 -169 41v-23h19v-71h-112v71h22v257zM859 6l69 -15l-29 -141l-70 15l7 34l-198 22q-14 0 -34 3q-20 -4 -37 -4l-186 -21l8 -30l-68 -19l-38 137l69 19l10 -38l124 14q-52 52 -52 119q0 66 53 118l-127 15l-8 -36l-69 14l29 141
l70 -14l-8 -36l197 -22h1q13 0 33 -3q20 3 37 3l188 22l-8 32l68 18l38 -137l-69 -19l-10 37l-126 -15q52 -52 52 -118.5t-52 -117.5l128 -14zM604 -4q44 11 72 39.5t28 65t-27.5 65.5t-71.5 39q-44 -10 -72 -39t-28 -65.5t27.5 -65.5t71.5 -39z" />
    <glyph glyph-name="uni6CF3" unicode="&#x6cf3;" 
d="M114 246v16h836v-70h-17l-69 -45l-36 45h-280l-68 -45l-37 45h-279l-68 -45l-46 56zM864 411l69 -46h17v-70h-836v16l-64 43l46 57l68 -46h279l37 46l68 -46h280zM862 -68l82 7l6 -70l-226 -19l-6 70l67 5q-14 17 -42 33q-103 -43 -243.5 -43t-242.5 43q-28 -16 -43 -33
l68 -5l-6 -70l-226 19l6 70l82 -7q12 35 50 64q-38 29 -50 65l-82 -7l-6 69l226 20l6 -70l-68 -6q15 -17 43 -32q102 43 242.5 43t243.5 -43q28 15 42 32l-67 6l6 70l226 -20l-6 -69l-82 7q-13 -36 -51 -65q38 -29 51 -64zM373 -4q60 -11 126.5 -11t126.5 11
q-60 12 -126.5 12t-126.5 -12zM776 617q-54 -16 -66 -35q12 -18 66 -34q73 -22 174 -22v-70q-120 0 -206 29q-44 14 -70 34q-1 2 -3 3v-38h56v-70h-187v70h61v196h-61v70h187v-70h-56v-37q2 1 3 2q26 20 70 35q86 28 206 28v-70q-101 0 -174 -21zM326 519q-26 -20 -70 -34
q-86 -29 -206 -29v70q100 0 174 22q54 16 66 34q-12 19 -66 35q-73 21 -174 21v70q120 0 206 -28q44 -15 70 -35q1 -1 3 -2v37h-56v70h187v-70h-61v-196h61v-70h-187v70h56v38q-2 -1 -3 -3z" />
    <glyph glyph-name="uni82F1" unicode="&#x82f1;" 
d="M878 126h70v-166h-70v51h-345v-91h50v-70h-166v70h46v91h-341v-51h-70v166h70v-46h341v146h-341v-51h-70v165l70 1v-46h756v45l70 1v-166h-70v51h-345v-146h345v46zM338 415v36q-97 -53 -258 -53v71q45 0 87.5 5.5t72.5 14t52.5 19t34 21t11.5 19t-11.5 19t-34 21
t-52.5 19.5t-72.5 14.5t-87.5 5.5v71q161 0 258 -54v35h-43v71h160v-71h-47v-264h47v-71h-160v71h43zM705 415v-71h-160v71h47v264h-47v71h160v-71h-43v-35q97 54 258 54v-71q-45 0 -87.5 -5.5t-72.5 -14.5t-52.5 -19.5t-34 -21t-11.5 -19t11.5 -19t34 -21t52.5 -19
t72.5 -14t87.5 -5.5v-71q-161 0 -258 53v-36h43z" />
    <glyph glyph-name="uni6620" unicode="&#x6620;" 
d="M172 748v-826h51v-73l-174 -1v74h51v826h72zM889 -68l51 7l9 -70l-170 -21l-8 70l47 6q-8 20 -28 38q-79 -43 -181.5 -43t-180.5 43q-20 -18 -29 -38l48 -6l-9 -70l-169 21l9 70l50 -6q7 23 21 45q9 13 22 26q-13 12 -22 26q-14 22 -21 45l-50 -6l-9 70l169 20l9 -69
l-48 -6q9 -20 29 -38q78 43 180.5 43t181.5 -43q20 18 28 38l-47 6l8 69l170 -20l-9 -70l-51 6q-6 -23 -21 -45q-9 -14 -21 -26q12 -13 21 -26q15 -22 21 -46zM506 4q48 -15 102.5 -15t102.5 15q-48 15 -102.5 15t-102.5 -15zM752 204q0 -42 -34.5 -71.5t-84.5 -29.5v71
q21 0 34.5 9t13.5 21q0 5 -3.5 10.5t-9.5 10t-15.5 7t-19.5 2.5v71q50 0 84.5 -29.5t34.5 -71.5zM577 294q-20 0 -34 -9.5t-14 -21t14 -21t34 -9.5v-70q-49 0 -84 29.5t-35 71t35 71t84 29.5v-70zM816 607q-41 -19 -41 -38q0 -4 2.5 -8t7 -9t13 -11t18.5 -11q54 -26 133 -26
v-70q-94 0 -163 33q-23 11 -40 25v-34h34v-70h-141v70h37v220h-37v70h141v-70h-34v-32q17 14 40 25q69 32 163 32v-70q-79 0 -133 -26zM471 492q-17 -14 -40 -25q-68 -33 -162 -33v70q78 0 132 26q21 10 31 20.5t10 18.5q0 19 -41 38q-54 26 -132 26v70q94 0 162 -32
q23 -11 40 -25v32h-34v70h142v-70h-38v-220h38v-70h-142v70h34v34z" />
    <glyph glyph-name="uni6804" unicode="&#x6804;" 
d="M50 269v70h900v-70h-900zM113 475v70h774v-70h-774zM50 680v70h900v-70h-900zM535 142v-85l413 -141l-22 -66l-426 145l-426 -145l-22 66l413 141v85h-392v70h854v-70h-392z" />
    <glyph glyph-name="uni55B6" unicode="&#x55b6;" horiz-adv-x="1057" 
d="M74 750h900v-900h-900v900zM906 -82v764h-764v-764h764zM388 333v67q-61 -26 -139 -26v69q45 0 82 9.5t55 22t18 22.5t-18 22.5t-55 22.5t-82 10v68q78 0 139 -26v66h104v-68h-19v-191h19v-68h-104zM393 592l11 -5v5h-11zM404 407q-2 -1 -13 -6h13v6zM653 400v-67h-104
v68h19v191h-19v68h104v-66q61 26 139 26v-68q-45 0 -82 -10t-55 -22.5t-18 -22.5t18 -22.5t55 -22t82 -9.5v-69q-78 0 -139 26zM648 592h-11v-5q2 1 6 2.5t5 2.5zM637 407v-6h13q-11 5 -13 6zM268 78l9 -30l114 11q-40 40 -40 89t40 89l-112 11l-7 -25l-66 18l30 108l66 -18
l-5 -16l187 -18h1q13 0 33 -2q21 2 37 2l184 18l-5 16l66 19l31 -108l-66 -19l-7 25l-113 -11q40 -40 40 -89t-40 -89l117 -10l7 28l66 -16l-29 -123l-66 16l6 27l-194 18h-1q-14 0 -33 2q-21 -3 -37 -3l-183 -17l7 -23l-65 -20l-37 120zM517 71q44 7 71.5 28.5t27.5 48
t-27.5 48t-69.5 29.5q-44 -8 -71.5 -29t-27.5 -48t27.5 -48.5t69.5 -28.5z" />
    <glyph glyph-name="uni8A60" unicode="&#x8a60;" horiz-adv-x="1003" 
d="M144 750q19 0 36 -7.5t29.5 -20t20 -30t7.5 -37.5v-710q0 -40 -27.5 -67.5t-66 -27.5t-66 27.5t-27.5 67t27.5 67t66.5 27.5q12 0 23 -3v528q-11 -3 -23 -3q-39 0 -66.5 27.5t-27.5 67t27.5 67t66.5 27.5zM144 631q9 0 16 7t7 17.5t-7 17.5t-16.5 7t-16.5 -7t-7 -18
q0 -6 3 -12t8.5 -9t12.5 -3zM144 -80q9 0 16 7t7 17.5t-7 17.5t-16 7q-5 0 -9.5 -2t-7.5 -5t-5 -7.5t-2 -9.5q0 -7 3 -12.5t8.5 -9t12.5 -3.5zM763 655q0 26 12.5 48t34 34.5t46.5 12.5q39 0 66.5 -27.5t27.5 -67t-27.5 -67t-66.5 -27.5q-12 0 -23 3v-528q11 3 23 3
q39 0 66.5 -27.5t27.5 -67t-27.5 -67t-66 -27.5t-66 27.5t-27.5 67.5v710zM833 655.5q0 -10.5 7 -17.5t16 -7q5 0 9.5 2t7.5 5t5 7.5t2 9.5q0 11 -7 18t-16.5 7t-16.5 -7t-7 -17.5zM833 -55.5q0 -10.5 7 -17.5t16.5 -7t16.5 7t7 17.5t-7 17.5t-16.5 7t-16.5 -7t-7 -17.5z
M633 176q-15 3 -32 3q-15 0 -30 -3q12 -13 20 -28q18 -33 18 -69.5t-18 -69.5q-8 -15 -20 -28q15 -2 30 -2q17 0 34 3l6 37l69 -11l-23 -142l-69 11l5 32h-22q-54 0 -101 20q-47 -20 -101 -20h-22l5 -32l-69 -11l-23 142l69 11l6 -37q17 -3 34 -3q15 0 30 2q-12 13 -20 28
q-18 33 -18 69.5t18 69.5q8 15 20 28q-15 3 -30 3q-17 0 -32 -3l-8 -47l-69 11l23 142l69 -11l-4 -23q11 1 21 1q54 0 101 -21q47 21 101 21q10 0 21 -1l-4 23l69 11l23 -142l-69 -11zM501 146l-1 1h-0.5t-0.5 -1q-38 -29 -38 -67.5t38 -67.5l0.5 -0.5l0.5 -0.5l0.5 0.5
l0.5 0.5q38 29 38 67.5t-38 67.5zM710 666h-175v-252h175v-70h-420v70h175v252h-175v70h420v-70z" />
    <glyph glyph-name="uni5F71" unicode="&#x5f71;" 
d="M540 250q104 -17 177.5 -110t82.5 -222h38v-68h-141v68h35q-7 75 -39.5 136t-83 96.5t-109.5 35.5q-89 0 -155.5 -77t-76.5 -191h35v-68h-141v68h38q10 133 87 227.5t185 107.5v95q-108 12 -185 106.5t-87 227.5h-38v68h141v-68h-35q10 -114 76.5 -191t155.5 -77
t155.5 77t76.5 191h-35v68h141v-68h-38q-9 -129 -82.5 -222t-177.5 -110v-100zM942 403l-84 -103l84 -103l-53 -43l-75 92l-75 -92l-53 43l84 103l-84 103l53 43l75 -92l75 92zM261 154l-75 92l-75 -92l-53 43l84 103l-84 103l53 43l75 -92l75 92l53 -43l-84 -103l84 -103z
" />
    <glyph glyph-name="uni92ED" unicode="&#x92ed;" 
d="M768 -81l148 -1v-68h-355v69h138v241q-83 -80 -247.5 -128.5t-367.5 -48.5v69q107 0 205 14t171.5 39t128 56.5t82.5 68t28 72.5q0 45 -45 89.5t-123.5 80.5t-196 58t-250.5 22v68q203 0 367.5 -48t247.5 -129v238l-138 1v68h355v-69h-148v-762z" />
    <glyph glyph-name="uni885B" unicode="&#x885b;" 
d="M760 654v-724h138v-72h-313v72h103v249q-79 -57 -229 -91q-24 -47 -57 -83q34 -23 70 -29l20 51l67 -26l-59 -151l-67 26l13 33q-53 12 -99 49q-42 -28 -89 -38l19 -41l-66 -29l-65 148l66 29l17 -39q34 4 66 21q-17 22 -33 49q-82 -8 -160 -8v72q66 0 129 5
q-29 79 -29 166t29 167q-63 4 -129 4v72q78 0 160 -7q22 38 48 66q-34 23 -70 29l-20 -51l-67 26l59 151l67 -26l-13 -33q53 -12 99 -49q42 28 88 38l-18 41l66 29l65 -148l-66 -29l-17 39q-34 -4 -66 -21q34 -43 56 -96q140 -33 215 -87v246h-103v72h313v-72h-138zM362 546
q-12 -13 -21 -26q17 -2 43 -7q-10 17 -22 33zM274 293.5q0 -85.5 30 -159.5q56 6 105 16q29 73 29 157q0 66 -19 128q-54 11 -115 18q-30 -74 -30 -159.5zM350 54q7 7 14 16q-3 0 -11 -1.5t-12 -2.5q2 -3 9 -12zM490 169q47 13 84.5 28.5t62 31.5t38 32.5t13.5 31.5
q0 31 -50.5 64t-139.5 59q12 -55 12 -109q0 -71 -20 -138z" />
    <glyph glyph-name="uni6613" unicode="&#x6613;" 
d="M837 -68l74 6l6 -69l-209 -19l-6 70l60 5q-13 15 -37 29q-96 -41 -225.5 -41t-224.5 41q-24 -14 -37 -29l60 -5l-6 -70l-209 19l6 69l73 -6q12 34 46 62q-34 27 -46 61l-73 -6l-6 69l209 19l6 -70l-60 -5q13 -15 37 -29q95 41 224.5 41t225.5 -41q24 14 37 29l-60 5l6 70
l209 -19l-6 -69l-74 6q-11 -34 -46 -61q35 -28 46 -62zM387 -6q54 -11 113 -11t112 11q-53 10 -112 10t-113 -10zM500 295q-52 0 -88.5 37.5t-36.5 90t36.5 90t88.5 37.5q34 0 63 -17t45.5 -46.5t16.5 -63.5q0 -53 -36.5 -90.5t-88.5 -37.5zM500 480q-23 0 -39 -17
t-16 -40.5t16 -40.5t39 -17t39 17t16 40.5t-16 40.5t-39 17zM500 198q-91 0 -155 66t-64 158.5t64 158.5t155 66t155 -66t64 -158.5t-64 -158.5t-155 -66zM500 577q-40 0 -74.5 -21t-54.5 -56.5t-20 -76.5q0 -64 43.5 -109.5t105.5 -45.5t105.5 45.5t43.5 109t-43.5 109
t-105.5 45.5zM375 121q-57 25 -101 70q-94 96 -94 231.5t94 231.5q44 45 101 70q60 26 125 26t125 -26q57 -25 101 -70q94 -96 94 -231.5t-94 -231.5q-44 -45 -101 -70q-60 -26 -125 -26t-125 26zM324 605q-74 -76 -74 -182.5t74 -182.5q73 -75 176 -75t176 75
q74 76 74 182.5t-74 182.5q-73 75 -176 75t-176 -75z" />
    <glyph glyph-name="uni75AB" unicode="&#x75ab;" 
d="M145 439v-49h-70v167h70v-48h225l-169 95l-32 -40l-55 43l105 134l56 -43l-31 -39l223 -124v142h-97v70h264v-70h-97v-142l223 124l-30 39l55 43l105 -134l-55 -43l-31 40l-170 -95h231v48h70v-167h-70v49h-226l147 -83l31 40l55 -43l-105 -134l-55 43l30 39l-205 114
v-127h97v-70h-264v70h97v127l-205 -114l31 -39l-56 -43l-105 134l55 43l32 -40l147 83h-221zM859 -65l80 9l8 -70l-226 -24l-7 70l74 7q-4 12 -13 22q-14 18 -36 34q-104 -52 -243 -52t-242 52q-23 -16 -37 -34q-8 -10 -13 -21l75 -8l-7 -70l-225 24l7 70l79 -9q8 30 29 57
q13 17 30 31q-17 15 -30 31q-21 28 -29 58l-79 -9l-7 70l225 24l7 -70l-75 -8q5 -11 13 -22q14 -17 37 -33q103 52 242 52t243 -52q22 16 36 33q9 11 13 22l-74 8l7 70l226 -24l-8 -70l-80 9q-7 -30 -29 -58q-12 -16 -29 -31q17 -14 29 -31q22 -27 29 -57zM496.5 1
q84.5 0 156.5 22q-72 23 -156.5 23t-156.5 -23q72 -22 156.5 -22z" />
    <glyph glyph-name="uni76CA" unicode="&#x76ca;" 
d="M537 750q0 -84 33 -160.5t88 -131.5t131.5 -88t160.5 -33v-74q-112 0 -207 -55.5t-150.5 -150.5t-55.5 -207h-74q0 112 -55.5 207t-150.5 150.5t-207 55.5v74q84 0 160.5 33t131.5 88t88 131.5t33 160.5h74zM500 36q25 60 64 110.5t89.5 89.5t110.5 64
q-90 37 -158.5 105.5t-105.5 158.5q-37 -90 -105.5 -158.5t-158.5 -105.5q90 -37 158.5 -105.5t105.5 -158.5z" />
    <glyph glyph-name="uni6DB2" unicode="&#x6db2;" horiz-adv-x="1034" 
d="M552 750q0 -88 55.5 -162.5t151 -118t208.5 -43.5v-70q-84 0 -161 -25.5t-132.5 -69t-88.5 -103.5t-33 -126h-70q0 88 -55.5 162.5t-151 118t-208.5 43.5v70q84 0 161 25.5t132.5 69t88.5 103.5t33 126h70zM627 313q62 49 139 78q-77 29 -139 78q-68 54 -106 125
q-2 4 -4 9q-2 -5 -4 -9q-38 -71 -106 -125q-62 -49 -139 -78q77 -29 139 -78q68 -54 106 -125l4 -8l4 8q38 71 106 125zM897 -24v56h70v-182h-70v56h-760v-56h-70v182h70v-56h760z" />
    <glyph glyph-name="uni99C5" unicode="&#x99c5;" horiz-adv-x="1063" 
d="M562 133v-18l411 -200l-31 -65l-416 202l-416 -202l-32 65l412 200v187h72v-97h204v-72h-204zM926 750h72v-195l-72 1v63h-358v-223h63v-72h-204v72h69v223h-362v-64l-72 1v194h72v-59h792v59z" />
    <glyph glyph-name="uni60A6" unicode="&#x60a6;" horiz-adv-x="1057" 
d="M983 750v-756h-132l89 -97l-51 -47l-132 144h-461l-132 -144l-51 47l89 97h-131v756h912zM141 63h125l226 245v373h-351v-618zM360 63h333l-167 180zM913 63v618h-352v-373l226 -245h126z" />
    <glyph glyph-name="uni8D8A" unicode="&#x8d8a;" 
d="M68 -150v69h541v-69h-541zM68 -29v69h541v-69h-541zM68 92v69h541v-69h-541zM68 439v69h541v-69h-541zM68 560v69h541v-69h-541zM68 681v69h541v-69h-541zM932 695l-213 -193l-47 51l214 193zM672 353l214 193l46 -52l-213 -193zM673 45l47 52l212 -192l-46 -51z" />
    <glyph glyph-name="uni8B01" unicode="&#x8b01;" horiz-adv-x="1048" 
d="M194 120v131h71v-131h-71zM141 451l267 -220l151 125v-342l-151 125l-267 -220v-39h-71v142h71v-10l211 173l-211 174v-11h-71v143h71v-40zM487 205l-23 -20l23 -20v40zM901 614h-204v-693h70v-71h-208v71h66v693h-479v-78h-72v214h71v-65h756v65h71v-214h-71v78z" />
    <glyph glyph-name="uni95B2" unicode="&#x95b2;" horiz-adv-x="1013" 
d="M610 405q-10 1 -19 1q-11 0 -22 -2q33 -44 33 -99.5t-33 -99.5q11 -2 22 -2q10 0 20 2l5 39l63 -8l-18 -140l-63 8l5 35h-12q-41 0 -77 19q-37 -19 -78 -19h-12l5 -35l-63 -8l-18 140l63 8l5 -39q10 -2 20 -2q12 0 22 2q-33 44 -33 99.5t33 99.5q-10 2 -22 2q-9 0 -19 -1
l-6 -49l-63 8l18 140l63 -8l-3 -26h10q41 0 78 -19q36 19 77 19h11l-4 26l63 8l18 -140l-63 -8zM514 371q-25 -29 -25 -66.5t25 -66.5q24 29 24 66.5t-24 66.5zM802 514l-59 37l37 59q-43 29 -92 47q-65 23 -136 23q-80 0 -153 -30q-70 -29 -125 -82t-84.5 -122.5
t-29.5 -145.5t29.5 -145.5t84.5 -122.5t125 -82q73 -30 153 -30q71 0 136 23q49 18 91 46l-36 57l59 38l108 -171l-59 -38l-35 55q-48 -33 -104 -53q-77 -27 -160 -27q-93 0 -179 35q-83 34 -147.5 96.5t-99.5 142.5q-36 84 -36 176t36 176q35 80 99.5 142.5t147.5 96.5
q86 35 179 35q83 0 160 -27q56 -21 106 -54l33 53l59 -38z" />
    <glyph glyph-name="uni5186" unicode="&#x5186;" horiz-adv-x="1019" 
d="M409 406q-9 0 -19 -1l-6 -49l-63 8l18 140l63 -8l-4 -26h11q41 0 77 -19q37 19 78 19h10l-3 26l63 8l18 -140l-63 -8l-6 49q-10 1 -19 1q-12 0 -22 -2q33 -44 33 -99.5t-33 -99.5q10 -2 22 -2q10 0 20 2l5 39l63 -8l-18 -140l-63 8l5 35h-12q-41 0 -78 19
q-36 -19 -77 -19h-12l5 -35l-63 -8l-18 140l63 8l5 -39q10 -2 20 -2q11 0 22 2q-33 44 -33 99.5t33 99.5q-11 2 -22 2zM511 304.5q0 37.5 -25 66.5q-24 -29 -24 -66.5t24 -66.5q25 29 25 66.5zM257 551l-59 -37l-108 170l59 38l33 -53q50 33 106 54q77 27 160 27
q93 0 179 -35q83 -34 147.5 -96.5t99.5 -142.5q36 -84 36 -176t-36 -176q-35 -80 -99.5 -142.5t-147.5 -96.5q-86 -35 -179 -35q-83 0 -160 27q-56 20 -104 53l-35 -55l-59 38l108 171l59 -38l-36 -57q42 -28 91 -46q65 -23 136 -23q80 0 153 30q70 29 125 82t84.5 122.5
t29.5 145.5t-29.5 145.5t-84.5 122.5t-125 82q-73 30 -153 30q-71 0 -136 -23q-49 -18 -92 -47z" />
    <glyph glyph-name="uni5EF6" unicode="&#x5ef6;" horiz-adv-x="1051" 
d="M891 27l71 -18l-42 -158l-71 18l12 43l-291 21h-1q-22 0 -50 3q-28 -3 -52 -3l-277 -21l13 -38l-69 -24l-53 154l69 24l16 -44l192 14q-65 51 -65 117t66 117l-197 15l-11 -41l-71 19l42 158l71 -18l-12 -46l289 -22q23 0 50 -3q28 3 52 3l281 21l-14 42l69 24l53 -155
l-69 -23l-15 41l-196 -15q65 -51 65 -117t-65 -117l198 -14zM519 10q68 10 111 40.5t43 64t-43 64t-110 40.5q-68 -10 -110.5 -40.5t-42.5 -64t42.5 -64t109.5 -40.5zM165 403h-74v154h73v-42h718v42h74v-154h-74v38h-718zM164 638v-42h-73v154h74l-1 -38h718v38h74v-154
h-74v42h-718z" />
    <glyph glyph-name="uni6CBF" unicode="&#x6cbf;" 
d="M867 -13l30 30l49 -49l-108 -108l-49 49l30 29l-314 314l-192 -192q16 -26 19 -56.5t-7 -60.5t-33 -52q-41 -41 -98.5 -41t-98.5 41t-41 98.5t41 98.5q33 33 81.5 38.5t87.5 -17.5l192 192l-191 192q-34 -20 -71 -20q-58 0 -99 40.5t-41 98.5t41 99q40 39 99 39t98 -39
q34 -34 39.5 -82t-18.5 -88l192 -192l314 314l-30 30l49 48l108 -108l-49 -48l-30 30l-314 -314zM144 562q20 -20 50 -20t50 20q20 21 20 50t-20.5 50t-50 21t-50 -21t-20.5 -50t21 -50zM243.5 -60.5q20.5 20.5 20.5 50t-20.5 50t-50 20.5t-50 -20.5t-20.5 -50t20.5 -50
t50 -20.5t50 20.5z" />
    <glyph glyph-name="uni91D1" unicode="&#x91d1;" horiz-adv-x="1117" 
d="M965 64h70v-211h-70v75q-22 3 -38 10q-45 20 -61 62q-20 55 16 132q7 16 22 45q12 22 17.5 33.5t12.5 29.5t10 34.5t3 34.5q0 50 -13 97t-38.5 89.5t-61.5 77.5q-54 52 -123 81q-72 29 -151 29t-151 -29q-69 -29 -123 -81q-54 -53 -83.5 -121t-29.5 -143q0 -24 6.5 -48
t13.5 -39.5t23 -44.5q15 -29 22 -45q36 -77 16 -132q-16 -42 -61 -62q-16 -7 -38 -10v-75h-70v211h70v-65q6 1 10 3q18 8 23 22q10 28 -13 78q-7 15 -21 42q-13 24 -19.5 37.5t-15 36t-12.5 45t-4 46.5q0 91 36 174q35 79 98.5 140.5t144.5 94.5q85 35 178 35v0
q93 0 178 -35q81 -33 144.5 -94.5t98.5 -140.5q36 -83 36 -174q0 -32 -8.5 -64t-17 -50.5t-25.5 -50.5q-14 -27 -21 -42q-23 -50 -13 -78q5 -14 23 -22q4 -2 10 -3v65z" />
    <glyph glyph-name="uni708E" unicode="&#x708e;" horiz-adv-x="1063" 
d="M992 433l-427 -157v-426h-70v400l-403 -149l-24 66l427 157v426h70v-400l403 149z" />
    <glyph glyph-name="uni6028" unicode="&#x6028;" horiz-adv-x="1027" 
d="M361 175v74h306v-74h-112v-251h112v-74h-306v74h121v251h-121zM361 676v74h306v-74h-112v-251h112v-74h-306v74h121v251h-121zM892 -150v900h70v-900h-70zM62 -150v900h70v-900h-70z" />
    <glyph glyph-name="uni5BB4" unicode="&#x5bb4;" horiz-adv-x="1010" 
d="M870 478q36 -84 36 -176t-36 -176q-35 -80 -99.5 -142.5t-147.5 -96.5q-86 -35 -179 -35q-83 0 -160 27q-56 20 -104 53l-35 -55l-59 38l108 171l59 -38l-36 -57q42 -28 91 -46q65 -23 136 -23q80 0 153 30q70 29 125 82t84.5 122.5t29.5 145.5t-29.5 145.5t-84.5 122.5
t-125 82q-73 30 -153 30q-71 0 -136 -23q-49 -18 -92 -47l37 -59l-59 -37l-108 170l59 38l33 -53q50 33 106 54q77 27 160 27q93 0 179 -35q83 -34 147.5 -96.5t99.5 -142.5zM279 12l16 26q73 -45 158 -45q126 0 215.5 90t89.5 217t-89.5 217t-215.5 90q-85 0 -158 -45
l-16 26q80 49 174 49q139 0 237 -99t98 -238t-98 -238t-237 -99q-94 0 -174 49zM365 146l15 26q34 -20 73 -20q61 0 104.5 43.5t43.5 104.5q0 40 -20 74t-54 54t-74 20q-39 0 -73 -20l-15 26q41 24 88 24q48 0 89 -24t65 -65t24 -89q0 -73 -52 -125.5t-126 -52.5
q-47 0 -88 24zM323 80l15 25q53 -31 115 -31q94 0 160 66t66 160t-66 160t-160 66q-62 0 -115 -31l-15 25q60 36 130 36q106 0 181 -75t75 -181t-75 -181t-181 -75q-70 0 -130 36zM453 231q29 0 49 20.5t20 48.5t-20 48.5t-49 20.5q-16 0 -31 -8l-13 27q21 11 44 11
q27 0 50 -13.5t36 -36t13 -49.5q0 -41 -29 -70t-70 -29q-23 0 -44 11l13 27q15 -8 31 -8z" />
    <glyph glyph-name="uni5A9B" unicode="&#x5a9b;" horiz-adv-x="1003" 
d="M871 347q38 -36 39 -95q4 -53 -30 -92q-43 -48 -130 -48h-180q-11 -22 -33 -33v-159h37v-70h-144v70h37v156q-24 12 -37 36h-162h-1q-31 3 -50 -14q-15 -14 -15 -46v-132h38v-70h-38h-70h-36v70h36v132q0 63 39 98q40 36 100 32h159q12 25 37 36v94q-8 -1 -25 -1
q-16 0 -31 6t-26 16.5t-17.5 25t-6.5 30.5q0 33 24 56.5t57 23.5h95v-81h213q12 1 27 0t44.5 -11.5t49.5 -29.5zM442 381q16 0 25 1v17h-25q-4 0 -7.5 -3.5t-3.5 -6.5q0 -8 11 -8zM827 206q16 18 13 39v3v2q0 30 -17 47q-11 10 -29.5 15.5t-27.5 6t-14 -0.5h-1h-214v-102
q22 -12 33 -34h180q56 0 77 24zM798 592h152v-70h-900v70h151l-123 105l46 53l185 -158h150v140h70v-140h162l185 158l45 -53z" />
    <glyph glyph-name="uni63F4" unicode="&#x63f4;" horiz-adv-x="1069" 
d="M937 15l63 -29l-72 -160l-63 29l23 48q-39 8 -81 20q-123 34 -231 91v-143h-69v152q-115 -63 -248 -100q-42 -12 -81 -20l24 -50l-63 -29l-75 166l63 29l21 -50q45 8 95 22q120 33 224 90q-121 86 -198 200q-116 172 -123 399h-55v70l178 -1v-69h-54q4 -100 30 -188
q28 -92 81 -171q69 -104 181 -183v359h-112v69h112v162h69v-162h112v-69h-112v-347q100 75 164 171q53 79 81 171q26 88 30 188h-54v69l177 1v-70h-54q-7 -227 -123 -399q-77 -114 -198 -200q104 -57 224 -90q50 -14 95 -22z" />
    <glyph glyph-name="uni5712" unicode="&#x5712;" 
d="M857 269h93v-70h-259v70h96v142v1q1 29 -8 68q-17 75 -64 123q-73 77 -215 77t-216 -77q-47 -48 -64 -123q-9 -38 -8 -68v-1v-1v-141h97v-70h-259v70h92v141q0 12 1.5 31t8.5 56.5t28 79t53 74.5q94 99 266.5 99t266.5 -99q32 -33 53 -74.5t28 -79t8.5 -56.5t1.5 -31
v-141zM880 -20v61h70v-191h-70v61h-760v-61h-70v191h70v-61h345v221h-83v69h235v-69h-82v-221h345z" />
    <glyph glyph-name="uni7159" unicode="&#x7159;" horiz-adv-x="1003" 
d="M647 376h-126v-152h126v-70h-322v70h127v152h-127v70h322v-70zM257 551l-59 -37l-108 170l59 38l33 -53q50 33 106 54q77 27 160 27q93 0 179 -35q83 -34 147.5 -96.5t99.5 -142.5q36 -84 36 -176t-36 -176q-35 -80 -99.5 -142.5t-147.5 -96.5q-86 -35 -179 -35
q-83 0 -160 27q-56 20 -104 53l-35 -55l-59 38l108 171l59 -38l-36 -57q42 -28 91 -46q65 -23 136 -23q80 0 153 30q70 29 125 82t84.5 122.5t29.5 145.5t-29.5 145.5t-84.5 122.5t-125 82q-73 30 -153 30q-71 0 -136 -23q-49 -18 -92 -47z" />
    <glyph glyph-name="uni733F" unicode="&#x733f;" horiz-adv-x="1045" 
d="M503 568v-70h-413v70h164v111h-164v70h398v-70h-164v-111h179zM541 749h411v-251h-411v251zM882 568v111h-271v-111h271zM142 141v152l-47 36l117 124v-312h-70zM707 383v70h245v-70h-86q-6 -86 -40 -164q-43 -96 -122 -166q-94 -82 -225 -116q-87 -23 -185 -23
q-41 0 -82 4v-69h-70v218h70v-79q136 -13 249 17q116 30 197 101q125 110 138 277h-89zM555 105h-70v121q-48 16 -64 63h-130v70h130q10 31 37.5 50.5t61.5 19.5q28 0 52 -14t38.5 -38t14.5 -53q0 -33 -20 -60.5t-50 -37.5v-121zM519.5 359q-9.5 0 -17.5 -4.5t-12.5 -12.5
t-4.5 -18q0 -7 2.5 -13.5t7 -11t11 -7.5t14.5 -3q14 0 24.5 10.5t10.5 24.5q0 10 -5 18t-13 12.5t-17.5 4.5zM592 -76q9 5 26.5 15t58 38.5t68.5 56.5l49 -49q-19 -20 -44 -40t-44.5 -33.5t-40 -26t-28.5 -17t-13 -7.5z" />
    <glyph glyph-name="uni9060" unicode="&#x9060;" horiz-adv-x="1054" 
d="M970 457q2 -18 -2 -39q-7 -48 -38 -82q-54 -61 -166 -61h-160q-14 -36 -50 -51v-305h38v-69h-147v69h40v303q-39 14 -54 53h-136h-1q-48 4 -78 -24q-27 -24 -27 -77v-255h41v-69h-147v69h37v255q0 84 50 129q34 31 86 39q22 3 43 2h132q15 38 54 53v161h-4
q-41 0 -70 28.5t-29 68t29 67.5t70 28h73v-112h209q15 1 34 -0.5t57.5 -14.5t64.5 -38q51 -47 51 -128zM481 627q2 0 4 1v53h-4q-12 0 -21 -8t-9 -19t9 -19t21 -8zM878 381q27 30 23 71v2v2q0 51 -29 79q-18 16 -46 24.5t-40.5 9t-19.5 0.5h-1h-211v-174q36 -15 50 -51h160
q80 0 114 37z" />
    <glyph glyph-name="uni9B42" unicode="&#x9b42;" horiz-adv-x="1075" 
d="M564 119v-210h44v-59h-148v59h45v209q-41 14 -56 54h-141h-1q-20 2 -48 -3.5t-46 -21.5q-18 -17 -18 -48v-190h46v-59h-148v59h43v190q0 57 37 91q33 31 90 39q25 4 48 2h138q15 41 56 55v102h-9q-37 0 -63 19q-32 22 -32 57q0 34 31 56h-287v-44h-59v148h59v-44h230
l-121 34l8 28l223 -62h20v9l-251 70l8 29l243 -68v15l-251 70l8 29l243 -68v25h-45v59h148v-59h-44v-25l242 68l8 -29l-250 -70v-15l242 68l8 -29l-250 -70v-9h20l222 62l8 -28l-120 -34h228v44h59v-148h-59v44h-358v-65h217q28 1 60 -4q69 -12 107 -47q37 -36 37 -89
q5 -46 -27 -84q-51 -59 -176 -59h-166q-14 -38 -52 -53zM782 396h-218v-112q38 -14 52 -53h166q98 0 131 39q17 19 13 38v3v2q0 29 -19 48q-21 20 -59 28t-65 7h-1zM496 447q4 0 9 1v32q-5 1 -9 1q-15 0 -25.5 -6t-10.5 -11t10.5 -11t25.5 -6zM971 108l-29 -52l-85 48l29 51
zM863 72l-43 -41l-64 66l43 42zM737 43l-57 -17l-26 82l57 18z" />
    <glyph glyph-name="uni925B" unicode="&#x925b;" 
d="M743 49l59 37l108 -170l-59 -38l-33 53q-50 -33 -106 -54q-77 -27 -160 -27q-93 0 -179 35q-83 34 -147.5 96.5t-99.5 142.5q-36 84 -36 176t36 176q35 80 99.5 142.5t147.5 96.5q86 35 179 35q83 0 160 -27q56 -20 104 -53l35 55l59 -38l-108 -171l-59 38l36 57
q-42 28 -91 46q-65 23 -136 23q-80 0 -153 -30q-70 -29 -125 -82t-84.5 -122.5t-29.5 -145.5t29.5 -145.5t84.5 -122.5t125 -82q73 -30 153 -30q71 0 136 23q49 18 92 47zM568 532q0 -82 57.5 -139.5t139.5 -57.5v-70q-82 0 -139.5 -57.5t-57.5 -139.5h-70q0 82 -57.5 139.5
t-139.5 57.5v70q82 0 139.5 57.5t57.5 139.5h70zM576 256.5q25 25.5 56 43.5q-31 18 -56 43.5t-43 55.5q-18 -30 -43.5 -55.5t-55.5 -43.5q30 -18 55.5 -43.5t43.5 -55.5q18 30 43 55.5z" />
    <glyph glyph-name="uni5869" unicode="&#x5869;" horiz-adv-x="1261" 
d="M1191 407v-69h-42q-5 -89 -39 -171q-20 -47 -48 -88t-64 -77q-71 -72 -164 -111q-97 -41 -202 -41t-202 41q-93 39 -164.5 111t-110.5 165q-35 82 -40 171h-52v69h152v-69h-31q5 -75 34 -145q34 -80 96.5 -142.5t142.5 -96.5q84 -35 175 -35t175 35q80 34 142.5 96.5
t96.5 143.5q29 69 34 144h-32v69h143zM442 241l11 -11l114 113h-161v-16h-65v86h65v-16h161l-114 114l-11 -12l-47 47l62 61l46 -46l-11 -12l113 -113v160h-16v66h86v-66h-16v-160l116 116l-11 11l46 47l61 -62l-46 -46l-11 11l-116 -116h164v16h65v-86h-65v16h-164
l116 -116l11 11l47 -46l-62 -61l-46 46l11 12l-116 116v-164h16v-66h-86v66h16v164l-113 -114l11 -11l-46 -47l-62 62zM362 98.5q-53 52.5 -82 121.5q-30 71 -30 148.5t30 148.5q29 68 82 121t121 82q71 30 149 30t149 -30q68 -29 121 -82t82 -121q30 -71 30 -148.5
t-30 -148.5q-29 -69 -82 -121.5t-121 -81.5q-71 -30 -149 -30t-149 30q-68 29 -121 81.5zM411 589.5q-92 -91.5 -92 -221t92 -221t221 -91.5t220.5 91.5t91.5 221t-91.5 221t-220.5 91.5t-221 -91.5z" />
    <glyph glyph-name="uni6F14" unicode="&#x6f14;" horiz-adv-x="1060" 
d="M920 5h70v-155h-70v43h-774v-43h-70v155h70v-43h351v325l-291 -278l-48 51l339 323v297h-52v70h171v-70h-49v-155h160v-70h-160v-72l339 -323l-48 -51l-291 278v-325h353v43z" />
    <glyph glyph-name="uni7E01" unicode="&#x7e01;" horiz-adv-x="1057" 
d="M911 39h70v-189h-70v60h-774v-60h-70v189h70v-60h351v377h-386v70h386v254h-59v70h185v-70h-56v-254h387v-70h-387v-377h353v60z" />
    <glyph glyph-name="uni8276" unicode="&#x8276;" horiz-adv-x="1045" 
d="M902 37h70v-187h-70v54h-774v-54h-70v187h70v-64h247l-214 90l27 65l291 -123v7l-318 145l27 64l291 -133v18l-318 145l27 64l291 -134v499h-65v70h190v-70h-55v-484l282 119l27 -64l-309 -130v-18l282 118l27 -64l-309 -130v-18l282 119l27 -65l-214 -90h258v64z" />
    <glyph glyph-name="uni6C5A" unicode="&#x6c5a;" horiz-adv-x="1012" 
d="M660 265q14 -188 215 -362l-46 -52q-225 195 -238 414h-161q-7 -76 -40 -151q-30 -72 -82 -140q-59 -78 -118 -124l-42 55l21 -28l-21 28q53 42 106 112q46 62 73 125q26 62 33 123h-104q-11 -31 -38.5 -51t-61.5 -20q-44 0 -75 31t-31 75t31 75t75 31q34 0 61.5 -20
t38.5 -51h105q-14 188 -215 362l46 52q225 -195 239 -414h160q7 76 40 151q30 72 82 140q59 78 118 124l21 -28l21 -27v0q-53 -42 -106 -112q-46 -62 -73 -125q-26 -62 -33 -123h83q11 31 38.5 51t62.5 20q43 0 74 -31t31 -75t-31 -75t-74 -31q-35 0 -62.5 20t-38.5 51h-84z
" />
    </font>
</defs>
</svg>
